<svg width="375" height="64" viewBox="0 0 375 64" fill="none" xmlns="http://www.w3.org/2000/svg">
<mask id="path-1-outside-1_106_454" maskUnits="userSpaceOnUse" x="-1" y="-1" width="377" height="66" fill="black">
<rect fill="white" x="-1" y="-1" width="377" height="66"/>
<path d="M0.326752 3.33594H18.6314C22.1334 3.33594 25.1305 3.95898 27.6227 5.20508C30.1363 6.45117 32.0484 8.22363 33.359 10.5225C34.6695 12.7998 35.3248 15.4746 35.3248 18.5469C35.3248 21.7266 34.6158 24.4551 33.1978 26.7324C31.7799 29.0098 29.7389 30.7178 27.0748 31.8564L37.0006 50H26.3014L17.3746 33.4355H9.99472V50H0.326752V3.33594ZM16.8268 25.5723C22.4986 25.5723 25.3346 23.2305 25.3346 18.5469C25.3346 16.1621 24.6256 14.3574 23.2076 13.1328C21.7896 11.8867 19.6627 11.2637 16.8268 11.2637H9.99472V25.5723H16.8268ZM57.11 50.709C53.565 50.709 50.4928 49.9785 47.8932 48.5176C45.315 47.0566 43.3277 44.9727 41.9312 42.2656C40.5348 39.5371 39.8365 36.3359 39.8365 32.6621C39.8365 29.0742 40.524 25.916 41.899 23.1875C43.2955 20.4375 45.2721 18.3105 47.8287 16.8066C50.3853 15.3027 53.3502 14.5508 56.7232 14.5508C59.86 14.5508 62.6637 15.2168 65.1344 16.5488C67.6266 17.8594 69.5816 19.8467 70.9996 22.5107C72.4391 25.1748 73.1588 28.4297 73.1588 32.2754V34.9824H49.2467C49.2467 36.7227 49.5689 38.2373 50.2135 39.5264C50.8795 40.8154 51.8141 41.8145 53.0172 42.5234C54.2418 43.2109 55.6705 43.5547 57.3033 43.5547C58.8717 43.5547 60.2252 43.2432 61.3639 42.6201C62.5025 41.9756 63.3189 41.1055 63.8131 40.0098H72.901C72.4498 42.1582 71.526 44.0381 70.1295 45.6494C68.733 47.2607 66.9176 48.5068 64.6832 49.3877C62.4703 50.2686 59.9459 50.709 57.11 50.709ZM64.1353 28.9883C64.1353 27.5918 63.8238 26.3457 63.2008 25.25C62.5992 24.1328 61.7506 23.2627 60.6549 22.6396C59.5592 22.0166 58.3131 21.7051 56.9166 21.7051C55.4986 21.7051 54.2096 22.0273 53.0494 22.6719C51.9107 23.3164 50.9977 24.1973 50.3102 25.3145C49.6441 26.4316 49.2896 27.6562 49.2467 28.9883H64.1353ZM99.1334 25.3789C98.94 24.1543 98.3277 23.1768 97.2965 22.4463C96.2652 21.6943 94.9654 21.3184 93.3971 21.3184C92.3658 21.3184 91.4312 21.4795 90.5934 21.8018C89.7769 22.1025 89.1324 22.5322 88.6598 23.0908C88.1871 23.6279 87.9615 24.2402 87.983 24.9277C87.9185 26.582 89.4225 27.7422 92.4947 28.4082L98.7467 29.6973C102.141 30.4062 104.666 31.5342 106.32 33.0811C107.996 34.6279 108.844 36.6582 108.866 39.1719C108.844 41.4492 108.178 43.458 106.868 45.1982C105.579 46.9385 103.763 48.292 101.421 49.2588C99.0797 50.2256 96.3834 50.709 93.3326 50.709C90.2174 50.709 87.5211 50.2686 85.2437 49.3877C82.9664 48.4854 81.1725 47.207 79.8619 45.5527C78.5728 43.877 77.7994 41.9004 77.5416 39.623H87.1451C87.36 40.998 88.0045 42.04 89.0787 42.749C90.1529 43.458 91.5709 43.8125 93.3326 43.8125C95.0728 43.8125 96.4693 43.4795 97.5221 42.8135C98.5963 42.1475 99.1334 41.2559 99.1334 40.1387C99.1334 39.2363 98.7467 38.5059 97.9732 37.9473C97.2213 37.3672 96.0182 36.8945 94.3639 36.5293L88.5631 35.3691C85.2545 34.7246 82.7408 33.5537 81.0221 31.8564C79.3033 30.1592 78.4654 28.0215 78.5084 25.4434C78.4869 23.2305 79.0777 21.3076 80.2809 19.6748C81.484 18.0205 83.2027 16.7529 85.4371 15.8721C87.6715 14.9912 90.2818 14.5508 93.2682 14.5508C96.1685 14.5508 98.7037 14.9912 100.874 15.8721C103.044 16.7529 104.741 18.0098 105.965 19.6426C107.212 21.2539 107.921 23.166 108.092 25.3789H99.1334ZM114.731 15.002H124.141V20.8672H124.528C125.323 19.1055 126.526 17.6123 128.137 16.3877C129.749 15.1631 131.876 14.5508 134.518 14.5508C137.161 14.5508 139.556 15.2383 141.705 16.6133C143.853 17.9668 145.55 19.9971 146.796 22.7041C148.064 25.3896 148.698 28.666 148.698 32.5332C148.698 36.3145 148.075 39.5693 146.829 42.2979C145.604 45.0049 143.918 47.0674 141.769 48.4854C139.642 49.8818 137.225 50.5801 134.518 50.5801C131.919 50.5801 129.802 49.9893 128.17 48.8076C126.558 47.6045 125.344 46.1328 124.528 44.3926H124.27V63.1484H114.731V15.002ZM124.077 32.4688C124.077 34.5742 124.367 36.4219 124.947 38.0117C125.527 39.5801 126.376 40.8047 127.493 41.6855C128.61 42.5449 129.942 42.9746 131.489 42.9746C133.874 42.9746 135.711 42.0186 137 40.1064C138.31 38.1943 138.965 35.6484 138.965 32.4688C138.965 29.332 138.31 26.8291 137 24.96C135.711 23.0908 133.874 22.1562 131.489 22.1562C129.126 22.1562 127.299 23.0801 126.01 24.9277C124.721 26.7539 124.077 29.2676 124.077 32.4688ZM170.612 50.709C167.131 50.709 164.102 49.957 161.524 48.4531C158.946 46.9492 156.959 44.833 155.562 42.1045C154.166 39.3545 153.467 36.1855 153.467 32.5977C153.467 29.0098 154.155 25.8516 155.53 23.123C156.926 20.3945 158.914 18.2891 161.492 16.8066C164.091 15.3027 167.131 14.5508 170.612 14.5508C174.092 14.5508 177.132 15.3027 179.732 16.8066C182.332 18.2891 184.33 20.3945 185.726 23.123C187.123 25.8516 187.821 29.0098 187.821 32.5977C187.821 36.1855 187.123 39.3545 185.726 42.1045C184.33 44.833 182.332 46.9492 179.732 48.4531C177.132 49.957 174.092 50.709 170.612 50.709ZM170.676 43.2969C172.266 43.2969 173.62 42.8457 174.737 41.9434C175.854 41.0195 176.692 39.752 177.251 38.1406C177.809 36.5293 178.088 34.6816 178.088 32.5977C178.088 30.5137 177.809 28.666 177.251 27.0547C176.692 25.4219 175.854 24.1436 174.737 23.2197C173.62 22.2959 172.266 21.834 170.676 21.834C169.065 21.834 167.69 22.2959 166.551 23.2197C165.434 24.1436 164.586 25.4219 164.005 27.0547C163.425 28.666 163.135 30.5137 163.135 32.5977C163.135 34.6602 163.425 36.5078 164.005 38.1406C164.586 39.752 165.434 41.0195 166.551 41.9434C167.69 42.8457 169.065 43.2969 170.676 43.2969ZM203.354 50H193.815V15.002H202.903V21.125H203.29C204.106 19.0625 205.427 17.4512 207.254 16.291C209.08 15.1309 211.26 14.5508 213.796 14.5508C216.223 14.5508 218.35 15.0771 220.176 16.1299C222.003 17.1826 223.41 18.708 224.398 20.7061C225.386 22.6826 225.87 25.0137 225.848 27.6992V50H216.374V29.375C216.374 27.2266 215.815 25.54 214.698 24.3154C213.581 23.0908 212.034 22.4785 210.057 22.4785C208.016 22.4785 206.383 23.123 205.159 24.4121C203.956 25.7012 203.354 27.4844 203.354 29.7617V50ZM253.241 25.3789C253.047 24.1543 252.435 23.1768 251.404 22.4463C250.373 21.6943 249.073 21.3184 247.504 21.3184C246.473 21.3184 245.539 21.4795 244.701 21.8018C243.884 22.1025 243.24 22.5322 242.767 23.0908C242.295 23.6279 242.069 24.2402 242.09 24.9277C242.026 26.582 243.53 27.7422 246.602 28.4082L252.854 29.6973C256.249 30.4062 258.773 31.5342 260.427 33.0811C262.103 34.6279 262.952 36.6582 262.973 39.1719C262.952 41.4492 262.286 43.458 260.975 45.1982C259.686 46.9385 257.871 48.292 255.529 49.2588C253.187 50.2256 250.491 50.709 247.44 50.709C244.325 50.709 241.629 50.2686 239.351 49.3877C237.074 48.4854 235.28 47.207 233.969 45.5527C232.68 43.877 231.907 41.9004 231.649 39.623H241.253C241.467 40.998 242.112 42.04 243.186 42.749C244.26 43.458 245.678 43.8125 247.44 43.8125C249.18 43.8125 250.577 43.4795 251.629 42.8135C252.704 42.1475 253.241 41.2559 253.241 40.1387C253.241 39.2363 252.854 38.5059 252.081 37.9473C251.329 37.3672 250.126 36.8945 248.471 36.5293L242.671 35.3691C239.362 34.7246 236.848 33.5537 235.129 31.8564C233.411 30.1592 232.573 28.0215 232.616 25.4434C232.594 23.2305 233.185 21.3076 234.388 19.6748C235.591 18.0205 237.31 16.7529 239.545 15.8721C241.779 14.9912 244.389 14.5508 247.376 14.5508C250.276 14.5508 252.811 14.9912 254.981 15.8721C257.151 16.7529 258.848 18.0098 260.073 19.6426C261.319 21.2539 262.028 23.166 262.2 25.3789H253.241ZM268.838 15.002H278.378V50H268.838V15.002ZM273.608 10.4258C272.663 10.4258 271.782 10.2109 270.965 9.78125C270.171 9.33008 269.537 8.73926 269.064 8.00879C268.613 7.25684 268.387 6.45117 268.387 5.5918C268.387 4.71094 268.613 3.89453 269.064 3.14258C269.537 2.39063 270.171 1.7998 270.965 1.37012C271.782 0.918945 272.663 0.693359 273.608 0.693359C274.532 0.693359 275.391 0.918945 276.186 1.37012C276.981 1.7998 277.604 2.39063 278.055 3.14258C278.528 3.89453 278.764 4.71094 278.764 5.5918C278.764 6.45117 278.528 7.25684 278.055 8.00879C277.604 8.73926 276.981 9.33008 276.186 9.78125C275.391 10.2109 274.532 10.4258 273.608 10.4258ZM285.983 3.33594H295.522V20.8672H295.78C296.618 19.084 297.832 17.5908 299.421 16.3877C301.011 15.1631 303.128 14.5508 305.77 14.5508C308.413 14.5508 310.808 15.2383 312.957 16.6133C315.127 17.9668 316.845 19.9971 318.113 22.7041C319.38 25.3896 320.014 28.666 320.014 32.5332C320.014 36.3145 319.391 39.5693 318.145 42.2979C316.899 45.0049 315.202 47.0674 313.053 48.4854C310.905 49.8818 308.477 50.5801 305.77 50.5801C303.171 50.5801 301.054 49.9893 299.421 48.8076C297.81 47.6045 296.596 46.1328 295.78 44.3926H295.393V50H285.983V3.33594ZM295.329 32.4688C295.329 34.5742 295.619 36.4219 296.199 38.0117C296.779 39.5801 297.628 40.8047 298.745 41.6855C299.862 42.5449 301.194 42.9746 302.741 42.9746C305.126 42.9746 306.962 42.0186 308.252 40.1064C309.562 38.1943 310.217 35.6484 310.217 32.4688C310.217 29.332 309.562 26.8291 308.252 24.96C306.962 23.0908 305.126 22.1562 302.741 22.1562C300.378 22.1562 298.551 23.0801 297.262 24.9277C295.973 26.7539 295.329 29.2676 295.329 32.4688ZM335.676 50H326.137V3.33594H335.676V50ZM358.944 50.709C355.399 50.709 352.327 49.9785 349.727 48.5176C347.149 47.0566 345.162 44.9727 343.765 42.2656C342.369 39.5371 341.671 36.3359 341.671 32.6621C341.671 29.0742 342.358 25.916 343.733 23.1875C345.129 20.4375 347.106 18.3105 349.663 16.8066C352.219 15.3027 355.184 14.5508 358.557 14.5508C361.694 14.5508 364.498 15.2168 366.968 16.5488C369.461 17.8594 371.416 19.8467 372.834 22.5107C374.273 25.1748 374.993 28.4297 374.993 32.2754V34.9824H351.081C351.081 36.7227 351.403 38.2373 352.047 39.5264C352.713 40.8154 353.648 41.8145 354.851 42.5234C356.076 43.2109 357.504 43.5547 359.137 43.5547C360.706 43.5547 362.059 43.2432 363.198 42.6201C364.337 41.9756 365.153 41.1055 365.647 40.0098H374.735C374.284 42.1582 373.36 44.0381 371.963 45.6494C370.567 47.2607 368.752 48.5068 366.517 49.3877C364.304 50.2686 361.78 50.709 358.944 50.709ZM365.969 28.9883C365.969 27.5918 365.658 26.3457 365.035 25.25C364.433 24.1328 363.585 23.2627 362.489 22.6396C361.393 22.0166 360.147 21.7051 358.751 21.7051C357.333 21.7051 356.044 22.0273 354.883 22.6719C353.745 23.3164 352.832 24.1973 352.144 25.3145C351.478 26.4316 351.124 27.6562 351.081 28.9883H365.969Z"/>
</mask>
<path d="M0.326752 3.33594V2.33594H-0.673248V3.33594H0.326752ZM27.6227 5.20508L27.1754 6.09951L27.1785 6.10103L27.6227 5.20508ZM33.359 10.5225L32.4902 11.0177L32.4922 11.0212L33.359 10.5225ZM27.0748 31.8564L26.6818 30.9369L25.6688 31.3699L26.1975 32.3364L27.0748 31.8564ZM37.0006 50V51H38.6875L37.8779 49.5201L37.0006 50ZM26.3014 50L25.4211 50.4744L25.7043 51H26.3014V50ZM17.3746 33.4355L18.2549 32.9611L17.9717 32.4355H17.3746V33.4355ZM9.99472 33.4355V32.4355H8.99472V33.4355H9.99472ZM9.99472 50V51H10.9947V50H9.99472ZM0.326752 50H-0.673248V51H0.326752V50ZM23.2076 13.1328L22.5475 13.884L22.554 13.8896L23.2076 13.1328ZM9.99472 11.2637V10.2637H8.99472V11.2637H9.99472ZM9.99472 25.5723H8.99472V26.5723H9.99472V25.5723ZM0.326752 4.33594H18.6314V2.33594H0.326752V4.33594ZM18.6314 4.33594C22.017 4.33594 24.8531 4.93836 27.1754 6.09951L28.0699 4.31065C25.4078 2.97961 22.2498 2.33594 18.6314 2.33594V4.33594ZM27.1785 6.10103C29.5252 7.26438 31.2843 8.90237 32.4902 11.0177L34.2277 10.0272C32.8126 7.5449 30.7474 5.63797 28.0668 4.30912L27.1785 6.10103ZM32.4922 11.0212C33.7017 13.1229 34.3248 15.6198 34.3248 18.5469H36.3248C36.3248 15.3294 35.6374 12.4767 34.2257 10.0237L32.4922 11.0212ZM34.3248 18.5469C34.3248 21.5747 33.6512 24.1124 32.3489 26.2039L34.0467 27.261C35.5805 24.7977 36.3248 21.8784 36.3248 18.5469H34.3248ZM32.3489 26.2039C31.0481 28.2932 29.1733 29.872 26.6818 30.9369L27.4678 32.776C30.3045 31.5635 32.5117 29.7264 34.0467 27.261L32.3489 26.2039ZM26.1975 32.3364L36.1233 50.4799L37.8779 49.5201L27.9521 31.3765L26.1975 32.3364ZM37.0006 49H26.3014V51H37.0006V49ZM27.1817 49.5256L18.2549 32.9611L16.4943 33.91L25.4211 50.4744L27.1817 49.5256ZM17.3746 32.4355H9.99472V34.4355H17.3746V32.4355ZM8.99472 33.4355V50H10.9947V33.4355H8.99472ZM9.99472 49H0.326752V51H9.99472V49ZM1.32675 50V3.33594H-0.673248V50H1.32675ZM16.8268 26.5723C19.7752 26.5723 22.1725 25.9675 23.8443 24.587C25.5528 23.1762 26.3346 21.0986 26.3346 18.5469H24.3346C24.3346 20.6787 23.6984 22.1138 22.5709 23.0448C21.4067 24.0061 19.5501 24.5723 16.8268 24.5723V26.5723ZM26.3346 18.5469C26.3346 15.9568 25.5564 13.84 23.8612 12.376L22.554 13.8896C23.6948 14.8749 24.3346 16.3675 24.3346 18.5469H26.3346ZM23.8677 12.3816C22.1946 10.9113 19.7874 10.2637 16.8268 10.2637V12.2637C19.538 12.2637 21.3847 12.8621 22.5475 13.884L23.8677 12.3816ZM16.8268 10.2637H9.99472V12.2637H16.8268V10.2637ZM8.99472 11.2637V25.5723H10.9947V11.2637H8.99472ZM9.99472 26.5723H16.8268V24.5723H9.99472V26.5723ZM47.8932 48.5176L47.4001 49.3876L47.4032 49.3893L47.8932 48.5176ZM41.9312 42.2656L41.0411 42.7212L41.0425 42.7241L41.9312 42.2656ZM41.899 23.1875L41.0074 22.7347L41.006 22.7375L41.899 23.1875ZM65.1344 16.5488L64.6598 17.4291L64.6689 17.4339L65.1344 16.5488ZM70.9996 22.5107L70.1168 22.9806L70.1198 22.9861L70.9996 22.5107ZM73.1588 34.9824V35.9824H74.1588V34.9824H73.1588ZM49.2467 34.9824V33.9824H48.2467V34.9824H49.2467ZM50.2135 39.5264L49.319 39.9736L49.325 39.9854L50.2135 39.5264ZM53.0172 42.5234L52.5095 43.385L52.5185 43.3903L52.5276 43.3954L53.0172 42.5234ZM61.3639 42.6201L61.8439 43.4974L61.8502 43.4939L61.8565 43.4904L61.3639 42.6201ZM63.8131 40.0098V39.0098H63.1671L62.9015 39.5987L63.8131 40.0098ZM72.901 40.0098L73.8796 40.2153L74.1328 39.0098H72.901V40.0098ZM64.6832 49.3877L64.3164 48.4574L64.3134 48.4586L64.6832 49.3877ZM64.1353 28.9883V29.9883H65.1353V28.9883H64.1353ZM63.2008 25.25L62.3203 25.7241L62.3258 25.7343L62.3315 25.7443L63.2008 25.25ZM53.0494 22.6719L52.5637 21.7977L52.5568 21.8016L53.0494 22.6719ZM50.3102 25.3145L49.4584 24.7903L49.4512 24.8024L50.3102 25.3145ZM49.2467 28.9883L48.2472 28.956L48.2139 29.9883H49.2467V28.9883ZM57.11 49.709C53.7042 49.709 50.8071 49.0081 48.3831 47.6458L47.4032 49.3893C50.1784 50.9489 53.4259 51.709 57.11 51.709V49.709ZM48.3862 47.6476C45.9821 46.2852 44.13 44.3466 42.82 41.8072L41.0425 42.7241C42.5255 45.5987 44.648 47.8281 47.4001 49.3876L48.3862 47.6476ZM42.8214 41.81C41.5101 39.2479 40.8365 36.2087 40.8365 32.6621H38.8365C38.8365 36.4632 39.5594 39.8263 41.0411 42.7212L42.8214 41.81ZM40.8365 32.6621C40.8365 29.2034 41.4987 26.2041 42.792 23.6375L41.006 22.7375C39.5494 25.628 38.8365 28.9451 38.8365 32.6621H40.8365ZM42.7906 23.6403C44.1043 21.0535 45.9505 19.0716 48.3357 17.6686L47.3217 15.9447C44.5936 17.5494 42.4867 19.8215 41.0074 22.7347L42.7906 23.6403ZM48.3357 17.6686C50.7185 16.2669 53.5036 15.5508 56.7232 15.5508V13.5508C53.1968 13.5508 50.0521 14.3386 47.3217 15.9447L48.3357 17.6686ZM56.7232 15.5508C59.7141 15.5508 62.3514 16.1845 64.6598 17.4291L65.6089 15.6686C62.9759 14.2491 60.0058 13.5508 56.7232 13.5508V15.5508ZM64.6689 17.4339C66.9706 18.6442 68.7861 20.4803 70.1169 22.9806L71.8824 22.0409C70.3772 19.2131 68.2826 17.0745 65.5998 15.6637L64.6689 17.4339ZM70.1198 22.9861C71.4619 25.4699 72.1588 28.5519 72.1588 32.2754H74.1588C74.1588 28.3075 73.4162 24.8797 71.8794 22.0354L70.1198 22.9861ZM72.1588 32.2754V34.9824H74.1588V32.2754H72.1588ZM73.1588 33.9824H49.2467V35.9824H73.1588V33.9824ZM48.2467 34.9824C48.2467 36.8461 48.5921 38.5198 49.319 39.9736L51.1079 39.0792C50.5457 37.9549 50.2467 36.5992 50.2467 34.9824H48.2467ZM49.325 39.9854C50.074 41.4349 51.1375 42.5765 52.5095 43.385L53.5249 41.6619C52.4906 41.0524 51.685 40.1959 51.1019 39.0673L49.325 39.9854ZM52.5276 43.3954C53.9245 44.1796 55.5272 44.5547 57.3033 44.5547V42.5547C55.8138 42.5547 54.5591 42.2423 53.5067 41.6515L52.5276 43.3954ZM57.3033 44.5547C59.0047 44.5547 60.5303 44.2161 61.8439 43.4974L60.8838 41.7429C59.9201 42.2702 58.7387 42.5547 57.3033 42.5547V44.5547ZM61.8565 43.4904C63.1627 42.751 64.1354 41.7276 64.7247 40.4209L62.9015 39.5987C62.5025 40.4833 61.8423 41.2002 60.8713 41.7499L61.8565 43.4904ZM63.8131 41.0098H72.901V39.0098H63.8131V41.0098ZM71.9223 39.8042C71.505 41.7915 70.6556 43.5155 69.3738 44.9945L70.8852 46.3043C72.3963 44.5607 73.3946 42.5249 73.8796 40.2153L71.9223 39.8042ZM69.3738 44.9945C68.0956 46.4693 66.42 47.6281 64.3164 48.4574L65.05 50.318C67.4151 49.3856 69.3704 48.0521 70.8852 46.3043L69.3738 44.9945ZM64.3134 48.4586C62.2383 49.2846 59.8429 49.709 57.11 49.709V51.709C60.0489 51.709 62.7023 51.2525 65.053 50.3168L64.3134 48.4586ZM65.1353 28.9883C65.1353 27.4376 64.7878 26.0179 64.0701 24.7557L62.3315 25.7443C62.8599 26.6735 63.1353 27.746 63.1353 28.9883H65.1353ZM64.0812 24.7759C63.3913 23.4945 62.4093 22.4869 61.1492 21.7704L60.1606 23.5089C61.0918 24.0385 61.8072 24.7711 62.3203 25.7241L64.0812 24.7759ZM61.1492 21.7704C59.887 21.0527 58.4672 20.7051 56.9166 20.7051V22.7051C58.1589 22.7051 59.2313 22.9806 60.1606 23.5089L61.1492 21.7704ZM56.9166 20.7051C55.3407 20.7051 53.8826 21.065 52.5638 21.7977L53.5351 23.546C54.5365 22.9897 55.6566 22.7051 56.9166 22.7051V20.7051ZM52.5568 21.8016C51.2707 22.5296 50.2343 23.5297 49.4585 24.7904L51.1618 25.8386C51.761 24.8648 52.5507 24.1032 53.542 23.5421L52.5568 21.8016ZM49.4512 24.8024C48.6963 26.0687 48.2955 27.4591 48.2472 28.956L50.2462 29.0205C50.2838 27.8534 50.592 26.7945 51.1691 25.8265L49.4512 24.8024ZM49.2467 29.9883H64.1353V27.9883H49.2467V29.9883ZM99.1334 25.3789L98.1456 25.5349L98.2789 26.3789H99.1334V25.3789ZM97.2965 22.4463L96.7073 23.2544L96.7185 23.2623L97.2965 22.4463ZM90.5934 21.8018L90.9391 22.7401L90.9457 22.7376L90.9523 22.7351L90.5934 21.8018ZM88.6598 23.0908L89.4105 23.7514L89.4169 23.7442L89.4231 23.7368L88.6598 23.0908ZM87.983 24.9277L88.9822 24.9667L88.9836 24.9316L88.9825 24.8965L87.983 24.9277ZM92.4947 28.4082L92.2828 29.3856L92.2928 29.3876L92.4947 28.4082ZM98.7467 29.6973L98.9511 28.7184L98.9486 28.7179L98.7467 29.6973ZM106.32 33.0811L105.637 33.8115L105.642 33.8159L106.32 33.0811ZM108.866 39.1719L109.866 39.1813L109.866 39.1723L109.866 39.1633L108.866 39.1719ZM106.868 45.1982L106.069 44.5966L106.064 44.603L106.868 45.1982ZM85.2437 49.3877L84.8754 50.3174L84.883 50.3204L85.2437 49.3877ZM79.8619 45.5527L79.0693 46.1624L79.0736 46.1681L79.0781 46.1737L79.8619 45.5527ZM77.5416 39.623V38.623H76.422L76.5479 39.7355L77.5416 39.623ZM87.1451 39.623L88.1331 39.4687L88.001 38.623H87.1451V39.623ZM97.5221 42.8135L96.9951 41.9635L96.9874 41.9684L97.5221 42.8135ZM97.9732 37.9473L97.3624 38.739L97.3749 38.7487L97.3877 38.7579L97.9732 37.9473ZM94.3639 36.5293L94.5794 35.5528L94.5697 35.5507L94.56 35.5487L94.3639 36.5293ZM88.5631 35.3691L88.7592 34.3885L88.7543 34.3876L88.5631 35.3691ZM78.5084 25.4434L79.5083 25.46L79.5085 25.4468L79.5083 25.4337L78.5084 25.4434ZM80.2809 19.6748L81.0859 20.268L81.0896 20.263L80.2809 19.6748ZM105.965 19.6426L105.165 20.2426L105.17 20.2485L105.174 20.2543L105.965 19.6426ZM108.092 25.3789V26.3789H109.173L109.089 25.3015L108.092 25.3789ZM100.121 25.2229C99.8848 23.7263 99.1209 22.5131 97.8745 21.6303L96.7185 23.2623C97.5345 23.8404 97.9952 24.5823 98.1456 25.5349L100.121 25.2229ZM97.8857 21.6383C96.6473 20.7354 95.1279 20.3184 93.3971 20.3184V22.3184C94.803 22.3184 95.8831 22.6533 96.7073 23.2543L97.8857 21.6383ZM93.3971 20.3184C92.2611 20.3184 91.2025 20.496 90.2344 20.8684L90.9523 22.7351C91.66 22.4629 92.4705 22.3184 93.3971 22.3184V20.3184ZM90.2476 20.8634C89.2998 21.2126 88.5001 21.7314 87.8964 22.4449L89.4231 23.7368C89.7648 23.333 90.2541 22.9925 90.9391 22.7401L90.2476 20.8634ZM87.909 22.4302C87.2761 23.1495 86.9537 24.0066 86.9835 24.959L88.9825 24.8965C88.9693 24.4739 89.0982 24.1064 89.4105 23.7514L87.909 22.4302ZM86.9838 24.8888C86.9369 26.0906 87.487 27.0861 88.4518 27.8304C89.374 28.5418 90.685 29.0391 92.2829 29.3855L92.7066 27.4309C91.2322 27.1113 90.2551 26.6955 89.6734 26.2468C89.1343 25.8309 88.9646 25.4192 88.9822 24.9667L86.9838 24.8888ZM92.2928 29.3876L98.5447 30.6767L98.9486 28.7179L92.6967 27.4288L92.2928 29.3876ZM98.5422 30.6761C101.845 31.366 104.169 32.4393 105.637 33.8115L107.003 32.3506C105.162 30.629 102.437 29.4465 98.9511 28.7184L98.5422 30.6761ZM105.642 33.8159C107.093 35.1552 107.846 36.9116 107.866 39.1804L109.866 39.1633C109.842 36.4049 108.899 34.1006 106.998 32.3463L105.642 33.8159ZM107.866 39.1624C107.846 41.2363 107.245 43.0353 106.069 44.5967L107.667 45.7998C109.112 43.8807 109.842 41.6621 109.866 39.1813L107.866 39.1624ZM106.064 44.603C104.9 46.174 103.243 47.4251 101.04 48.3345L101.803 50.1831C104.284 49.1589 106.257 47.7029 107.671 45.7935L106.064 44.603ZM101.04 48.3345C98.8411 49.2422 96.2786 49.709 93.3326 49.709V51.709C96.4882 51.709 99.3183 51.209 101.803 50.1831L101.04 48.3345ZM93.3326 49.709C90.3082 49.709 87.7399 49.281 85.6045 48.455L84.883 50.3204C87.3023 51.2561 90.1265 51.709 93.3326 51.709V49.709ZM85.6121 48.458C83.4714 47.6098 81.8309 46.4277 80.6457 44.9318L79.0781 46.1737C80.5141 47.9863 82.4614 49.3609 84.8754 50.3174L85.6121 48.458ZM80.6545 44.943C79.4858 43.4237 78.7744 41.6227 78.5352 39.5106L76.5479 39.7355C76.8245 42.1781 77.6599 44.3303 79.0693 46.1624L80.6545 44.943ZM77.5416 40.623H87.1451V38.623H77.5416V40.623ZM86.1571 39.7774C86.4114 41.4053 87.1981 42.706 88.5279 43.5836L89.6295 41.9144C88.8109 41.3741 88.3085 40.5908 88.1331 39.4687L86.1571 39.7774ZM88.5279 43.5836C89.8156 44.4335 91.4451 44.8125 93.3326 44.8125V42.8125C91.6967 42.8125 90.4903 42.4825 89.6295 41.9144L88.5279 43.5836ZM93.3326 44.8125C95.1901 44.8125 96.7924 44.4584 98.0567 43.6586L96.9874 41.9684C96.1462 42.5006 94.9556 42.8125 93.3326 42.8125V44.8125ZM98.049 43.6634C99.3715 42.8434 100.133 41.6526 100.133 40.1387H98.1334C98.1334 40.8591 97.821 41.4515 96.9951 41.9636L98.049 43.6634ZM100.133 40.1387C100.133 38.8942 99.5749 37.8705 98.5587 37.1366L97.3877 38.7579C97.9184 39.1412 98.1334 39.5785 98.1334 40.1387H100.133ZM98.584 37.1555C97.6572 36.4405 96.2819 35.9287 94.5794 35.5528L94.1483 37.5058C95.7544 37.8604 96.7854 38.2939 97.3624 38.739L98.584 37.1555ZM94.56 35.5487L88.7592 34.3886L88.367 36.3497L94.1677 37.5099L94.56 35.5487ZM88.7543 34.3876C85.5653 33.7664 83.258 32.659 81.7247 31.1449L80.3194 32.568C82.2236 34.4484 84.9436 35.6829 88.3719 36.3507L88.7543 34.3876ZM81.7247 31.1449C80.2145 29.6536 79.4695 27.7856 79.5083 25.46L77.5085 25.4267C77.4614 28.2574 78.3921 30.6648 80.3194 32.568L81.7247 31.1449ZM79.5083 25.4337C79.4888 23.4166 80.0233 21.7102 81.0859 20.268L79.4758 19.0816C78.1322 20.9051 77.4851 23.0443 77.5084 25.4531L79.5083 25.4337ZM81.0896 20.263C82.1626 18.7875 83.715 17.6259 85.8039 16.8024L85.0703 14.9418C82.6904 15.88 80.8053 17.2535 79.4721 19.0866L81.0896 20.263ZM85.8039 16.8024C87.8968 15.9773 90.3779 15.5508 93.2682 15.5508V13.5508C90.1858 13.5508 87.4461 14.0051 85.0703 14.9418L85.8039 16.8024ZM93.2682 15.5508C96.0694 15.5508 98.4718 15.9763 100.497 16.7986L101.25 14.9455C98.9356 14.0061 96.2677 13.5508 93.2682 13.5508V15.5508ZM100.497 16.7986C102.524 17.6214 104.065 18.7755 105.165 20.2426L106.765 19.0426C105.417 17.2441 103.563 15.8844 101.25 14.9455L100.497 16.7986ZM105.174 20.2543C106.291 21.6976 106.937 23.4197 107.095 25.4563L109.089 25.3015C108.904 22.9124 108.133 20.8102 106.756 19.0308L105.174 20.2543ZM108.092 24.3789H99.1334V26.3789H108.092V24.3789ZM114.731 15.002V14.002H113.731V15.002H114.731ZM124.141 15.002H125.141V14.002H124.141V15.002ZM124.141 20.8672H123.141V21.8672H124.141V20.8672ZM124.528 20.8672V21.8672H125.174L125.439 21.2785L124.528 20.8672ZM141.705 16.6133L141.166 17.4556L141.172 17.4594L141.705 16.6133ZM146.796 22.7041L145.888 23.1223L145.892 23.1309L146.796 22.7041ZM146.829 42.2979L145.919 41.8824L145.918 41.8857L146.829 42.2979ZM141.769 48.4854L142.318 49.3213L142.32 49.32L141.769 48.4854ZM128.17 48.8076L127.571 49.6089L127.577 49.6134L127.583 49.6177L128.17 48.8076ZM124.528 44.3926L125.433 43.9679L125.163 43.3926H124.528V44.3926ZM124.27 44.3926V43.3926H123.27V44.3926H124.27ZM124.27 63.1484V64.1484H125.27V63.1484H124.27ZM114.731 63.1484H113.731V64.1484H114.731V63.1484ZM124.947 38.0117L124.007 38.3545L124.009 38.3586L124.947 38.0117ZM127.493 41.6855L126.874 42.4709L126.883 42.4782L127.493 41.6855ZM137 40.1064L136.175 39.5411L136.17 39.5475L137 40.1064ZM137 24.96L136.176 25.5277L136.181 25.5341L137 24.96ZM126.01 24.9277L126.827 25.5044L126.83 25.4999L126.01 24.9277ZM114.731 16.002H124.141V14.002H114.731V16.002ZM123.141 15.002V20.8672H125.141V15.002H123.141ZM124.141 21.8672H124.528V19.8672H124.141V21.8672ZM125.439 21.2785C126.163 19.6758 127.257 18.3126 128.742 17.1839L127.532 15.5915C125.795 16.912 124.483 18.5351 123.616 20.4559L125.439 21.2785ZM128.742 17.1839C130.133 16.127 132.027 15.5508 134.518 15.5508V13.5508C131.724 13.5508 129.364 14.1992 127.532 15.5915L128.742 17.1839ZM134.518 15.5508C136.977 15.5508 139.184 16.1874 141.166 17.4556L142.244 15.771C139.928 14.2892 137.345 13.5508 134.518 13.5508V15.5508ZM141.172 17.4594C143.129 18.6927 144.709 20.5601 145.888 23.1222L147.705 22.286C146.392 19.4341 144.577 17.2409 142.238 15.7672L141.172 17.4594ZM145.892 23.1309C147.081 25.6491 147.698 28.7708 147.698 32.5332H149.698C149.698 28.5612 149.047 25.1302 147.701 22.2773L145.892 23.1309ZM147.698 32.5332C147.698 36.2073 147.092 39.3136 145.919 41.8824L147.738 42.7133C149.057 39.825 149.698 36.4216 149.698 32.5332H147.698ZM145.918 41.8857C144.759 44.4478 143.186 46.352 141.218 47.6507L142.32 49.32C144.649 47.7828 146.45 45.562 147.74 42.71L145.918 41.8857ZM141.22 47.6494C139.267 48.9319 137.043 49.5801 134.518 49.5801V51.5801C137.407 51.5801 140.017 50.8318 142.318 49.3213L141.22 47.6494ZM134.518 49.5801C132.068 49.5801 130.174 49.0242 128.756 47.9975L127.583 49.6177C129.43 50.9543 131.769 51.5801 134.518 51.5801V49.5801ZM128.768 48.0063C127.282 46.8969 126.177 45.5523 125.433 43.9679L123.623 44.8173C124.512 46.7133 125.834 48.3121 127.571 49.6089L128.768 48.0063ZM124.528 43.3926H124.27V45.3926H124.528V43.3926ZM123.27 44.3926V63.1484H125.27V44.3926H123.27ZM124.27 62.1484H114.731V64.1484H124.27V62.1484ZM115.731 63.1484V15.002H113.731V63.1484H115.731ZM123.077 32.4688C123.077 34.6637 123.379 36.6317 124.007 38.3545L125.886 37.669C125.355 36.2121 125.077 34.4847 125.077 32.4688H123.077ZM124.009 38.3586C124.642 40.069 125.588 41.4573 126.874 42.4708L128.112 40.9003C127.163 40.1521 126.412 39.0912 125.885 37.6648L124.009 38.3586ZM126.883 42.4782C128.192 43.4853 129.744 43.9746 131.489 43.9746V41.9746C130.14 41.9746 129.028 41.6046 128.102 40.8929L126.883 42.4782ZM131.489 43.9746C134.193 43.9746 136.346 42.8643 137.829 40.6654L136.17 39.5475C135.075 41.1728 133.555 41.9746 131.489 41.9746V43.9746ZM137.824 40.6718C139.284 38.5418 139.965 35.7773 139.965 32.4688H137.965C137.965 35.5196 137.336 37.8469 136.175 39.5411L137.824 40.6718ZM139.965 32.4688C139.965 29.2015 139.284 26.4756 137.818 24.3859L136.181 25.5341C137.337 27.1826 137.965 29.4625 137.965 32.4688H139.965ZM137.823 24.3922C136.336 22.2367 134.183 21.1562 131.489 21.1562V23.1562C133.564 23.1562 135.085 23.945 136.176 25.5277L137.823 24.3922ZM131.489 21.1562C128.818 21.1562 126.677 22.2246 125.19 24.3556L126.83 25.4999C127.922 23.9355 129.433 23.1562 131.489 23.1562V21.1562ZM125.193 24.3511C123.744 26.4046 123.077 29.1468 123.077 32.4688H125.077C125.077 29.3883 125.699 27.1032 126.827 25.5044L125.193 24.3511ZM155.562 42.1045L154.67 42.5573L154.672 42.5601L155.562 42.1045ZM155.53 23.123L154.64 22.6674L154.637 22.673L155.53 23.123ZM161.492 16.8066L161.99 17.6735L161.993 17.6722L161.492 16.8066ZM179.732 16.8066L179.231 17.6722L179.237 17.6753L179.732 16.8066ZM185.726 42.1045L186.616 42.5601L186.618 42.5573L185.726 42.1045ZM174.737 41.9434L175.365 42.7214L175.374 42.714L174.737 41.9434ZM177.251 27.0547L176.304 27.3784L176.306 27.3822L177.251 27.0547ZM166.551 23.2197L165.921 22.4431L165.914 22.4491L166.551 23.2197ZM164.005 27.0547L164.946 27.3934L164.948 27.3895L164.005 27.0547ZM164.005 38.1406L163.063 38.4754L163.065 38.4793L164.005 38.1406ZM166.551 41.9434L165.914 42.714L165.922 42.7206L165.93 42.7271L166.551 41.9434ZM170.612 49.709C167.279 49.709 164.429 48.9902 162.028 47.5893L161.02 49.3169C163.775 50.9239 166.984 51.709 170.612 51.709V49.709ZM162.028 47.5893C159.62 46.1845 157.764 44.2121 156.452 41.6489L154.672 42.5601C156.153 45.454 158.272 47.714 161.02 49.3169L162.028 47.5893ZM156.454 41.6517C155.139 39.0633 154.467 36.0539 154.467 32.5977H152.467C152.467 36.3172 153.192 39.6457 154.67 42.5573L156.454 41.6517ZM154.467 32.5977C154.467 29.1389 155.13 26.1396 156.423 23.5731L154.637 22.673C153.18 25.5635 152.467 28.8806 152.467 32.5977H154.467ZM156.42 23.5787C157.731 21.0166 159.585 19.0565 161.99 17.6735L160.993 15.9397C158.242 17.5216 156.121 19.7724 154.64 22.6674L156.42 23.5787ZM161.993 17.6722C164.417 16.2695 167.279 15.5508 170.612 15.5508V13.5508C166.984 13.5508 163.766 14.3359 160.991 15.9411L161.993 17.6722ZM170.612 15.5508C173.945 15.5508 176.807 16.2695 179.231 17.6722L180.233 15.9411C177.458 14.3359 174.24 13.5508 170.612 13.5508V15.5508ZM179.237 17.6753C181.663 19.0589 183.526 21.0189 184.836 23.5787L186.616 22.6674C185.134 19.7702 183 17.5192 180.227 15.938L179.237 17.6753ZM184.836 23.5787C186.149 26.1439 186.821 29.1412 186.821 32.5977H188.821C188.821 28.8783 188.096 25.5592 186.616 22.6674L184.836 23.5787ZM186.821 32.5977C186.821 36.0539 186.149 39.0633 184.835 41.6517L186.618 42.5573C188.096 39.6457 188.821 36.3172 188.821 32.5977H186.821ZM184.836 41.6489C183.525 44.2099 181.661 46.1821 179.231 47.5875L180.233 49.3187C183.003 47.7164 185.134 45.4562 186.616 42.5601L184.836 41.6489ZM179.231 47.5875C176.807 48.9902 173.945 49.709 170.612 49.709V51.709C174.24 51.709 177.458 50.9238 180.233 49.3187L179.231 47.5875ZM170.676 44.2969C172.469 44.2969 174.051 43.7829 175.365 42.7213L174.109 41.1654C173.189 41.9085 172.064 42.2969 170.676 42.2969V44.2969ZM175.374 42.714C176.656 41.6542 177.588 40.2217 178.195 38.4682L176.306 37.8131C175.796 39.2822 175.052 40.3848 174.1 41.1727L175.374 42.714ZM178.195 38.4682C178.798 36.7311 179.088 34.7693 179.088 32.5977H177.088C177.088 34.594 176.821 36.3275 176.306 37.8131L178.195 38.4682ZM179.088 32.5977C179.088 30.4261 178.798 28.4642 178.195 26.7271L176.306 27.3822C176.821 28.8678 177.088 30.6013 177.088 32.5977H179.088ZM178.197 26.731C177.59 24.9571 176.659 23.5112 175.374 22.4491L174.1 23.9904C175.05 24.7759 175.794 25.8866 176.304 27.3784L178.197 26.731ZM175.374 22.4491C174.06 21.3624 172.475 20.834 170.676 20.834V22.834C172.058 22.834 173.179 23.2294 174.1 23.9904L175.374 22.4491ZM170.676 20.834C168.86 20.834 167.256 21.3602 165.921 22.4432L167.181 23.9963C168.124 23.2316 169.27 22.834 170.676 22.834V20.834ZM165.914 22.4491C164.633 23.5087 163.692 24.9503 163.063 26.7199L164.948 27.3895C165.479 25.8934 166.236 24.7784 167.189 23.9904L165.914 22.4491ZM163.065 26.716C162.438 28.4566 162.135 30.4224 162.135 32.5977H164.135C164.135 30.6049 164.413 28.8754 164.946 27.3934L163.065 26.716ZM162.135 32.5977C162.135 34.7531 162.438 36.7168 163.063 38.4754L164.948 37.8059C164.412 36.2988 164.135 34.5672 164.135 32.5977H162.135ZM163.065 38.4793C163.694 40.2284 164.636 41.6568 165.914 42.714L167.189 41.1727C166.233 40.3823 165.477 39.2755 164.946 37.8019L163.065 38.4793ZM165.93 42.7271C167.265 43.7849 168.866 44.2969 170.676 44.2969V42.2969C169.264 42.2969 168.115 41.9065 167.172 41.1596L165.93 42.7271ZM203.354 50V51H204.354V50H203.354ZM193.815 50H192.815V51H193.815V50ZM193.815 15.002V14.002H192.815V15.002H193.815ZM202.903 15.002H203.903V14.002H202.903V15.002ZM202.903 21.125H201.903V22.125H202.903V21.125ZM203.29 21.125V22.125H203.969L204.219 21.493L203.29 21.125ZM224.398 20.7061L223.502 21.1494L223.504 21.1533L224.398 20.7061ZM225.848 27.6992L224.848 27.6912V27.6992H225.848ZM225.848 50V51H226.848V50H225.848ZM216.374 50H215.374V51H216.374V50ZM205.159 24.4121L204.434 23.7233L204.428 23.7298L205.159 24.4121ZM203.354 49H193.815V51H203.354V49ZM194.815 50V15.002H192.815V50H194.815ZM193.815 16.002H202.903V14.002H193.815V16.002ZM201.903 15.002V21.125H203.903V15.002H201.903ZM202.903 22.125H203.29V20.125H202.903V22.125ZM204.219 21.493C204.96 19.6215 206.146 18.179 207.79 17.1351L206.717 15.4469C204.708 16.7233 203.252 18.5035 202.36 20.757L204.219 21.493ZM207.79 17.1351C209.43 16.0932 211.417 15.5508 213.796 15.5508V13.5508C211.104 13.5508 208.73 14.1685 206.717 15.4469L207.79 17.1351ZM213.796 15.5508C216.075 15.5508 218.024 16.0436 219.677 16.9962L220.676 15.2635C218.676 14.1107 216.372 13.5508 213.796 13.5508V15.5508ZM219.677 16.9962C221.322 17.9445 222.596 19.3178 223.502 21.1494L225.294 20.2627C224.224 18.0983 222.683 16.4208 220.676 15.2635L219.677 16.9962ZM223.504 21.1533C224.408 22.9613 224.869 25.13 224.848 27.6912L226.848 27.7072C226.871 24.8973 226.365 22.4039 225.292 20.2588L223.504 21.1533ZM224.848 27.6992V50H226.848V27.6992H224.848ZM225.848 49H216.374V51H225.848V49ZM217.374 50V29.375H215.374V50H217.374ZM217.374 29.375C217.374 27.0532 216.767 25.0996 215.437 23.6415L213.959 24.9894C214.863 25.9804 215.374 27.3999 215.374 29.375H217.374ZM215.437 23.6415C214.094 22.1693 212.256 21.4785 210.057 21.4785V23.4785C211.812 23.4785 213.068 24.0123 213.959 24.9894L215.437 23.6415ZM210.057 21.4785C207.786 21.4785 205.876 22.2055 204.434 23.7234L205.884 25.1009C206.891 24.0405 208.246 23.4785 210.057 23.4785V21.4785ZM204.428 23.7298C203.006 25.2532 202.354 27.3074 202.354 29.7617H204.354C204.354 27.6613 204.905 26.1492 205.89 25.0944L204.428 23.7298ZM202.354 29.7617V50H204.354V29.7617H202.354ZM253.241 25.3789L252.253 25.5349L252.386 26.3789H253.241V25.3789ZM251.404 22.4463L250.815 23.2544L250.826 23.2623L251.404 22.4463ZM244.701 21.8018L245.046 22.7401L245.053 22.7376L245.06 22.7351L244.701 21.8018ZM242.767 23.0908L243.518 23.7514L243.524 23.7442L243.531 23.7368L242.767 23.0908ZM242.09 24.9277L243.09 24.9667L243.091 24.9316L243.09 24.8965L242.09 24.9277ZM246.602 28.4082L246.39 29.3856L246.4 29.3876L246.602 28.4082ZM252.854 29.6973L253.059 28.7184L253.056 28.7179L252.854 29.6973ZM260.427 33.0811L259.744 33.8115L259.749 33.8159L260.427 33.0811ZM262.973 39.1719L263.973 39.1813L263.973 39.1723L263.973 39.1633L262.973 39.1719ZM260.975 45.1982L260.176 44.5966L260.172 44.603L260.975 45.1982ZM239.351 49.3877L238.983 50.3174L238.99 50.3204L239.351 49.3877ZM233.969 45.5527L233.177 46.1624L233.181 46.1681L233.185 46.1737L233.969 45.5527ZM231.649 39.623V38.623H230.529L230.655 39.7355L231.649 39.623ZM241.253 39.623L242.241 39.4687L242.108 38.623H241.253V39.623ZM251.629 42.8135L251.103 41.9635L251.095 41.9684L251.629 42.8135ZM252.081 37.9473L251.47 38.739L251.482 38.7487L251.495 38.7579L252.081 37.9473ZM248.471 36.5293L248.687 35.5528L248.677 35.5507L248.667 35.5487L248.471 36.5293ZM242.671 35.3691L242.867 34.3885L242.862 34.3876L242.671 35.3691ZM232.616 25.4434L233.616 25.46L233.616 25.4468L233.616 25.4337L232.616 25.4434ZM234.388 19.6748L235.193 20.268L235.197 20.263L234.388 19.6748ZM260.073 19.6426L259.273 20.2426L259.277 20.2485L259.282 20.2543L260.073 19.6426ZM262.2 25.3789V26.3789H263.28L263.197 25.3015L262.2 25.3789ZM254.229 25.2229C253.992 23.7263 253.228 22.5131 251.982 21.6303L250.826 23.2623C251.642 23.8404 252.103 24.5823 252.253 25.5349L254.229 25.2229ZM251.993 21.6383C250.755 20.7354 249.235 20.3184 247.504 20.3184V22.3184C248.91 22.3184 249.991 22.6533 250.815 23.2543L251.993 21.6383ZM247.504 20.3184C246.369 20.3184 245.31 20.496 244.342 20.8684L245.06 22.7351C245.767 22.4629 246.578 22.3184 247.504 22.3184V20.3184ZM244.355 20.8634C243.407 21.2126 242.607 21.7314 242.004 22.4449L243.531 23.7368C243.872 23.333 244.362 22.9925 245.046 22.7401L244.355 20.8634ZM242.016 22.4302C241.383 23.1495 241.061 24.0066 241.091 24.959L243.09 24.8965C243.077 24.4739 243.206 24.1064 243.518 23.7514L242.016 22.4302ZM241.091 24.8888C241.044 26.0906 241.594 27.0861 242.559 27.8304C243.481 28.5418 244.792 29.0391 246.39 29.3855L246.814 27.4309C245.34 27.1113 244.363 26.6955 243.781 26.2468C243.242 25.8309 243.072 25.4192 243.09 24.9667L241.091 24.8888ZM246.4 29.3876L252.652 30.6767L253.056 28.7179L246.804 27.4288L246.4 29.3876ZM252.65 30.6761C255.953 31.366 258.277 32.4393 259.744 33.8115L261.11 32.3506C259.269 30.629 256.545 29.4465 253.059 28.7184L252.65 30.6761ZM259.749 33.8159C261.2 35.1552 261.954 36.9116 261.973 39.1804L263.973 39.1633C263.95 36.4049 263.006 34.1006 261.106 32.3463L259.749 33.8159ZM261.973 39.1624C261.954 41.2363 261.352 43.0353 260.176 44.5967L261.774 45.7998C263.219 43.8807 263.95 41.6621 263.973 39.1813L261.973 39.1624ZM260.172 44.603C259.008 46.174 257.35 47.4251 255.147 48.3345L255.911 50.1831C258.391 49.1589 260.364 47.7029 261.779 45.7935L260.172 44.603ZM255.147 48.3345C252.949 49.2422 250.386 49.709 247.44 49.709V51.709C250.596 51.709 253.426 51.209 255.911 50.1831L255.147 48.3345ZM247.44 49.709C244.416 49.709 241.847 49.281 239.712 48.455L238.99 50.3204C241.41 51.2561 244.234 51.709 247.44 51.709V49.709ZM239.72 48.458C237.579 47.6098 235.938 46.4277 234.753 44.9318L233.185 46.1737C234.621 47.9863 236.569 49.3609 238.983 50.3174L239.72 48.458ZM234.762 44.943C233.593 43.4237 232.882 41.6227 232.643 39.5106L230.655 39.7355C230.932 42.1781 231.767 44.3303 233.177 46.1624L234.762 44.943ZM231.649 40.623H241.253V38.623H231.649V40.623ZM240.265 39.7774C240.519 41.4053 241.305 42.706 242.635 43.5836L243.737 41.9144C242.918 41.3741 242.416 40.5908 242.241 39.4687L240.265 39.7774ZM242.635 43.5836C243.923 44.4335 245.553 44.8125 247.44 44.8125V42.8125C245.804 42.8125 244.598 42.4825 243.737 41.9144L242.635 43.5836ZM247.44 44.8125C249.298 44.8125 250.9 44.4584 252.164 43.6586L251.095 41.9684C250.254 42.5006 249.063 42.8125 247.44 42.8125V44.8125ZM252.156 43.6634C253.479 42.8434 254.241 41.6526 254.241 40.1387H252.241C252.241 40.8591 251.928 41.4515 251.103 41.9636L252.156 43.6634ZM254.241 40.1387C254.241 38.8942 253.682 37.8705 252.666 37.1366L251.495 38.7579C252.026 39.1412 252.241 39.5785 252.241 40.1387H254.241ZM252.691 37.1555C251.765 36.4405 250.389 35.9287 248.687 35.5528L248.256 37.5058C249.862 37.8604 250.893 38.2939 251.47 38.739L252.691 37.1555ZM248.667 35.5487L242.867 34.3886L242.474 36.3497L248.275 37.5099L248.667 35.5487ZM242.862 34.3876C239.673 33.7664 237.365 32.659 235.832 31.1449L234.427 32.568C236.331 34.4484 239.051 35.6829 242.479 36.3507L242.862 34.3876ZM235.832 31.1449C234.322 29.6536 233.577 27.7856 233.616 25.46L231.616 25.4267C231.569 28.2574 232.5 30.6648 234.427 32.568L235.832 31.1449ZM233.616 25.4337C233.596 23.4166 234.131 21.7102 235.193 20.268L233.583 19.0816C232.24 20.9051 231.592 23.0443 231.616 25.4531L233.616 25.4337ZM235.197 20.263C236.27 18.7875 237.822 17.6259 239.911 16.8024L239.178 14.9418C236.798 15.88 234.913 17.2535 233.58 19.0866L235.197 20.263ZM239.911 16.8024C242.004 15.9773 244.485 15.5508 247.376 15.5508V13.5508C244.293 13.5508 241.554 14.0051 239.178 14.9418L239.911 16.8024ZM247.376 15.5508C250.177 15.5508 252.579 15.9763 254.605 16.7986L255.357 14.9455C253.043 14.0061 250.375 13.5508 247.376 13.5508V15.5508ZM254.605 16.7986C256.632 17.6214 258.173 18.7755 259.273 20.2426L260.873 19.0426C259.524 17.2441 257.67 15.8844 255.357 14.9455L254.605 16.7986ZM259.282 20.2543C260.398 21.6976 261.045 23.4197 261.203 25.4563L263.197 25.3015C263.011 22.9124 262.24 20.8102 260.864 19.0308L259.282 20.2543ZM262.2 24.3789H253.241V26.3789H262.2V24.3789ZM268.838 15.002V14.002H267.838V15.002H268.838ZM278.378 15.002H279.378V14.002H278.378V15.002ZM278.378 50V51H279.378V50H278.378ZM268.838 50H267.838V51H268.838V50ZM270.965 9.78125L270.472 10.6509L270.486 10.6588L270.5 10.6662L270.965 9.78125ZM269.064 8.00879L268.207 8.52328L268.215 8.53781L268.224 8.55204L269.064 8.00879ZM269.064 3.14258L268.217 2.61041L268.212 2.61919L268.207 2.62808L269.064 3.14258ZM270.965 1.37012L271.441 2.24986L271.449 2.24536L270.965 1.37012ZM276.186 1.37012L275.693 2.2398L275.702 2.24491L275.711 2.24982L276.186 1.37012ZM278.055 3.14258L277.198 3.65707L277.203 3.66597L277.209 3.67475L278.055 3.14258ZM278.055 8.00879L277.209 7.4766L277.204 7.4833L278.055 8.00879ZM276.186 9.78125L276.662 10.661L276.671 10.656L276.68 10.6509L276.186 9.78125ZM268.838 16.002H278.378V14.002H268.838V16.002ZM277.378 15.002V50H279.378V15.002H277.378ZM278.378 49H268.838V51H278.378V49ZM269.838 50V15.002H267.838V50H269.838ZM273.608 9.42578C272.821 9.42578 272.1 9.24852 271.431 8.89633L270.5 10.6662C271.463 11.1734 272.505 11.4258 273.608 11.4258V9.42578ZM271.459 8.91156C270.797 8.53565 270.284 8.05408 269.904 7.46554L268.224 8.55204C268.789 9.42443 269.544 10.1245 270.472 10.6509L271.459 8.91156ZM269.922 7.49429C269.562 6.89442 269.387 6.26608 269.387 5.5918H267.387C267.387 6.63627 267.664 7.61925 268.207 8.52328L269.922 7.49429ZM269.387 5.5918C269.387 4.89132 269.564 4.25288 269.922 3.65707L268.207 2.62808C267.662 3.53619 267.387 4.53055 267.387 5.5918H269.387ZM269.911 3.67475C270.29 3.07132 270.795 2.59907 271.441 2.24982L270.49 0.490411C269.546 1.00054 268.783 1.70993 268.217 2.61041L269.911 3.67475ZM271.449 2.24536C272.115 1.87716 272.829 1.69336 273.608 1.69336V-0.306641C272.496 -0.306641 271.448 -0.0392721 270.482 0.494876L271.449 2.24536ZM273.608 1.69336C274.361 1.69336 275.05 1.875 275.693 2.2398L276.68 0.500431C275.733 -0.0371086 274.703 -0.306641 273.608 -0.306641V1.69336ZM275.711 2.24982C276.353 2.59695 276.842 3.06374 277.198 3.65707L278.913 2.62808C278.366 1.71751 277.609 1.00266 276.662 0.490411L275.711 2.24982ZM277.209 3.67475C277.582 4.26869 277.764 4.90088 277.764 5.5918H279.764C279.764 4.521 279.474 3.52037 278.902 2.61041L277.209 3.67475ZM277.764 5.5918C277.764 6.25635 277.585 6.87846 277.209 7.47662L278.902 8.54096C279.471 7.63522 279.764 6.646 279.764 5.5918H277.764ZM277.204 7.4833C276.847 8.06162 276.351 8.53778 275.693 8.91156L276.68 10.6509C277.611 10.1224 278.361 9.41689 278.906 8.53428L277.204 7.4833ZM275.711 8.90154C275.065 9.25046 274.37 9.42578 273.608 9.42578V11.4258C274.694 11.4258 275.717 11.1714 276.662 10.661L275.711 8.90154ZM285.983 3.33594V2.33594H284.983V3.33594H285.983ZM295.522 3.33594H296.522V2.33594H295.522V3.33594ZM295.522 20.8672H294.522V21.8672H295.522V20.8672ZM295.78 20.8672V21.8672H296.415L296.685 21.2925L295.78 20.8672ZM299.421 16.3877L300.025 17.1851L300.032 17.1799L299.421 16.3877ZM312.957 16.6133L312.418 17.4556L312.427 17.4618L312.957 16.6133ZM318.113 22.7041L317.207 23.1282L317.209 23.1309L318.113 22.7041ZM318.145 42.2979L319.053 42.716L319.055 42.7133L318.145 42.2979ZM313.053 48.4854L313.598 49.3238L313.604 49.32L313.053 48.4854ZM299.421 48.8076L298.823 49.6089L298.829 49.6134L298.835 49.6177L299.421 48.8076ZM295.78 44.3926L296.685 43.9679L296.415 43.3926H295.78V44.3926ZM295.393 44.3926V43.3926H294.393V44.3926H295.393ZM295.393 50V51H296.393V50H295.393ZM285.983 50H284.983V51H285.983V50ZM296.199 38.0117L295.259 38.3545L295.261 38.3586L296.199 38.0117ZM298.745 41.6855L298.126 42.4709L298.135 42.4782L298.745 41.6855ZM308.252 40.1064L307.427 39.5411L307.422 39.5475L308.252 40.1064ZM308.252 24.96L307.428 25.5277L307.433 25.5341L308.252 24.96ZM297.262 24.9277L298.079 25.5044L298.082 25.4999L297.262 24.9277ZM285.983 4.33594H295.522V2.33594H285.983V4.33594ZM294.522 3.33594V20.8672H296.522V3.33594H294.522ZM295.522 21.8672H295.78V19.8672H295.522V21.8672ZM296.685 21.2925C297.453 19.6577 298.563 18.2917 300.025 17.1851L298.818 15.5903C297.101 16.89 295.782 18.5102 294.875 20.4419L296.685 21.2925ZM300.032 17.1799C301.398 16.1273 303.278 15.5508 305.77 15.5508V13.5508C302.977 13.5508 300.624 14.1989 298.811 15.5955L300.032 17.1799ZM305.77 15.5508C308.229 15.5508 310.436 16.1874 312.418 17.4556L313.496 15.771C311.18 14.2892 308.597 13.5508 305.77 13.5508V15.5508ZM312.427 17.4618C314.407 18.6968 316.007 20.5659 317.207 23.1282L319.019 22.28C317.683 19.4283 315.846 17.2368 313.486 15.7648L312.427 17.4618ZM317.209 23.1309C318.397 25.6491 319.014 28.7708 319.014 32.5332H321.014C321.014 28.5612 320.364 25.1302 319.017 22.2773L317.209 23.1309ZM319.014 32.5332C319.014 36.2073 318.409 39.3136 317.235 41.8824L319.055 42.7133C320.374 39.825 321.014 36.4216 321.014 32.5332H319.014ZM317.237 41.8797C316.056 44.4445 314.472 46.3509 312.502 47.6507L313.604 49.32C315.932 47.7839 317.742 45.5653 319.053 42.716L317.237 41.8797ZM312.508 47.6469C310.531 48.9319 308.295 49.5801 305.77 49.5801V51.5801C308.659 51.5801 311.278 50.8318 313.598 49.3238L312.508 47.6469ZM305.77 49.5801C303.32 49.5801 301.426 49.0242 300.008 47.9975L298.835 49.6177C300.682 50.9543 303.021 51.5801 305.77 51.5801V49.5801ZM300.02 48.0063C298.534 46.8969 297.429 45.5523 296.685 43.9679L294.875 44.8173C295.764 46.7133 297.086 48.3121 298.823 49.6089L300.02 48.0063ZM295.78 43.3926H295.393V45.3926H295.78V43.3926ZM294.393 44.3926V50H296.393V44.3926H294.393ZM295.393 49H285.983V51H295.393V49ZM286.983 50V3.33594H284.983V50H286.983ZM294.329 32.4688C294.329 34.6637 294.631 36.6317 295.259 38.3545L297.138 37.669C296.607 36.2121 296.329 34.4847 296.329 32.4688H294.329ZM295.261 38.3586C295.894 40.069 296.84 41.4573 298.126 42.4708L299.364 40.9003C298.415 40.1521 297.664 39.0912 297.137 37.6648L295.261 38.3586ZM298.135 42.4782C299.444 43.4853 300.996 43.9746 302.741 43.9746V41.9746C301.392 41.9746 300.28 41.6046 299.354 40.8929L298.135 42.4782ZM302.741 43.9746C305.445 43.9746 307.598 42.8643 309.081 40.6654L307.422 39.5475C306.327 41.1728 304.807 41.9746 302.741 41.9746V43.9746ZM309.076 40.6718C310.536 38.5418 311.217 35.7773 311.217 32.4688H309.217C309.217 35.5196 308.588 37.8469 307.427 39.5411L309.076 40.6718ZM311.217 32.4688C311.217 29.2015 310.536 26.4756 309.07 24.3859L307.433 25.5341C308.589 27.1826 309.217 29.4625 309.217 32.4688H311.217ZM309.075 24.3922C307.588 22.2367 305.435 21.1562 302.741 21.1562V23.1562C304.816 23.1562 306.337 23.945 307.428 25.5277L309.075 24.3922ZM302.741 21.1562C300.07 21.1562 297.929 22.2246 296.442 24.3556L298.082 25.4999C299.174 23.9355 300.685 23.1562 302.741 23.1562V21.1562ZM296.445 24.3511C294.996 26.4046 294.329 29.1468 294.329 32.4688H296.329C296.329 29.3883 296.951 27.1032 298.079 25.5044L296.445 24.3511ZM335.676 50V51H336.676V50H335.676ZM326.137 50H325.137V51H326.137V50ZM326.137 3.33594V2.33594H325.137V3.33594H326.137ZM335.676 3.33594H336.676V2.33594H335.676V3.33594ZM335.676 49H326.137V51H335.676V49ZM327.137 50V3.33594H325.137V50H327.137ZM326.137 4.33594H335.676V2.33594H326.137V4.33594ZM334.676 3.33594V50H336.676V3.33594H334.676ZM349.727 48.5176L349.234 49.3876L349.237 49.3893L349.727 48.5176ZM343.765 42.2656L342.875 42.7212L342.877 42.7241L343.765 42.2656ZM343.733 23.1875L342.841 22.7347L342.84 22.7375L343.733 23.1875ZM366.968 16.5488L366.494 17.4291L366.503 17.4339L366.968 16.5488ZM372.834 22.5107L371.951 22.9806L371.954 22.9861L372.834 22.5107ZM374.993 34.9824V35.9824H375.993V34.9824H374.993ZM351.081 34.9824V33.9824H350.081V34.9824H351.081ZM352.047 39.5264L351.153 39.9736L351.159 39.9854L352.047 39.5264ZM354.851 42.5234L354.343 43.385L354.352 43.3903L354.362 43.3954L354.851 42.5234ZM363.198 42.6201L363.678 43.4974L363.684 43.4939L363.69 43.4904L363.198 42.6201ZM365.647 40.0098V39.0098H365.001L364.735 39.5987L365.647 40.0098ZM374.735 40.0098L375.714 40.2153L375.967 39.0098H374.735V40.0098ZM366.517 49.3877L366.15 48.4574L366.147 48.4586L366.517 49.3877ZM365.969 28.9883V29.9883H366.969V28.9883H365.969ZM365.035 25.25L364.154 25.7241L364.16 25.7343L364.165 25.7443L365.035 25.25ZM354.883 22.6719L354.398 21.7977L354.391 21.8016L354.883 22.6719ZM352.144 25.3145L351.292 24.7903L351.285 24.8024L352.144 25.3145ZM351.081 28.9883L350.081 28.956L350.048 29.9883H351.081V28.9883ZM358.944 49.709C355.538 49.709 352.641 49.0081 350.217 47.6458L349.237 49.3893C352.012 50.9489 355.26 51.709 358.944 51.709V49.709ZM350.22 47.6476C347.816 46.2852 345.964 44.3466 344.654 41.8072L342.877 42.7241C344.359 45.5987 346.482 47.8281 349.234 49.3876L350.22 47.6476ZM344.655 41.81C343.344 39.2479 342.671 36.2087 342.671 32.6621H340.671C340.671 36.4632 341.393 39.8263 342.875 42.7212L344.655 41.81ZM342.671 32.6621C342.671 29.2034 343.333 26.2041 344.626 23.6375L342.84 22.7375C341.383 25.628 340.671 28.9451 340.671 32.6621H342.671ZM344.625 23.6403C345.938 21.0535 347.784 19.0716 350.17 17.6686L349.156 15.9447C346.428 17.5494 344.321 19.8215 342.841 22.7347L344.625 23.6403ZM350.17 17.6686C352.553 16.2669 355.338 15.5508 358.557 15.5508V13.5508C355.031 13.5508 351.886 14.3386 349.156 15.9447L350.17 17.6686ZM358.557 15.5508C361.548 15.5508 364.185 16.1845 366.494 17.4291L367.443 15.6686C364.81 14.2491 361.84 13.5508 358.557 13.5508V15.5508ZM366.503 17.4339C368.805 18.6442 370.62 20.4803 371.951 22.9806L373.716 22.0409C372.211 19.2131 370.117 17.0745 367.434 15.6637L366.503 17.4339ZM371.954 22.9861C373.296 25.4699 373.993 28.5519 373.993 32.2754H375.993C375.993 28.3075 375.25 24.8797 373.713 22.0354L371.954 22.9861ZM373.993 32.2754V34.9824H375.993V32.2754H373.993ZM374.993 33.9824H351.081V35.9824H374.993V33.9824ZM350.081 34.9824C350.081 36.8461 350.426 38.5198 351.153 39.9736L352.942 39.0792C352.38 37.9549 352.081 36.5992 352.081 34.9824H350.081ZM351.159 39.9854C351.908 41.4349 352.972 42.5765 354.343 43.385L355.359 41.6619C354.325 41.0524 353.519 40.1959 352.936 39.0673L351.159 39.9854ZM354.362 43.3954C355.758 44.1796 357.361 44.5547 359.137 44.5547V42.5547C357.648 42.5547 356.393 42.2423 355.341 41.6515L354.362 43.3954ZM359.137 44.5547C360.839 44.5547 362.364 44.2161 363.678 43.4974L362.718 41.7429C361.754 42.2702 360.573 42.5547 359.137 42.5547V44.5547ZM363.69 43.4904C364.997 42.751 365.969 41.7276 366.559 40.4209L364.735 39.5987C364.337 40.4833 363.676 41.2002 362.705 41.7499L363.69 43.4904ZM365.647 41.0098H374.735V39.0098H365.647V41.0098ZM373.756 39.8042C373.339 41.7915 372.49 43.5155 371.208 44.9945L372.719 46.3043C374.23 44.5607 375.229 42.5249 375.714 40.2153L373.756 39.8042ZM371.208 44.9945C369.93 46.4693 368.254 47.6281 366.15 48.4574L366.884 50.318C369.249 49.3856 371.204 48.0521 372.719 46.3043L371.208 44.9945ZM366.147 48.4586C364.072 49.2846 361.677 49.709 358.944 49.709V51.709C361.883 51.709 364.536 51.2525 366.887 50.3168L366.147 48.4586ZM366.969 28.9883C366.969 27.4376 366.622 26.0179 365.904 24.7557L364.165 25.7443C364.694 26.6735 364.969 27.746 364.969 28.9883H366.969ZM365.915 24.7759C365.225 23.4945 364.243 22.4869 362.983 21.7704L361.995 23.5089C362.926 24.0385 363.641 24.7711 364.154 25.7241L365.915 24.7759ZM362.983 21.7704C361.721 21.0527 360.301 20.7051 358.751 20.7051V22.7051C359.993 22.7051 361.065 22.9806 361.995 23.5089L362.983 21.7704ZM358.751 20.7051C357.175 20.7051 355.717 21.065 354.398 21.7977L355.369 23.546C356.37 22.9897 357.491 22.7051 358.751 22.7051V20.7051ZM354.391 21.8016C353.105 22.5296 352.068 23.5297 351.292 24.7904L352.996 25.8386C353.595 24.8648 354.385 24.1032 355.376 23.5421L354.391 21.8016ZM351.285 24.8024C350.53 26.0687 350.129 27.4591 350.081 28.956L352.08 29.0205C352.118 27.8534 352.426 26.7945 353.003 25.8265L351.285 24.8024ZM351.081 29.9883H365.969V27.9883H351.081V29.9883Z" fill="#5F3300" fill-opacity="0.3" mask="url(#path-1-outside-1_106_454)"/>
</svg>
