<svg xmlns="http://www.w3.org/2000/svg" viewBox="0 0 44.03 70.19"><defs><style>.cls-1{fill:none;stroke:#fff;stroke-miterlimit:10;}.cls-2{fill:#fff;}.cls-3{fill:#422600;}</style></defs><title>Asset 3</title><g id="Layer_2" data-name="Layer 2"><g id="Layer_1-2" data-name="Layer 1"><line class="cls-1" x1="22.19" y1="68.65" x2="22.19" y2="22.06"/><path class="cls-2" d="M22.12,22.56A11,11,0,0,1,16,20.73a23,23,0,0,1-4.73-4.1,41.94,41.94,0,0,1-3.78-4.94,53,53,0,0,1-3.1-5.37,50.66,50.66,0,0,0,3.31,5.23,41.53,41.53,0,0,0,3.93,4.74,22.79,22.79,0,0,0,4.76,3.8,10.15,10.15,0,0,0,5.65,1.48Z"/><path class="cls-2" d="M21.84,22.05a87.94,87.94,0,0,1-4.72-10,35.6,35.6,0,0,1-1.67-5.25,14,14,0,0,1-.37-2.73,4.33,4.33,0,0,1,.67-2.63,4.27,4.27,0,0,0-.54,2.62,14.35,14.35,0,0,0,.48,2.68,35.7,35.7,0,0,0,1.89,5.12,87.09,87.09,0,0,0,5.12,9.64Z"/><polygon class="cls-2" points="21.69 21.18 21.22 0 22.69 21.14 21.69 21.18"/><path class="cls-2" d="M22.11,22.26A89.26,89.26,0,0,0,27,12.64a40.25,40.25,0,0,0,1.78-5.08,16,16,0,0,0,.47-2.65,5.28,5.28,0,0,0-.35-2.64,5.47,5.47,0,0,1,.48,2.65A15.38,15.38,0,0,1,29,7.61a39,39,0,0,1-1.56,5.21A87.18,87.18,0,0,1,23,22.75Z"/><path class="cls-2" d="M22.18,22A72.22,72.22,0,0,0,32.4,16.18a27.28,27.28,0,0,0,4.49-3.8A9.77,9.77,0,0,0,38.58,10,4.09,4.09,0,0,0,39,7.14a4.25,4.25,0,0,1-.27,2.91,10.71,10.71,0,0,1-1.62,2.5,27.9,27.9,0,0,1-4.38,4,72.56,72.56,0,0,1-10.08,6.33Z"/><path class="cls-2" d="M22.22,21.53a44,44,0,0,0,5.94,1.21,31.52,31.52,0,0,0,6.06.27,15.16,15.16,0,0,0,5.86-1.38,7.74,7.74,0,0,0,4-4.43,7.89,7.89,0,0,1-3.83,4.65,15.57,15.57,0,0,1-5.94,1.66,32.72,32.72,0,0,1-6.18,0,42.63,42.63,0,0,1-6.12-1Z"/><path class="cls-2" d="M22.35,22.27a27.62,27.62,0,0,1-5.79,2.36,21.1,21.1,0,0,1-6.17.86,12.83,12.83,0,0,1-6-1.56A12.56,12.56,0,0,1,0,19.68a12.43,12.43,0,0,0,4.53,4A12.43,12.43,0,0,0,10.4,25a20.4,20.4,0,0,0,5.94-1.07,27.56,27.56,0,0,0,5.49-2.51Z"/><ellipse class="cls-3" cx="21.96" cy="64" rx="3.26" ry="6.19"/></g></g></svg>