<svg id="Layer_1" data-name="Layer 1" xmlns="http://www.w3.org/2000/svg" viewBox="0 0 1095.33 961.09"><defs><style>.cls-1,.cls-2{fill:none;stroke:#000;stroke-miterlimit:10;stroke-width:6px;}.cls-2{stroke-dasharray:14.64 14.64;}</style></defs><title>rotate-illustration-1</title><path d="M497.73,379.57c-4.62-1.61-7.72-6.79-11.89-9.17-2.11-1.21-4.61-1.52-6.76-2.72-3.24-1.81-6.32-4.12-9.44-6.13-9.86-6.35-19.93-12.42-30.94-16.52-4.95-1.85-9.83-4.14-14.86-5.75-6.13-2-11.67-4.84-17.57-7.34-11.79-5-24.25-6.7-36.36-10.38-22.5-6.85-45.94-9.59-69.38-10.92-25.7-1.46-51.06-2-76.72.77-13.87,1.48-27.51,3.91-41.2,6.47-7.23,1.36-14.3,3-21.44,4.77-3.68.92-7.35,1.83-11,2.68-2.13.5-4.37.58-5.85,2.36-2.46,2.94,1.76,7.21,4.24,4.24,1.1-1.31,6.89-1.67,8.77-2.13,3.05-.74,6.1-1.51,9.14-2.28,6.23-1.57,12.42-2.81,18.72-4,12.52-2.41,25-4.6,37.72-6a398.89,398.89,0,0,1,73.3-1.18c23.59,1.78,46.88,3.66,69.68,10.29,11.53,3.35,23.37,5.3,34.7,9.48,5.21,1.92,9.95,4.88,15.15,6.76,5.37,1.93,10.72,3.81,16,5.88a192.58,192.58,0,0,1,34.89,18c3.13,2,6.2,4.31,9.45,6.13,2.33,1.31,5.09,1.79,7.29,3.2,4.44,2.86,7.66,7.51,12.78,9.29,3.65,1.28,5.22-4.52,1.6-5.78Z" transform="translate(-9.8 -55.31)"/><path d="M510.65,388.59c-3-3.28-7-4.81-10.46-7.48a3.11,3.11,0,0,0-4.24,0c-1.05,1-1.28,3.25,0,4.24,3.38,2.63,7.57,4.28,10.46,7.48,2.59,2.88,6.82-1.38,4.24-4.24Z" transform="translate(-9.8 -55.31)"/><path d="M675.17,533.9l-.55-.49a2.25,2.25,0,0,0-1-.62,2.82,2.82,0,0,0-2.32,0,2.25,2.25,0,0,0-1,.62l-.47.61a3,3,0,0,0-.41,1.52l.11.79a3,3,0,0,0,.77,1.33l.54.48a2.24,2.24,0,0,0,1,.62,3.1,3.1,0,0,0,3.28-.62l.47-.6a3.12,3.12,0,0,0,.41-1.52l-.11-.79a3,3,0,0,0-.77-1.33Z" transform="translate(-9.8 -55.31)"/><path d="M675.93,534.58l-.54-.48a2.24,2.24,0,0,0-1-.62,3.1,3.1,0,0,0-3.28.62l-.47.6a3.12,3.12,0,0,0-.41,1.52l.11.79a3,3,0,0,0,.77,1.33l.55.48a2.25,2.25,0,0,0,1,.62,2.22,2.22,0,0,0,1.16.26,2.17,2.17,0,0,0,1.15-.26,2.22,2.22,0,0,0,1-.62l.47-.61a3,3,0,0,0,.41-1.51l-.11-.8a2.94,2.94,0,0,0-.77-1.32Z" transform="translate(-9.8 -55.31)"/><path d="M697.09,550.77a201.82,201.82,0,0,1-19.2-14.48c-2.92-2.5-7.18,1.72-4.25,4.24A213.75,213.75,0,0,0,694.06,556c3.21,2.16,6.22-3,3-5.18Z" transform="translate(-9.8 -55.31)"/><path d="M699.2,552.24c-.58-.41-1.15-.82-1.73-1.21a3,3,0,0,0-4.11,1.07,3,3,0,0,0-.3,2.31,3.3,3.3,0,0,0,1.38,1.8c.58.39,1.16.8,1.73,1.21a3,3,0,0,0,4.4-3.39,3.39,3.39,0,0,0-1.37-1.79Z" transform="translate(-9.8 -55.31)"/><path d="M701.35,553.82l-.83-.62a2.14,2.14,0,0,0-1.11-.35,2.23,2.23,0,0,0-1.2,0,2.2,2.2,0,0,0-1,.54,2.15,2.15,0,0,0-.77.84,3,3,0,0,0-.31,2.31l.31.72a2.89,2.89,0,0,0,1.07,1.07l.84.62a2.21,2.21,0,0,0,1.11.36,2.33,2.33,0,0,0,1.2-.06,2.27,2.27,0,0,0,1-.53,2.42,2.42,0,0,0,.77-.85,3,3,0,0,0,.3-2.31l-.3-.71a3,3,0,0,0-1.08-1.08Z" transform="translate(-9.8 -55.31)"/><path d="M705.05,556.56l-1.56-1.15a3,3,0,0,0-4.41,3.39l.31.72a2.89,2.89,0,0,0,1.07,1.07l1.57,1.15a3.05,3.05,0,0,0,2.31.31,3.09,3.09,0,0,0,1.79-1.38,3,3,0,0,0,.3-2.31l-.3-.72a3.1,3.1,0,0,0-1.08-1.08Z" transform="translate(-9.8 -55.31)"/><path d="M707.17,558.05l-.76-.52a2.28,2.28,0,0,0-1.12-.36,2.19,2.19,0,0,0-1.19.06,2.27,2.27,0,0,0-1,.53,2.36,2.36,0,0,0-.78.85l-.3.71a3.1,3.1,0,0,0,0,1.6l.3.71a3.1,3.1,0,0,0,1.08,1.08l.76.52a2.21,2.21,0,0,0,1.11.36,2.33,2.33,0,0,0,1.2-.05,2.39,2.39,0,0,0,1-.54,2.23,2.23,0,0,0,.77-.84l.3-.72a2.87,2.87,0,0,0,0-1.59l-.3-.72a3.07,3.07,0,0,0-1.07-1.08Z" transform="translate(-9.8 -55.31)"/><path d="M1069.34,722.94c-8.87-12.25-17-24.66-28.56-34.73a196.24,196.24,0,0,0-41-27.73c-14.61-7.26-30.11-12.24-45.08-18.44-15.59-6.46-32.55-10.16-48.87-14.23-9.37-2.34-18.69-4.78-28.07-7-4.64-1.09-9.43-1.46-14.06-2.62-4.09-1-8-2.45-12.2-3.24-3.78-.71-5.39,5.08-1.6,5.79,7.32,1.37,14.27,3.69,21.64,4.93,7.9,1.33,15.47,4.11,23.32,5.64a397.12,397.12,0,0,1,48.26,13c7,2.3,13.29,5.51,20.18,7.84,8.5,2.88,17,5.87,25.17,9.55A198.57,198.57,0,0,1,1031,688a135.29,135.29,0,0,1,18.41,17.88c5.5,6.37,9.83,13.39,14.71,20.12,2.24,3.1,7.45.11,5.18-3Z" transform="translate(-9.8 -55.31)"/><path d="M1077.22,736.66a93.66,93.66,0,0,0-7.41-12.94c-2.17-3.17-7.37-.17-5.18,3a93.77,93.77,0,0,1,7.41,13c1.64,3.49,6.82.45,5.18-3Z" transform="translate(-9.8 -55.31)"/><path d="M651.44,930.58c3.09.71,6.15,1.55,9.2,2.42,3.72,1,5.31-4.74,1.6-5.79-3.06-.86-6.11-1.71-9.2-2.42-3.76-.86-5.37,4.92-1.6,5.79Z" transform="translate(-9.8 -55.31)"/><path d="M43.54,722.11c2.17,8.95,8.24,17.5,14.12,24.44a96.23,96.23,0,0,0,21,19c17.38,11.2,37.48,17,57.35,21.92,21.51,5.33,43.3,9.42,65.12,13.26,10.71,1.89,21.42,4,32.18,5.61s21.28,4.54,32,6.21c21.71,3.36,43,8.87,64.54,13.36,8.75,1.83,17.42,4.31,26.11,6.1,10.85,2.24,21.56,5.77,32.16,9,42.49,12.87,85.07,25.73,126.52,41.64,22,8.46,44.71,15.28,66.7,23.85,11.35,4.42,22.88,8.35,34.39,12.3s23.2,8.21,35,11.63c3.72,1.07,5.3-4.71,1.6-5.79-10-2.9-19.73-6.63-29.63-9.81-10.39-3.35-20.71-7-31-10.8-9.62-3.53-18.93-7.59-28.67-10.82-10.84-3.59-21.81-6.94-32.53-10.9-8.84-3.26-17.44-7-26.37-10.1-10.47-3.62-21-7.09-31.5-10.62-9.51-3.19-19-7.28-28.67-9.84-10.41-2.78-20.69-6.46-31-9.54-10.89-3.23-21.76-6.54-32.64-9.83-8.69-2.63-17.64-5.41-26.59-6.7-5.14-.74-10.1-2.52-15.1-3.85-5.38-1.43-10.85-2.39-16.29-3.48-10.84-2.18-21.46-5.18-32.34-7.22q-30.51-5.7-61-11.55c-21.33-4.06-42.8-7.33-64.07-11.71-23.72-4.87-48-10-70-20.25a93.16,93.16,0,0,1-26.32-17.82c-7.85-7.7-16.7-18.35-19.35-29.27-.91-3.75-6.7-2.16-5.78,1.6Z" transform="translate(-9.8 -55.31)"/><path d="M36.64,412.13c3.82,48.12,8.43,96.25,7.91,144.57,0,3.86,6,3.87,6,0,.52-48.32-4.09-96.45-7.91-144.57-.31-3.82-6.31-3.85-6,0Z" transform="translate(-9.8 -55.31)"/><path d="M131.34,335.44c-3.3,3.66-8.19,5.47-12.6,7.46-5.1,2.3-10.28,4.41-15.49,6.45-8.93,3.5-17.91,6.76-26.44,11.18A244.39,244.39,0,0,0,52,375.84C45.87,380,39.71,384.21,36.14,391c-1.8,3.41,3.37,6.45,5.18,3,4.09-7.76,12.52-12.24,19.59-16.94a188,188,0,0,1,23.78-13.75c8.9-4.21,18.29-7.32,27.39-11.07,7.81-3.22,17.7-6.13,23.51-12.55,2.58-2.86-1.65-7.12-4.25-4.25Z" transform="translate(-9.8 -55.31)"/><path d="M158.87,323.8c-5.68.82-10.62,3.57-15.63,6.21q-9.17,4.85-18.25,9.83c-3.36,1.84-.36,7,3,5.14q8.22-4.51,16.5-8.9c5.13-2.72,10.12-5.7,16-6.54,3.77-.53,2.17-6.27-1.59-5.74Z" transform="translate(-9.8 -55.31)"/><path d="M38.38,388.65c-2.57,3.79.15,6.06,1.38,9.56.88,2.5-1,4.8-1.75,7.08a22.74,22.74,0,0,0-.88,7.88c.07,3.82,6,3.84,5.95,0a17.7,17.7,0,0,1,1.27-7.71A16.28,16.28,0,0,0,46,400.34a8.78,8.78,0,0,0-.49-3.81c-.47-1.29-2.81-3.61-1.95-4.87,2.15-3.18-3-6.16-5.15-3Z" transform="translate(-9.8 -55.31)"/><path d="M38.66,440.38c-.26,4.69,1,9,2,13.55,1.28,5.5,1.48,11.27,1.84,16.89.67,10.48,2.45,22.6,0,32.88-.89,3.73,4.84,5.32,5.74,1.59,2.48-10.34,1-22,.35-32.55-.31-5.2-.59-10.44-1.28-15.6-.76-5.65-3-11-2.7-16.76.21-3.83-5.74-3.82-6,0Z" transform="translate(-9.8 -55.31)"/><path d="M44.51,554.81a195.41,195.41,0,0,0-4.41,38.48,314.88,314.88,0,0,1-3,39c-3.28,24.8-6.86,50.83,1.38,75.06,1.24,3.63,7,2.07,5.78-1.6-8.05-23.68-4.37-49.21-1.16-73.46a297.46,297.46,0,0,0,3-37.11,194.18,194.18,0,0,1,4.2-38.82c.79-3.77-5-5.38-5.78-1.59Z" transform="translate(-9.8 -55.31)"/><path d="M38.36,707.09c.76,3.81,1.23,7.82,2.69,11.44,1,2.5,2.34,5.66,5.14,6.46,3.69,1,5.27-4.69,1.58-5.74.45.12-.7-1.74-.84-2a19.87,19.87,0,0,1-1.29-4c-.58-2.55-1-5.15-1.54-7.72-.74-3.75-6.48-2.16-5.74,1.59Z" transform="translate(-9.8 -55.31)"/><path d="M1067.72,720.45c-1.18-1.41-2.41-2.79-3.7-4.11a3,3,0,0,0-4.25,4.24c1.3,1.32,2.53,2.7,3.71,4.11a3,3,0,0,0,4.24,0,3.08,3.08,0,0,0,0-4.24Z" transform="translate(-9.8 -55.31)"/><path d="M1081.89,753.44A81.49,81.49,0,0,0,1070.33,724c-2.11-3.21-7.31-.21-5.18,3a77,77,0,0,1,10.95,28c.74,3.79,6.53,2.19,5.79-1.59Z" transform="translate(-9.8 -55.31)"/><path d="M1082.57,757.26c-.19-1.13-.38-2.27-.6-3.4a3,3,0,0,0-3.69-2.09,3.07,3.07,0,0,0-2.09,3.69c.21,1.13.41,2.26.59,3.4a3,3,0,0,0,3.69,2.09,3.08,3.08,0,0,0,2.1-3.69Z" transform="translate(-9.8 -55.31)"/><path d="M675.33,934.41c34.51,1.88,69.11,2.24,103.66,3.09a322.34,322.34,0,0,0,51.32-2.44c16.68-2.25,33.26-5.14,49.77-8.44,61.65-12.34,127.93-27.8,175.91-71.31,5.88-5.33,12.25-11.17,16.37-18,4.25-7.08,5.77-15.46,7.05-23.49,2.86-18,5.59-36.12,3.44-54.38-.44-3.79-6.45-3.83-6,0,1.86,15.81.21,31.73-2.37,47.37-1.23,7.41-2.09,15-4.72,22-2.8,7.54-8.63,13.29-14.31,18.79-21.87,21.18-50.28,36.3-78.47,47.26-29.25,11.37-60.29,18.07-90.93,24.43-15.9,3.3-31.86,6.26-47.92,8.65a336.45,336.45,0,0,1-50.33,3.65c-37.41-.05-75.1-1.15-112.47-3.18-3.85-.21-3.84,5.79,0,6Z" transform="translate(-9.8 -55.31)"/><path d="M652.78,931.46q3.91.81,7.89,1.39a3.1,3.1,0,0,0,3.69-2.09c.39-1.42-.48-3.45-2.1-3.69-2.64-.4-5.27-.86-7.89-1.4-3.77-.78-5.38,5-1.59,5.79Z" transform="translate(-9.8 -55.31)"/><path d="M641.09,928.32q3.57,1.18,7.21,2.11c3.75,1,5.34-4.84,1.6-5.79q-3.64-.93-7.21-2.1c-3.68-1.22-5.25,4.57-1.6,5.78Z" transform="translate(-9.8 -55.31)"/><path d="M662,932.65c4.07-.58,8.53.93,12.51,1.73,3.74.76,5.34-5,1.58-5.74-5.19-1-10.35-2.49-15.67-1.73-3.78.54-2.17,6.28,1.58,5.74Z" transform="translate(-9.8 -55.31)"/><path d="M849.17,619.27c3.1.83,6.21,1.61,9.33,2.36,3.75.89,5.36-4.89,1.6-5.79-3.12-.74-6.23-1.53-9.33-2.35-3.74-1-5.33,4.79-1.6,5.78Z" transform="translate(-9.8 -55.31)"/><path d="M839.05,616.41l.72.21a2.2,2.2,0,0,0,1.19,0,2.14,2.14,0,0,0,1.12-.35,2.31,2.31,0,0,0,.84-.77,2.2,2.2,0,0,0,.54-1l.11-.8a3.12,3.12,0,0,0-.41-1.52l-.47-.6a3,3,0,0,0-1.33-.78l-.72-.21a3.45,3.45,0,0,0-2.31.3,2.31,2.31,0,0,0-.84.77,2.27,2.27,0,0,0-.54,1l-.1.79a2.92,2.92,0,0,0,.41,1.52l.46.6a3,3,0,0,0,1.33.78Z" transform="translate(-9.8 -55.31)"/><path d="M836.17,615.53l1.15.35a3.06,3.06,0,0,0,2.31-.3,3,3,0,0,0,1.08-4.1,3.17,3.17,0,0,0-1.79-1.38l-1.15-.36a3.1,3.1,0,0,0-2.31.31,3,3,0,0,0-1.08,4.1,3.21,3.21,0,0,0,1.79,1.38Z" transform="translate(-9.8 -55.31)"/><path d="M833.3,614.63l1.72.54a3,3,0,0,0,3.69-2.09,3.06,3.06,0,0,0-2.09-3.69l-1.72-.55a3,3,0,0,0-3.69,2.1,3.07,3.07,0,0,0,2.09,3.69Z" transform="translate(-9.8 -55.31)"/><path d="M831.16,613.94l1.57.51a3.06,3.06,0,0,0,2.31-.31,3,3,0,0,0,1.38-1.79,3.06,3.06,0,0,0-2.09-3.69l-1.58-.51a3,3,0,0,0-1.59,5.79Z" transform="translate(-9.8 -55.31)"/><path d="M734,565.27c30.2,19.9,61.94,37.29,96.46,48.43,3.69,1.19,5.26-4.6,1.6-5.78-34-11-65.27-28.22-95-47.83-3.23-2.13-6.24,3.07-3,5.18Z" transform="translate(-9.8 -55.31)"/><path d="M559,431.11c23.45,19.26,46,39.58,69.45,58.83,22.65,18.59,46.43,35.63,70.7,52,3.21,2.17,6.21-3,3-5.18-24.38-16.48-48.26-33.59-71-52.31-22.93-18.89-45-38.76-68-57.61-3-2.43-7.23,1.79-4.24,4.24Z" transform="translate(-9.8 -55.31)"/><path d="M497.31,386.88c15.81,9.35,30.54,20,45.18,31.09,3.08,2.33,6.07-2.88,3-5.18-14.64-11.07-29.38-21.74-45.19-31.09-3.33-2-6.35,3.21-3,5.18Z" transform="translate(-9.8 -55.31)"/><path d="M490.56,383c1.2.67,2.39,1.36,3.59,2.05a3,3,0,1,0,3-5.18c-1.19-.69-2.39-1.38-3.58-2.05a3,3,0,1,0-3,5.18Z" transform="translate(-9.8 -55.31)"/><path d="M839.15,616.38q5.29,1.65,10.65,3.09c3.71,1,5.29-4.74,1.59-5.74s-7.12-2-10.65-3.09-5.24,4.6-1.59,5.74Z" transform="translate(-9.8 -55.31)"/><path d="M34.7,674.1C18.29,716.32.49,764.71,15.4,810c12.51,38,46.41,64,82.65,77.77,45.66,17.36,96.07,18.37,144,24.67q75.93,10,150.74,26.85,74.08,16.66,146.46,39.93c24,7.71,48,15.76,72.56,21.82a519.18,519.18,0,0,0,73.67,12.46c50,4.91,100.42,3.21,150.31-2,47.1-5,95.53-11,140.86-25.24,40.17-12.58,77.82-33.68,103.2-68,11.51-15.59,20.1-33.67,23.58-52.82,4-22,.51-44.11-6.32-65.23-3.72-11.52-8.31-22.75-12.9-34-1.43-3.5-7.19-2-5.74,1.58,9.11,22.21,18.58,45.08,20.48,69.27a109.93,109.93,0,0,1-11.82,58c-18.9,37.55-53.93,63.33-92.35,78.5-42.6,16.82-89.15,23.3-134.33,29.07-48.12,6.16-96.75,9.42-145.25,7.09-49.2-2.37-96.78-11.66-143.71-26.4C525.16,968.73,479,954.15,431.83,942.4q-71.16-17.71-143.68-29.25-35.83-5.7-71.9-9.87c-23.88-2.77-47.89-4.81-71.56-9.15C104.09,886.68,62.11,871,36.3,837c-28.91-38.1-21.89-86.27-7.79-128.75,3.64-11,7.74-21.79,11.93-32.56,1.38-3.58-4.37-5.12-5.74-1.59Z" transform="translate(-9.8 -55.31)"/><path d="M556.93,602.78c4.54,11.8,8.31,23.86,12.27,35.86,2,6.06,3.86,12.2,6.11,18.17,1.89,5,4.65,9.71,6.39,14.73,3.5,10.08,9.56,19.37,14.5,28.81,5.74,11,11.51,21.93,17.49,32.77,5.68,10.32,11,20.75,16.8,31,5.42,9.61,10.62,19.29,17.79,27.74a97.24,97.24,0,0,0,23.42,19.8,160.87,160.87,0,0,0,14,8.14c2.66,1.3,5.38,2.47,8.07,3.7,3.09,1.41,5.67,1.84,8.85,2.9,4.89,1.63,9.91,3.42,14.75,5.21.66.24,5.45,1.69,3.28.85a43.62,43.62,0,0,0,7.32,2.09,251.9,251.9,0,0,0,36,5c25.57,1.46,51.2,1,76.79,1.84s51.45,2.35,77.19,1.56c6-.18,11.63-1.29,17.54-2.14,6.12-.88,12.29-1.41,18.39-2.4,11.62-1.88,23.06-4.79,34.51-7.42,12.55-2.89,24.44-5.85,36.32-10.82,9.65-4,19-9.83,24.34-19.18a100.9,100.9,0,0,0,8-17.54c2.09-6.23,3.18-12.83,5.08-19.13a182.42,182.42,0,0,0,5.14-20.18c1.31-7.24,1.16-14.56,1.17-21.89,0-3.86-6-3.87-6,0,0,5.73.21,11.53-.48,17.23-.81,6.66-2.72,13.24-4.55,19.68-3.22,11.37-5.56,23-10.88,33.65-4.62,9.25-11.46,16.83-21.26,20.71a212.47,212.47,0,0,1-29.73,9.71c-10.85,2.59-21.69,5.09-32.62,7.33-11.41,2.34-23,3.41-34.43,5.31-12.08,2-24.72,1.41-36.93,1.2-12.05-.21-24.09-.7-36.14-1.16-24.65-.93-49.32-.87-74-1.62q-8.75-.25-17.47-.74c-6.47-.37-12.72-1.44-19.12-2.11-10.09-1-19.48-3.75-29-6.58-20.41-6.05-41.21-15.3-56.76-30.28-7.95-7.66-13.34-16.4-18.88-25.78s-10.5-18.68-15.55-28.17c-6.09-11.45-12.45-22.76-18.52-34.23-5.85-11-12.59-22.07-17.47-33.57-4.63-10.87-9-21.77-12.76-33.07-4.27-12.9-8.28-25.88-13.16-38.57-1.38-3.56-7.18-2-5.79,1.6Z" transform="translate(-9.8 -55.31)"/><path d="M493.8,475.91c5.51,7.91,10,16.52,14.58,25,5,9.31,10.64,18.3,15.63,27.63,4.62,8.62,8.67,17.63,12.91,26.44,4.55,9.49,8.92,19.21,12.88,28.95,1.44,3.53,7.24,2,5.79-1.59C548,563.66,539.43,545,530.07,527.15c-4.91-9.37-10.51-18.36-15.61-27.63-4.94-9-9.61-18.21-15.48-26.64-2.19-3.15-7.39-.15-5.18,3Z" transform="translate(-9.8 -55.31)"/><path d="M489.77,469.69c.66.95,1.31,1.91,1.94,2.89a3,3,0,0,0,5.18-3c-.63-1-1.28-1.94-1.94-2.89a3,3,0,0,0-5.18,3Z" transform="translate(-9.8 -55.31)"/><path d="M487.7,394.88c-5,9.28-10.28,18.83-12.09,29.35-1.77,10.32,1,20.18,5.08,29.58,1.54,3.53,6.71.48,5.18-3-4-9.13-6.16-18.56-3.74-28.41,2.14-8.73,6.49-16.63,10.75-24.47,1.84-3.4-3.34-6.43-5.18-3Z" transform="translate(-9.8 -55.31)"/><path d="M517.23,424.66c-6.67-7.69-12.58-15.12-15.15-25.16-1-3.74-6.75-2.16-5.79,1.59,2.83,11,9.37,19.36,16.69,27.82,2.54,2.92,6.77-1.34,4.25-4.25Z" transform="translate(-9.8 -55.31)"/><path d="M533,440.4c-1.05-.88-2.1-1.77-3.13-2.67a3,3,0,0,0-4.25,4.25l3.14,2.66a3.07,3.07,0,0,0,4.24,0c1-1.11,1.29-3.17,0-4.24Z" transform="translate(-9.8 -55.31)"/><path d="M612.47,497.08c-4.54-4.18-10.54-7.14-15.69-10.53s-9.44-8-15-11.11a130.43,130.43,0,0,1-17.28-12.08c-5.54-4.46-11.65-8.22-17.54-12.2-3.2-2.17-6.21,3-3,5.18,5.91,4,12.55,7.65,17.84,12.47a96.19,96.19,0,0,0,15.42,10.95c2.91,1.73,5.78,3.2,8.22,5.58a43.23,43.23,0,0,0,6.13,5c5.37,3.6,11.91,6.66,16.66,11,2.84,2.61,7.09-1.62,4.24-4.25Z" transform="translate(-9.8 -55.31)"/><path d="M720.24,572c-13.8-9.72-27.53-19.33-41.27-29.09-13.92-9.9-28.55-18.68-42.21-29-3.09-2.32-6.08,2.89-3,5.18,13.67,10.3,28.29,19.07,42.21,29,13.73,9.76,27.47,19.38,41.28,29.09,3.16,2.23,6.16-3,3-5.18Z" transform="translate(-9.8 -55.31)"/><path d="M1022.5,765.48c4.83-10.79,6.91-24,8-35.69,1-11.32-.23-21.89-8.35-30.37-7.91-8.27-19.33-12.4-29.63-16.75-12.25-5.18-24.73-9.81-37.07-14.69-24.59-9.73-49.83-17.72-75.11-25.5-22.78-7-46-12-69.08-18.19a169.08,169.08,0,0,1-20.77-6.55c-6.88-2.83-12.66-6.69-19-10.42-5.64-3.31-10.87-7.63-16.28-11.37q-9.36-6.48-18.85-12.79c-3.22-2.15-6.23,3.05-3,5.18,19.39,12.94,37.65,28.59,59.69,36.79,11.8,4.38,24.38,6.94,36.55,10.1,9.74,2.52,19.37,4.75,29.1,7.29,23.83,6.22,47.41,13.75,70.56,22.29,23.4,8.63,47,16.92,69.8,27.18,12.7,5.72,25.2,13,25.79,28.45a93.23,93.23,0,0,1-2.16,21.51c-1.31,6.78-2.46,14.17-5.29,20.5-1.57,3.5,3.6,6.55,5.18,3Z" transform="translate(-9.8 -55.31)"/><path d="M1018.83,773a55.85,55.85,0,0,0,2.94-5.77,3.09,3.09,0,0,0-1.07-4.1c-1.28-.75-3.45-.41-4.11,1.08a56.88,56.88,0,0,1-2.94,5.77c-1.95,3.34,3.23,6.36,5.18,3Z" transform="translate(-9.8 -55.31)"/><path d="M581.46,579.23c4.95,11.86,10.6,23.47,15.65,35.31,5.37,12.57,11.35,24.92,17.46,37.15,5.95,11.9,12.78,23.13,19.35,34.65,5.72,10,12.15,19.54,18,29.44a282.57,282.57,0,0,0,19.63,28.91c7.87,10.17,15.07,20.62,24.93,29,19.22,16.41,43,23.22,67.64,26.25,30.8,3.77,62,.73,92.74,4.55,3.82.48,3.79-5.53,0-6-49.77-6.18-108.3,6.68-151.44-25.3-10.14-7.52-17.63-17.06-25.19-27s-15.58-19.83-21.72-30.7c-10.91-19.32-23.54-37.8-34-57.49-6.82-12.86-13.23-26.07-19.15-39.37-3.11-7-5.87-14.08-8.83-21.11-2.85-6.75-6.5-13.14-9.32-19.9-1.46-3.51-7.27-2-5.79,1.6Z" transform="translate(-9.8 -55.31)"/><path d="M523.74,441.81c2.58,9.23,7.36,18.14,11.12,26.95q6.46,15.12,12.89,30.25,12.87,30.33,25.42,60.81c1.45,3.53,7.26,2,5.79-1.59q-12.08-29.43-24.53-58.7Q548.2,484.85,542,470.19c-4.17-9.78-9.56-19.74-12.43-30-1-3.71-6.83-2.13-5.78,1.6Z" transform="translate(-9.8 -55.31)"/><path d="M486.72,401.28c14.3,1.37,23.47,14.41,30,25.85,1.91,3.35,7.1.33,5.18-3-7.73-13.6-18.45-27.22-35.15-28.82-3.84-.37-3.82,5.63,0,6Z" transform="translate(-9.8 -55.31)"/><path d="M1017.1,773.2c1.75-2.11,3.38-4.31,4.95-6.55a3,3,0,0,0-5.18-3c-1.28,1.83-2.59,3.63-4,5.34a3.09,3.09,0,0,0,0,4.24,3,3,0,0,0,4.24,0Z" transform="translate(-9.8 -55.31)"/><path d="M855.06,802.59c14.27-2.5,29.42-.08,43.85-.86,7.32-.39,14.21-2.12,21.43-3.21,7.43-1.12,14.95-1.42,22.4-2.43,13.22-1.79,26.33-3.69,39.39-6.54,10.87-2.37,23-4.47,31.34-12.43,2.79-2.67-1.45-6.91-4.25-4.24-8.23,7.87-22,9.47-32.71,11.76a361.24,361.24,0,0,1-40.86,6.16c-13.88,1.32-27.58,4.8-41.51,5.1-13.41.3-27.4-1.42-40.68.91-3.79.66-2.18,6.45,1.6,5.78Z" transform="translate(-9.8 -55.31)"/><path d="M1014,768.34a19.09,19.09,0,0,0-4.52,3.47,3,3,0,0,0,4.21,4.21c.27-.28.55-.56.84-.82l.39-.34c.09-.08.56-.45.11-.11a17,17,0,0,1,2-1.27,3,3,0,0,0,1.07-4.07,3,3,0,0,0-4.07-1.07Z" transform="translate(-9.8 -55.31)"/><path d="M520.42,450.31c5.17-4.75,13.86-8.39,16.34-15.39,2-5.8-1.34-12.19-7.63-12.58-3.86-.24-3.85,5.76,0,6,5,.31,1,6.48-.22,7.71a35.21,35.21,0,0,1-4.62,3.43,78.85,78.85,0,0,0-8.12,6.58c-2.85,2.62,1.4,6.85,4.25,4.25Z" transform="translate(-9.8 -55.31)"/><path d="M512.66,425c-13.75,6.88-23.64,18.69-35.16,28.46a150,150,0,0,0-29.76,34c-3.45,5.5-5.77,11.8-4.56,18.38.8,4.35,4.49,12.5,10.05,12.38,2.21,0,3.32-1.7,4.35-3.36,2-3.18,3.81-6.44,5.88-9.56,4.35-6.6,9.41-12.65,15.85-17.3,3.1-2.24.11-7.45-3-5.18a64.86,64.86,0,0,0-13.43,13c-1.94,2.5-3.74,5.09-5.45,7.74-1.34,2.08-3.59,8-5.69,9h3c-11.31-5.25-4-19.31,1-26.3a183.64,183.64,0,0,1,17.94-21.15c6.31-6.5,13.25-12.5,20-18.57s13.76-12.27,22-16.39c3.46-1.72.42-6.9-3-5.18Z" transform="translate(-9.8 -55.31)"/><path d="M529.2,420.46A41.45,41.45,0,0,0,517,423.07c-3.58,1.35-2,7.15,1.6,5.79a36.12,36.12,0,0,1,10.64-2.4c3.84-.23,3.87-6.23,0-6Z" transform="translate(-9.8 -55.31)"/><path d="M504.18,604.32c-5.12,10.74,6.13,19,16.08,18.13,6.94-.63,13.83-3.7,20.26-6.21a114.28,114.28,0,0,0,19.39-9.36c22.31-13.94,36.5-37.07,48.66-59.72,2.67-5,8.18-11.94,6.52-17.91-.93-3.37-3.69-6.32-5.65-9.14l-7.84-11.24c-1.39-2-4.78-1.94-5.44.71A117,117,0,0,1,563.82,566a257.64,257.64,0,0,1-26.41,22c-9,6.6-18.79,12-30,13.67-3.78.57-2.17,6.31,1.58,5.74,11.36-1.74,21.51-7.13,30.74-13.79A263.22,263.22,0,0,0,568,570.16a122.63,122.63,0,0,0,33.88-59l-5.44.71,6.27,9c1.83,2.63,4.88,5.74,6,8.71,1.47,3.77-1.75,7.83-3.46,11.07q-2.24,4.22-4.53,8.41c-6.37,11.57-13.25,23-21.81,33.09a93.67,93.67,0,0,1-30.65,24.3A165.53,165.53,0,0,1,527,614.81c-3.64,1.18-7.56,2.33-11.39,1.54s-8.4-4.64-6.31-9c1.65-3.44-3.48-6.46-5.14-3Z" transform="translate(-9.8 -55.31)"/><path d="M552.9,386l1.36,1.23q2.24.91.9,2.84a7.88,7.88,0,0,1-1.31,3.07c-.85,1.5-2,2.86-3,4.28-2.44,3.5-4.72,7.1-6.87,10.79-3.86,6.58-7.31,13.4-10.63,20.27-4.18,8.62-13.76,25.41-.83,31.68C544.64,466,551.8,451,556.4,443c3.33-5.81,7.51-10.75,9.62-17.22,2.48-7.57,4.27-15.44,6.34-23.13,1.73-6.43,2.67-12.5-2.23-17.8s-12.22-6.44-19.07-7.33c-3.79-.5-3.75,5.46,0,5.95,4.08.53,8.58,1.07,12.14,3.31,4.92,3.11,5.24,7.16,3.92,12.44-2,7.83-4,15.71-6.36,23.43s-7.63,13.65-11.29,20.72c-1.69,3.25-3.28,6.94-6.13,9.37-3.4,2.9-8.9,3.91-10.86-1.09-1.67-4.29.68-8.85,2.46-12.71s3.67-7.73,5.57-11.55a230.81,230.81,0,0,1,12-21.62c3.36-5.3,10-11.66,9-18.53-.77-4.87-5.25-8.33-10.1-7-3.68,1-2.12,6.79,1.58,5.74Z" transform="translate(-9.8 -55.31)"/><path d="M551.14,398.32c-11.89-6.15-3.65-24.64-15.21-30.34-6.32-3.11-20.08-2.46-19.35,7.17.41,5.36,4.11,11.35,6.84,15.82a129.51,129.51,0,0,0,11.52,15.56c2.37,2.84,6,9.32,10.45,8.76,4.63-.58,7-7.45,7.83-11.27s-4.88-5.32-5.74-1.58c-.28,1.19-1.21,5.92-2.55,6.18-.81.15-2.4-2.32-3-3.06-3-3.46-5.91-6.94-8.62-10.61-2.32-3.16-14.06-18.66-9.56-22.05,2-1.54,9.22-.26,10.77,1.2,2.71,2.55,2.57,8.91,3.2,12.38,1.26,6.92,3.87,13.58,10.44,17,3.4,1.76,6.41-3.37,3-5.14Z" transform="translate(-9.8 -55.31)"/><path d="M556.11,379.11c4.74-17.22-18.55-25.92-32-25.06a33.61,33.61,0,0,0-11.29,3c-3.23,1.4-8.86,3.39-11.06,6.33s-.19,5.35,2.07,7.43c4.17,3.85,8.49,7.56,12.73,11.34a3,3,0,0,0,4.21,0c2.23-2.22,2.65-5.1,4.43-7.5,3.76-5.06,9.4,0,11.7,3.86,2.43,4.05,3.12,8.88,4.24,13.4.85,3.42,1.74,8.1,4.53,10.55,5.66,5,10.67-2,12.26-6.91,2.17-6.7,3.11-13.68-1.53-19.49-2.39-3-6.58,1.24-4.21,4.21,2.67,3.35,1.67,7.86.63,11.64-.43,1.58-.83,5-2.64,5.31q-1.79,1.23-1.82-1.77c-.39-1.12-.74-2.25-1-3.4-1.83-6.65-2.67-13.59-7.09-19.16-3.23-4.06-8.46-7.4-13.88-6.3-6.25,1.27-6,7.58-9.79,11.35h4.21l-7.07-6.3-3.54-3.15c-.24-.21-3.49-2.92-3.51-1.52,0-.79,6.66-3.64,7.61-4.08a29,29,0,0,1,9.85-2.88c9.14-.68,29.76,4.79,26.25,17.52-1,3.7,4.72,5.28,5.74,1.59Z" transform="translate(-9.8 -55.31)"/><path d="M440.55,297.65c13.44,19.93,23.73,42.45,40.94,59.53a188.8,188.8,0,0,0,27,22c8.16,5.54,22.65,12.64,20.37,24.7-.71,3.77,5.07,5.39,5.79,1.59,1.93-10.21-4-17.88-11.84-23.74-10.19-7.68-21-14.19-30.62-22.68a128.66,128.66,0,0,1-25.14-30.08c-7-11.54-13.8-23.11-21.35-34.31-2.14-3.18-7.34-.18-5.18,3Z" transform="translate(-9.8 -55.31)"/><path d="M414.55,273.18c12.51-.95,19.6,15.05,25.55,23.81,2.16,3.17,7.36.17,5.18-3-7.27-10.7-15.37-27.95-30.73-26.78-3.83.29-3.86,6.29,0,6Z" transform="translate(-9.8 -55.31)"/><path d="M516.64,383.31a62.16,62.16,0,0,0,17.71,27c2.43,2.17,6.65-.63,4.72-3.63-5.68-8.82-13.78-15.49-22.81-20.68-9.88-5.67-22-8.92-30.49-16.74-2.83-2.62-7.08,1.62-4.24,4.24,7.6,7,17.71,10.37,26.78,15,10,5.13,19.41,11.6,25.57,21.19l4.72-3.64a55.94,55.94,0,0,1-16.17-24.35c-1.22-3.65-7-2.09-5.79,1.59Z" transform="translate(-9.8 -55.31)"/><path d="M411.87,267.34c-1-.45-2-.88-3-1.28a3,3,0,0,0-2.31.3,3,3,0,0,0-1.08,4.1,3.5,3.5,0,0,0,1.8,1.38l.82.34-.72-.3,1.46.64a3.28,3.28,0,0,0,2.32.3,3.05,3.05,0,0,0,1.79-1.38,3,3,0,0,0,.3-2.31,2.93,2.93,0,0,0-1.38-1.79Z" transform="translate(-9.8 -55.31)"/><path d="M408.69,266.25c-23.2,16.69-3.89,48.79,8.25,65.83,8.08,11.34,19.63,18.06,31.3,25.22,6.32,3.88,12.63,7.74,19.13,11.29,5.68,3.11,10.86,7,16.48,10.26,2.11,1.23,5.35-.84,4.4-3.38l-.15-.41a3.13,3.13,0,0,0-3.69-2.1l-.23,0c-2.28.34-2.82,3.58-1.33,5l.39.37c2,2,4.81.37,5.12-2.12a9.89,9.89,0,0,0-.18-3.75c-.5-2.94-5.14-2.77-5.78,0a7.3,7.3,0,0,0,.07,4.55c1,3.49,5.5,2.39,5.89-.8a6.1,6.1,0,0,0,.08-2.13c-.15-3.29-5-4.19-5.89-.8a7.37,7.37,0,0,0-.08,3.73c.62,3.43,5.8,2.47,5.89-.8a26.2,26.2,0,0,0-.5-5.66c-.71-3.79-6.49-2.19-5.78,1.59a12.68,12.68,0,0,1,.28,4.07l5.89-.79.08-.54-5.89-.8a6.1,6.1,0,0,1-.08,2.13l5.89-.79-.07-1.36H482.4l0,2.15,5.12-2.12-.38-.37-1.33,5,.24,0-3.69-2.1.15.41,4.4-3.39c-9.81-5.7-19.43-11.76-29.17-17.63-10.55-6.35-22.51-12.35-31.05-21.37s-15-21.84-20.11-33.25c-4.27-9.64-4.13-23.29,5.18-30,3.11-2.23.11-7.44-3-5.18Z" transform="translate(-9.8 -55.31)"/><path d="M444.52,346.72c-20.27,1.49-39.67-6.08-59.66-8-20.6-2-41.3.12-61.79,2.23-20.87,2.16-41.81,4-62.64,6.55-19.85,2.44-39.17,8.42-58.44,13.64-7.08,1.92-10.41,6.42-11.14,13.78-.61,6,2.12,12.21,8.66,13.23,3.26.51,6.49-.48,9.47-1.7,5.11-2.1,10.08-4.51,15.26-6.46,9.43-3.56,19.1-6.46,28.79-9.21,19.78-5.62,39.63-11.54,60.35-11.9,20.92-.37,41.56,3.61,62,7.51,22.33,4.25,44.69,8.4,67,12.78,18.51,3.64,38.11,8.38,51.13,23,2.55,2.87,6.75-1.35,4.21-4.21-10.09-11.36-24.17-17.39-38.61-21.18-17.55-4.62-35.68-7.31-53.49-10.71-36.55-7-74.63-17.31-112-11.45-18.56,2.92-36.95,8.57-54.87,14.12a247.54,247.54,0,0,0-26.41,9.68c-3.5,1.54-9.89,5.73-13.71,3.16-3.31-2.23-2.12-9.53,0-12.26,2.42-3.14,9.63-3.72,13.24-4.68l14.71-3.91c9.25-2.46,18.47-5,27.95-6.51,19.79-3.06,40-4.4,59.88-6.46,21.78-2.25,43.73-5,65.66-3.52,21.65,1.47,42.6,10,64.47,8.43,3.8-.28,3.83-6.23,0-5.95Z" transform="translate(-9.8 -55.31)"/><path d="M631.42,534.4c9.92,9.93,16.26,22.13,23.87,33.75,6.7,10.21,14.6,19.79,24.16,27.46,9.34,7.48,20.73,14.39,33.07,14.41,11.54,0,21.94-6.61,25.25-17.92,1.65-5.62,1.84-12,2.1-17.76A75.71,75.71,0,0,0,738,552.69c-3-12-10.19-22.26-18.8-31-9.08-9.15-19.91-16.81-30.75-23.72-12.54-8-24.77-16.75-37.68-24.1-14.36-8.17-28.14-17.57-42.3-26.11-13.89-8.37-28.11-16.12-41.93-24.61-3.3-2-6.32,3.16-3,5.18,22.32,13.72,45.26,26.36,67.51,40.24,21.68,13.53,43.38,27.09,64.47,41.49,10.35,7.06,20.36,15.27,27.76,25.49,7.64,10.54,10.72,22.3,10.68,35.22,0,12.34-.55,28.13-14.69,32.28-12.75,3.73-25.93-4.05-35.58-11.74-10-8-18.14-18.11-24.94-28.92-7.09-11.29-13.59-22.77-23.09-32.29-2.73-2.73-7,1.51-4.24,4.25Z" transform="translate(-9.8 -55.31)"/><path d="M551.94,447.31c16.81,9.69,31.77,21.56,43.7,37,6.26,8.07,11.13,16.84,16.18,25.68a102.19,102.19,0,0,0,18.53,23.36c2.78,2.69,7-1.55,4.24-4.24a104.74,104.74,0,0,1-19.29-25.18,182.6,182.6,0,0,0-16.66-25.45c-12.06-15.06-27-26.74-43.67-36.33-3.35-1.93-6.38,3.25-3,5.18Z" transform="translate(-9.8 -55.31)"/><path d="M703.44,541.6c-19.83-25.66-49-40.82-77.23-55.35-3.43-1.76-6.47,3.41-3,5.18,27.85,14.32,56.47,29.13,76,54.41,2.35,3.06,6.57-1.22,4.24-4.24Z" transform="translate(-9.8 -55.31)"/><path d="M620.07,491.58A99.7,99.7,0,0,1,633.7,518c2.8,8.4,4.23,17.23,7.72,25.4,6.74,15.77,22.79,25.18,36.66,34,7.49,4.75,15.22,10,23.43,13.4,5.79,2.41,13.06,2.55,16.84-3.32,4.1-6.36,1.71-15-.84-21.39a101.54,101.54,0,0,0-13.2-23.33c-2.29-3.06-7.5-.07-5.18,3,4,5.33,25.8,39.51,10,40.7-6.68.51-15.22-6.45-20.64-9.71q-10.14-6.09-19.89-12.85c-5.86-4-11.75-8.35-16.28-13.89-5.14-6.28-7.4-13.91-9.43-21.62-3.78-14.39-8.95-27.66-17.65-39.85-2.22-3.12-7.43-.12-5.18,3Z" transform="translate(-9.8 -55.31)"/><path d="M824.09,760.07a384.8,384.8,0,0,0,47.41,30.67c14.87,8,32.16,15.61,49.43,12.43,4.51-.83,8.5-2.88,12.79-4.4,3.88-1.36,8-1,11.87-2.29,4.79-1.61,7.13-7,2-9.83-7.46-4-17.39-4.61-25.51-6.73a180.61,180.61,0,0,1-27.56-9.61c-17.3-7.67-33.58-17.43-49.56-27.54-16.19-10.25-32.84-20.29-47.41-32.81-14.18-12.18-25.74-27-39.09-40-13.56-13.22-29-24.25-43.61-36.24a205.09,205.09,0,0,1-42.24-46.86c-12.11-18.45-23.78-37.2-35.65-55.8-2.08-3.24-7.27-.24-5.19,3q15.06,23.6,30.1,47.2c9.32,14.6,18.93,28.92,31.29,41.15,12.74,12.6,27.25,23.2,41.19,34.4s26.4,23.85,38.56,37.08A231.58,231.58,0,0,0,811,727.78c14.87,10.36,30.33,20.09,45.87,29.4,15,9,30.63,17.33,47.1,23.41A201.26,201.26,0,0,0,930.1,788c3.9.87,7.85,1.63,11.66,2.86a13.7,13.7,0,0,0,2.42.86c2.42.26-1.13-.6-1.81-.65a26.15,26.15,0,0,0-5.53.69c-5,.8-9.24,3.38-14,4.79a38.7,38.7,0,0,1-15,1c-10.33-1.1-20.21-5.32-29.37-10-18.09-9.24-35.07-20.62-51.34-32.73-3.1-2.3-6.09,2.9-3,5.18Z" transform="translate(-9.8 -55.31)"/><path d="M813.51,752q5,3.91,10.07,7.72c1.3,1,3.36.21,4.11-1.07a3.08,3.08,0,0,0-1.08-4.11q-4.46-3.35-8.86-6.78a3.1,3.1,0,0,0-4.24,0c-1,1-1.29,3.24,0,4.24Z" transform="translate(-9.8 -55.31)"/><path d="M587.89,489.71c13.86,35.89,38.38,64.51,63.29,93.09,2.55,2.92,6.78-1.34,4.25-4.24-24.19-27.74-48.3-55.6-61.76-90.44-1.37-3.57-7.18-2-5.78,1.59Z" transform="translate(-9.8 -55.31)"/><path d="M476.88,480.32q-1.49,2.35-2.82,4.8a3,3,0,0,0,5.18,3c.89-1.63,1.84-3.23,2.83-4.8a3,3,0,0,0-1.08-4.1,3.07,3.07,0,0,0-4.11,1.07Z" transform="translate(-9.8 -55.31)"/><path d="M522.29,441.24c-17.13,9.95-33.23,20.8-44.4,37.53-2.14,3.22,3.05,6.22,5.19,3,10.56-15.82,26.05-26,42.24-35.37,3.33-1.93.32-7.12-3-5.18Z" transform="translate(-9.8 -55.31)"/><path d="M491.62,471.47a12.86,12.86,0,0,0,3.53,7.07c2.65,2.78,6.86-1.44,4.21-4.21a7.5,7.5,0,0,1-2-4.45c-.22-1.59-2.26-2.46-3.67-2.08-1.72.48-2.29,2.07-2.07,3.67Z" transform="translate(-9.8 -55.31)"/><path d="M462.4,344.86c-8.51-13.6-16.35-28.08-25.94-41a69.91,69.91,0,0,0-14.59-14.2c-3.71-2.77-11.15-9.88-16.21-6.42-4.72,3.23-.84,9.84.94,13.48,3.55,7.29,7.61,14.32,11.81,21.25,3.74,6.17,7.19,13.09,12.57,18a184.94,184.94,0,0,1,16.21,16.2c2.49,2.93,6.69-1.3,4.21-4.21a112.6,112.6,0,0,0-11.56-12.26,58.92,58.92,0,0,1-12.37-14.38c-3.28-5.31-6.54-10.63-9.61-16.07q-2.53-4.47-4.87-9.05c-.8-1.57-3.94-6.79-2.73-7.27.87-.33,6.26,4.14,7.21,4.82a74.62,74.62,0,0,1,7.44,6.07,68.63,68.63,0,0,1,11,13.87c7.16,11.34,14.22,22.74,21.33,34.11,2,3.24,7.18.25,5.14-3Z" transform="translate(-9.8 -55.31)"/><path d="M457.27,348.17c1.72,2,2.53,4.88,4,7.09a48.6,48.6,0,0,0,4.2,5.19c3.54,3.86,7.56,7.27,10.74,11.45,2.3,3,7.47.05,5.14-3-3.2-4.21-7-7.76-10.65-11.58-3.91-4.09-5.72-9.17-9.26-13.36-2.48-2.93-6.67,1.3-4.21,4.21Z" transform="translate(-9.8 -55.31)"/><path d="M447.13,351.55l1.05,2.46a3,3,0,0,0,1.78,1.37,3.1,3.1,0,0,0,2.29-.3,3,3,0,0,0,1.37-1.78,3.52,3.52,0,0,0-.3-2.3l-1.05-2.46a3,3,0,0,0-1.78-1.37,3.1,3.1,0,0,0-2.29.3,3,3,0,0,0-1.37,1.78,3.52,3.52,0,0,0,.3,2.3Z" transform="translate(-9.8 -55.31)"/><path d="M642.29,572.72c18.82,30.93,43.24,58.74,66.24,86.59,11.25,13.62,22.85,27,35.54,39.28s26.61,23,40.71,33.58c8.33,6.25,16.67,12.47,24.69,19.1,6.53,5.39,12.76,11.48,21.27,13.4,3.74.84,5.33-4.9,1.59-5.74-8-1.81-13.88-8-20.06-13s-12.84-10.12-19.37-15c-14.16-10.64-28.39-21.18-41.32-33.34-25.33-23.81-46.51-51.76-68.29-78.73C670.55,603,658,587.07,647.43,569.71c-2-3.26-7.14-.28-5.14,3Z" transform="translate(-9.8 -55.31)"/><path d="M830.79,613c6.29-.38,12,1.89,18.35.67,6.05-1.16,11.93-3.54,17.76-5.46,12.19-4,25.05-7.29,36.72-12.69,10.26-4.74,17.79-13.71,25-22.13s13.7-17.82,16.23-28.92l-5.44.71c8.54,15.25,14,34.19,15.63,51.61a43,43,0,0,1-18.82,40.05c-3.17,2.11-.2,7.27,3,5.14,13.78-9.2,22.49-25,22-41.65-.29-9.73-2.85-19.58-5.31-29a123.22,123.22,0,0,0-11.36-29.2c-1.22-2.18-4.87-1.8-5.44.71-2.43,10.67-8.68,19.45-15.79,27.55S909,587,898.69,591.21c-10.8,4.46-22.28,7.59-33.38,11.25-5.3,1.75-10.61,3.85-16.06,5.1-6.41,1.47-12.11-.9-18.46-.51-3.8.23-3.83,6.19,0,6Z" transform="translate(-9.8 -55.31)"/><path d="M549.92,340c-7.39-6.63-14.28-13.64-19-22.47-1.82-3.41-7-.38-5.18,3,4.94,9.26,12.18,16.73,19.93,23.69,2.86,2.57,7.12-1.66,4.24-4.24Z" transform="translate(-9.8 -55.31)"/><path d="M722.6,422.1c-28-2.48-56.94-8.53-81.68-22.25-11.47-6.37-21.95-14.3-32.65-21.8-11.92-8.35-24.62-15.37-37.12-22.83-3.33-2-6.35,3.2-3,5.18,12.76,7.61,25.73,14.76,37.86,23.36,11.34,8,22.57,16.38,34.91,22.89,25,13.17,53.74,19,81.71,21.45,3.84.34,3.82-5.67,0-6Z" transform="translate(-9.8 -55.31)"/><path d="M944.89,544.34c-3.11-8.53-3.66-18.27-4.85-27.21a164.38,164.38,0,0,0-4.69-24.69c-4.08-14-11.87-26.64-24.9-33.81-13.47-7.42-30-9.83-44.77-13.56q-26.74-6.75-53.9-11.6c-20.23-3.58-40.61-6.46-61.06-8.41-3.84-.37-3.82,5.64,0,6A746.58,746.58,0,0,1,853,448.11c16.16,3.86,33,7.14,48.52,13.21,13.52,5.3,22.34,15.55,27,29.28,3,8.88,4.44,18.18,5.67,27.43s1.76,19.16,4.94,27.9c1.31,3.6,7.11,2.05,5.79-1.59Z" transform="translate(-9.8 -55.31)"/><path d="M371.54,234.81c-4.91-2.14-10.53-2.69-15.78-3.74-6.47-1.29-12.94-2.55-19.45-3.63-12.14-2-24.16-2.76-36.39-3.66-3.85-.28-3.83,5.72,0,6,11.7.86,23.19,1.51,34.79,3.44,5.57.93,11.12,2,16.66,3.08s12.07,1.48,17.14,3.69c3.5,1.52,6.56-3.64,3-5.18Z" transform="translate(-9.8 -55.31)"/><path d="M493.87,279.12c-4.49-5.7-7.88-12.63-11.31-19-2.72-5-6.28-8.65-12.1-9.71-3.78-.69-5.4,5.09-1.6,5.78,6.87,1.26,8.74,7.59,11.79,13a109.45,109.45,0,0,0,9,14.15c2.39,3,6.61-1.24,4.24-4.25Z" transform="translate(-9.8 -55.31)"/><path d="M530.5,318.2a201.16,201.16,0,0,1-25.73-24.9c-2.51-2.94-6.74,1.32-4.24,4.24a201.16,201.16,0,0,0,25.73,24.9c3,2.43,7.23-1.79,4.24-4.24Z" transform="translate(-9.8 -55.31)"/><path d="M302.81,223.28c-45.09-1.71-89.77-2-134.44,5.37q-17,2.81-33.68,6.78c-9.69,2.31-19.82,4.42-29.06,8.23-7.49,3.09-14.06,8.42-15.91,16.66a21.54,21.54,0,0,0,5.5,19.52c11.29,11.94,32.53,12.44,47.68,13.73,21.79,1.86,42.6-.77,63.81-5.72,21.84-5.09,43.08-10,65.64-10.22s45.06,1.88,67.52-.27c13-1.24,25.75-3.75,38.66-5.35a298,298,0,0,1,33.8-1.82c22.05-.22,44.48-.48,64.75-10.27,3.45-1.67.44-6.8-3-5.14-17.36,8.39-36.76,9.16-55.69,9.4a403.72,403.72,0,0,0-57.07,4.35c-21.4,3.28-42.27,4.08-63.89,3.51-20.06-.53-40-.78-59.86,2.81-20,3.63-39.49,10-59.71,12.46a184.64,184.64,0,0,1-59.76-3c-7-1.48-14.84-3.85-19.5-9.62-6.45-8-3.14-18.64,5.24-23.59,7.9-4.66,18.07-6.38,26.87-8.58q14.82-3.71,29.84-6.49c47.21-8.74,94.47-8.62,142.26-6.81,3.83.15,3.83-5.81,0-5.95Z" transform="translate(-9.8 -55.31)"/><path d="M89.78,270.22c1.61,6.91,3.45,13.61,6.66,20s6.23,12.3,7.54,19.38c2.58,14,0,28.4-2.47,42.18-.68,3.74,5,5.35,5.74,1.58,2.54-13.95,5-28.26,2.94-42.45a59.5,59.5,0,0,0-6.11-19,98.44,98.44,0,0,1-8.56-23.28c-.87-3.73-6.61-2.15-5.74,1.58Z" transform="translate(-9.8 -55.31)"/><path d="M521.56,245.7c3.57,2.74,4.35,7.73,4,12-.45,5.26-3.41,7-7.23,10A34.07,34.07,0,0,0,506.88,285a3,3,0,0,0,2.07,3.66c5.52,1.14,12.05-1.24,17.47-2.26,5.13-1,9.92-2.12,13.85-5.77a30.91,30.91,0,0,0,9.1-31.1c-2.87-10.18-13.64-14.4-23.41-13.73-3.75.25-9,.68-10.62,4.73-1.47,3.64,1.08,6.93,4.69,7.26,3.82.35,3.79-5.6,0-5.95,6.78.62,14-1.47,19.83,3.51,5.53,4.7,6.18,14.86,3.06,21-2.91,5.69-6.25,11.25-12.7,13.19a77.55,77.55,0,0,1-8.16,1.65c-3.35.63-8.17,2.43-11.52,1.74l2.08,3.66a28.25,28.25,0,0,1,8.46-13.51c3.67-3.21,7.67-5,9.39-9.87,2.76-7.87.78-17.51-5.91-22.63-3-2.33-6,2.84-3,5.14Z" transform="translate(-9.8 -55.31)"/><path d="M519.66,269.84c-1.49-4.79-2.86-9.62-4-14.49q-.89-3.66-1.64-7.34c-.58-2.81-1.9-4.48,1.88-3.45,4.95,1.34,6.37,4.86,8.58,9.06,2.52,4.79-1.86,11.81-6.86,13.53-3.61,1.23-2.06,7,1.58,5.74,5.67-1.94,11.89-8.81,12.42-14.95.34-3.86-1.87-6.76-3.52-10-1.74-3.44-3.07-5.79-6.64-7.56-3.88-1.92-13.92-4.46-14.35,2.49-.26,4.11,1.65,9.18,2.59,13.16,1.23,5.19,2.67,10.32,4.26,15.41,1.14,3.65,6.88,2.09,5.74-1.58Z" transform="translate(-9.8 -55.31)"/><path d="M496.23,279.48a69.48,69.48,0,0,0,7.49-11.76c2-4.2,2.73-9.48,7.37-11.55,3.52-1.57.47-6.74-3-5.18-4.28,1.9-6.3,5.57-7.92,9.77a64.22,64.22,0,0,1-9.09,15.69c-2.33,3.08,2.88,6.07,5.18,3Z" transform="translate(-9.8 -55.31)"/><path d="M454.39,309.45c14.8-7.5,29.25-15.91,40.5-28.34,2.59-2.85-1.64-7.11-4.24-4.24-10.93,12.07-24.92,20.12-39.29,27.4-3.45,1.75-.41,6.93,3,5.18Z" transform="translate(-9.8 -55.31)"/><path d="M504.47,298.85a81.84,81.84,0,0,0,7.45-10.19c2-3.3-3.17-6.32-5.18-3a72.83,72.83,0,0,1-6.51,9c-2.48,2.93,1.74,7.19,4.24,4.24Z" transform="translate(-9.8 -55.31)"/><path d="M466.62,328.93c6.87-3.72,13.61-8.91,19.85-13.65a126.4,126.4,0,0,0,17.83-16.22c2.58-2.87-1.65-7.12-4.24-4.25a122.81,122.81,0,0,1-17.95,16.3c-5.85,4.36-12.11,9.17-18.52,12.64-3.4,1.84-.37,7,3,5.18Z" transform="translate(-9.8 -55.31)"/><path d="M532.85,283.45a556.92,556.92,0,0,0,28.08,51c9.53,15.22,20.51,29.33,34.71,40.47,13.85,10.88,29.32,21.91,45.42,29.15A85.84,85.84,0,0,0,688,410.76c15.19-2.08,30.64-8.18,42.13-18.54,12.12-10.94,16.93-29.1,14.83-45-2-14.9-12.8-26.12-24.75-34.24-14.1-9.59-30.38-16.36-46.36-22.16-40.35-14.62-83.15-22.53-124.87-32.22-3.73-.86-5.32,4.88-1.58,5.75,33.93,7.87,68.24,14.86,101.68,24.67a318.32,318.32,0,0,1,47.42,17.61c13.26,6.32,27.57,13.78,36.31,26,9.38,13.12,8.47,33.47.2,47.05-8,13.17-24.6,20.72-39.09,24a80.23,80.23,0,0,1-45.07-2.78c-15.77-5.77-30.22-16.48-43.74-26.24-31.74-22.91-50.25-59.83-67.09-94.2-1.69-3.44-6.82-.43-5.14,3Z" transform="translate(-9.8 -55.31)"/><path d="M694.75,394.32c15.34-3.12,29.43-12.43,34.41-27.87,5.46-16.89-4.4-32.58-16.49-43.73-13-12-29.46-19.25-46.1-24.79-18.31-6.09-37-11.13-55.74-15.81q-32.21-8.06-64.89-13.86c-3.78-.68-5.4,5.11-1.6,5.78a978.62,978.62,0,0,1,99.44,23.18c16.24,4.69,32.83,9.44,47.68,17.69,13.23,7.35,28,19.13,32.41,34.37,5.81,20.35-12.89,35.63-30.72,39.26-3.78.77-2.18,6.55,1.6,5.78Z" transform="translate(-9.8 -55.31)"/><path d="M537.29,282c19.28,26.77,35.22,57.28,62.27,77.21a273.45,273.45,0,0,0,43.23,25.71c14.88,7.15,30.84,11.71,47.47,10.1,3.81-.37,3.84-6.37,0-6-16.51,1.6-32.16-3.11-46.81-10.43A282.47,282.47,0,0,1,602.59,354c-26.09-19.21-41.52-49.23-60.12-75.05-2.23-3.11-7.44-.11-5.18,3Z" transform="translate(-9.8 -55.31)"/><path d="M694.88,389.24c-10.6-9.93-21.44-19.42-33.51-27.64-13-8.82-26.3-17.12-39.13-26.08C594.65,316.23,568.37,295,541.32,275c-3.11-2.3-6.11,2.91-3,5.18,26.55,19.65,52.61,39.94,79.33,59.36,12.48,9.07,25.7,17.2,38.55,25.78,12.47,8.33,23.6,18,34.47,28.17,2.82,2.64,7.07-1.6,4.24-4.25Z" transform="translate(-9.8 -55.31)"/><path d="M731,433.53c-8.71-10.43-15.43-22.41-24.94-32.22-2.69-2.78-6.93,1.46-4.24,4.24,9.49,9.8,16.23,21.8,24.93,32.22,2.48,3,6.71-1.3,4.25-4.24Z" transform="translate(-9.8 -55.31)"/><path d="M718.75,397c7.14,6.86,14,13.95,20.62,21.36s12.48,15.66,19.17,23.09,11.42,16.29,17.07,24.4c5.41,7.78,9.93,15.87,11.72,25.29l.77-2.92c-.66.67-3.29.84-4.37,1.19-1.69.53-3.36,1.12-5,1.74a43.23,43.23,0,0,1-4.94,1.94c-3.4.8-.5,1-2.43-.33-2.44-1.66-4.75-6.6-6.45-9q-3.55-5.06-7-10.21c-8.53-12.69-16.69-25.62-25.53-38.1-2.22-3.13-7.42-.13-5.18,3,9.57,13.51,18.34,27.55,27.65,41.24q3.23,4.76,6.56,9.43c2.14,3,4,6.54,6.35,9.34,3.64,4.42,10.85-1,15.06-2.44,5.82-2,11.48-1.68,9.81-9-1.57-6.87-4.77-13.21-8.38-19.22-7.54-12.55-16.54-24-25.56-35.5A380.15,380.15,0,0,0,723,392.74c-2.78-2.68-7,1.56-4.24,4.24Z" transform="translate(-9.8 -55.31)"/><path d="M541.3,279.14c16.1,6.57,30.83,16.9,45.64,26,14.06,8.65,28.06,17.37,42.15,26,27.92,17,55.81,34,79.77,56.62,2.8,2.66,7-1.58,4.24-4.24-24.32-23-52.64-40.27-81-57.56C617.47,317,603,307.85,588.31,299c-14.87-9-29.32-19-45.42-25.62-3.57-1.46-5.12,4.34-1.59,5.79Z" transform="translate(-9.8 -55.31)"/><path d="M512.68,238.5c-13.53-16.39-27-32.85-40.6-49.16-12.6-15.1-25.95-28.87-41.63-40.78-16.39-12.45-32.65-24.19-46.93-39.13-6.67-7-13.26-14.1-20.68-20.33a217,217,0,0,0-23.62-16.61q-7.37-4.67-14.76-9.31c-3.94-2.48-7.92-5.58-12.36-7.14-7.13-2.5-15.38,1.54-14.2,9.82A3,3,0,0,0,300,67.94c33.56,13.09,59.39,39,84.94,63.46,12.95,12.38,26.15,24.47,40.61,35.08,7.84,5.77,15.82,11.32,23,17.89a263.65,263.65,0,0,1,19.35,20.06Q489.77,229,509.69,255.2c2.29,3,7.47.05,5.14-3Q497,228.83,477.77,206.64c-12.53-14.38-25.39-27.87-40.82-39.18a449.84,449.84,0,0,1-44.52-37.13c-13.51-12.84-26.73-26-41.16-37.85-15.12-12.4-31.43-23.15-49.7-30.29l2.07,2.08c-.92-6.48,9.62-1.08,11.58.13,4.18,2.58,8.31,5.23,12.46,7.85,7.45,4.7,15,9.3,22.18,14.37C364.53,97,375.73,110.7,388.59,123c12.38,11.88,26.73,21.34,40.3,31.77,14.43,11.1,26.74,24.12,38.4,38,13.83,16.54,27.46,33.24,41.18,49.86,2.44,3,6.63-1.27,4.21-4.21Z" transform="translate(-9.8 -55.31)"/><path d="M494.81,234.55c-5.43,1.56-13.88,8.46-11.09,15.09,1.18,2.81,4.13,3.3,6.85,3.51a43.2,43.2,0,0,1,17.61,4.77c3.39,1.79,6.4-3.34,3-5.14a46.5,46.5,0,0,0-15.64-5.17c-1.38-.18-2.76-.28-4.15-.38a16.17,16.17,0,0,1-2.19-.18l.33-.6c-.43-2.82,5-5.61,6.85-6.16,3.68-1,2.12-6.8-1.58-5.74Z" transform="translate(-9.8 -55.31)"/><path d="M483.59,252c5.7,5.61,8,16,17.83,15.54,3.81-.18,3.84-6.14,0-5.95s-6-2.85-7.81-5.7-3.39-5.72-5.81-8.1c-2.73-2.68-6.95,1.52-4.21,4.21Z" transform="translate(-9.8 -55.31)"/><path d="M484.33,243.44c-2.7-.24-5.45-.66-8.16-.71-2.17,0-4.23.86-4.9,3.08-.55,1.84.21,3.7,1,5.33,1.32,2.72,2.72,5.39,4.08,8.09,1.73,3.42,6.86.41,5.14-3L479.35,252c-.33-.67-1.6-4.24-2.2-4.42-.09-.41-.26-.25-.52.48-.75.66-.6.9.45.73a8.5,8.5,0,0,0,2.26.2l5,.43c3.81.34,3.79-5.62,0-5.95Z" transform="translate(-9.8 -55.31)"/><path d="M359.69,268.09c-6.74-3.67-14.88-7.91-17.19-15.86-2.13-7.35,2.74-14.42,8.69-18.3,6.36-4.15,14.11-5.6,21.43-7.13,7.59-1.59,15.22-3.05,22.91-4.12,24.22-3.36,70.81-5.75,76.88,26.59.71,3.76,6.45,2.17,5.74-1.58-3-16.07-17.34-25.94-32.33-29.77-18.74-4.78-38.75-3.18-57.63-.1-9.71,1.58-19.73,3.2-29.13,6.13-7.47,2.33-14.58,6.11-19.09,12.7-4.1,6-5.21,13.44-2.1,20.1,3.69,7.94,11.43,12.46,18.81,16.48,3.37,1.83,6.37-3.31,3-5.14Z" transform="translate(-9.8 -55.31)"/><path d="M472,252.77a9.46,9.46,0,0,0-2-9.12,3,3,0,0,0-4.24,4.25,3.37,3.37,0,0,1,.45,3.28c-1,3.73,4.77,5.32,5.78,1.59Z" transform="translate(-9.8 -55.31)"/><path d="M469,245.86c-12.21-17.74-33.24-24.94-54.06-25.55A71.54,71.54,0,0,0,383.77,226c-7.74,3.32-16.7,6.79-20.23,15.09-.74,1.73-.27,3.87,1.79,4.41,9.52,2.5,19.2,2.86,29,3.7a96.53,96.53,0,0,1,28.6,6.87c8.35,3.42,16.2,6.18,25.33,6.47,7.29.24,16.6.43,21.69-5.77,2.43-3-1.79-7.23-4.25-4.24-5.07,6.17-18.44,4.58-25.43,3.2-8-1.58-15.08-5.54-22.72-8.13-16.43-5.57-34-3.52-50.58-7.88l1.79,4.4c3-7,10.73-9.77,17.27-12.6a66.07,66.07,0,0,1,29-5.17c18.54.54,37.93,6.67,48.88,22.57,2.18,3.16,7.38.17,5.18-3Z" transform="translate(-9.8 -55.31)"/><path class="cls-1" d="M46.36,515.13s.56,2.66,1.92,7.25" transform="translate(-9.8 -55.31)"/><path class="cls-2" d="M53,536.23c14.84,38.68,58.51,117.38,169,121.11,38.9,8.87,104.69,10.89,112.68,151.87" transform="translate(-9.8 -55.31)"/><path class="cls-1" d="M335,816.54c.1,2.46.19,5,.25,7.5" transform="translate(-9.8 -55.31)"/><path d="M928.92,500.77c2.91,17.39-14.48,28.47-29.09,31.7-17.68,3.91-36.88,3.51-54.91,4.17q-27.85,1-55.73.82-13.94-.11-27.87-.53-7-.2-13.93-.49c-3.66-.15-12.24,1-14.77-2.06s-6.61,1.27-4.2,4.21c3.92,4.81,12.47,3.53,18,3.76q12.93.54,25.87.82,25.88.55,51.76,0,25.38-.51,50.72-2.05c14.38-.88,29.87-1.45,42.65-8.92,11.58-6.76,19.54-19.43,17.26-33-.63-3.77-6.37-2.17-5.74,1.59Z" transform="translate(-9.8 -55.31)"/><path d="M488,285.26a177,177,0,0,1-10-23.94c-1.2-3.65-7-2.08-5.79,1.6a188.1,188.1,0,0,0,10.58,25.37c1.73,3.45,6.91.42,5.18-3Z" transform="translate(-9.8 -55.31)"/><path d="M548.76,352.89c-19.66-13.93-38.22-31.45-51.32-51.8-2.08-3.24-7.28-.23-5.18,3,13.69,21.26,32.93,39.39,53.47,54,3.15,2.23,6.16-3,3-5.19Z" transform="translate(-9.8 -55.31)"/><path d="M727.4,429.14c-7.12-.74-14.42-3.27-21.39-4.91s-13.69-3.27-20.49-5.09c-14.4-3.86-28.69-8.27-42.38-14.19-25.71-11.12-51.18-23.32-74.69-38.63-3.24-2.11-6.25,3.08-3,5.18C589.8,387.37,616.31,400,643,411.39a305.6,305.6,0,0,0,41.83,13.79c7.42,1.95,14.87,3.75,22.33,5.49,6.62,1.54,13.44,3.77,20.2,4.47,3.83.4,3.81-5.6,0-6Z" transform="translate(-9.8 -55.31)"/><path d="M711.92,524.52c12.35,5.62,26.29,6.74,39.67,7.84,14.32,1.17,28.71,1.47,43.08,1.85,27.67.73,55.67.69,83.09-3.64,11.85-1.87,26.34-4.37,36.07-11.89,8.72-6.73,12-17.52,6-27.32-6.4-10.5-18.74-14.53-29.58-18.71-12.64-4.88-25.54-9.06-38.54-12.86-14.92-4.36-30-8.35-45-12.19q-11.51-2.94-23.07-5.6-5.45-1.26-10.9-2.44c-4-.87-8.79-1.2-12.53-3-3.46-1.67-6.51,3.5-3,5.18,4.86,2.35,10.57,2.87,15.8,4q9.45,2.07,18.86,4.34c12,2.89,23.91,6.05,35.83,9.23,24.48,6.56,49.06,13.59,72.35,23.72,10.61,4.63,23.66,16.64,13.07,28.26-7.77,8.52-22.54,10.93-33.38,12.88-24.62,4.45-50.24,4.76-75.19,4.26-15.08-.3-30.2-.57-45.26-1.53-14.61-.93-30.8-1.41-44.33-7.57-3.49-1.58-6.54,3.59-3,5.18Z" transform="translate(-9.8 -55.31)"/><path d="M564.1,368.14a43.15,43.15,0,0,1-7.5,8.58c-2.8,2.67,1.44,6.91,4.24,4.24a49,49,0,0,0,8.44-9.79c2-3.32-3.19-6.34-5.18-3Z" transform="translate(-9.8 -55.31)"/><path d="M564.67,367.1c-.12.23-.25.46-.38.69a2.27,2.27,0,0,0-.35,1.12,2.33,2.33,0,0,0,0,1.2,2.2,2.2,0,0,0,.54,1,2.31,2.31,0,0,0,.84.77l.72.3a3.06,3.06,0,0,0,1.59,0l.72-.3a3,3,0,0,0,1.07-1.08c.13-.23.26-.46.38-.7a2.2,2.2,0,0,0,.35-1.11,2.33,2.33,0,0,0-.05-1.2,2.2,2.2,0,0,0-.54-1,2.31,2.31,0,0,0-.84-.77l-.72-.3a2.87,2.87,0,0,0-1.59,0l-.72.3a3,3,0,0,0-1.07,1.08Z" transform="translate(-9.8 -55.31)"/><path d="M566.47,359.28c-.17,2.54-.29,5.22-1.63,7.46-2,3.33,3.21,6.35,5.18,3s2.21-6.88,2.45-10.49c.25-3.86-5.75-3.84-6,0Z" transform="translate(-9.8 -55.31)"/><path d="M547.57,362.91c.92-5.32,1.68-10.67,2.1-16.05.25-3.19.39-6.38.4-9.58,0-3-1.19-8.31,3.23-8.46,4.61-.16,9.41,6.65,11,10.26,2.53,5.73,2.46,12,2.28,18.14-.11,3.86,5.89,3.85,6,0,.23-8,0-16.3-4.19-23.33-3-5-8.25-10.24-14.26-11.06-6.32-.86-10.25,2.52-10.18,8.66a162,162,0,0,1-2.17,29.82c-.65,3.78,5.13,5.4,5.79,1.6Z" transform="translate(-9.8 -55.31)"/><path d="M37,393.72c-1.37,13.85,14,17.35,24.43,19.16,14.35,2.5,28.81,4.43,43.3,5.91,30.07,3.07,60.31,4.14,90.53,4.33,60,.39,120.06-2.68,180.08-.62,34,1.16,68,4.05,101.58,10.1,3.75.68,5.36-5.05,1.59-5.74-113.84-20.55-229.64-4.45-344.34-11.62-15.85-1-31.68-2.43-47.43-4.49q-12.84-1.67-25.61-3.94C53.8,405.5,42,403.65,43,393.72c.38-3.81-5.58-3.79-6,0Z" transform="translate(-9.8 -55.31)"/><path d="M407.51,343.39q-20-5-40.29-9.11c-13.28-2.66-26.7-5.43-40.24-6.34-13.37-.9-26.11,1.49-39.25,3.47-14.06,2.12-28.22,1.93-42.4,1.85-46.56-.26-93.76,5.79-136.7,24.65a218.84,218.84,0,0,0-31.21,16.76c-6.16,4-19.27,10.28-17.46,19.49,1.62,8.19,12.37,9.82,19.12,10.3,13.9,1,27.82,1.74,41.73,2.43,56.35,2.82,112.76,3.89,169.16,4.7,62.63.91,126-.55,188.09,9.21,3.75.59,5.36-5.14,1.58-5.74-51.53-8.11-103.79-8.23-155.82-8.95-53.09-.73-106.19-1.42-159.25-3.31-26.53-.94-53-2.19-79.53-3.9-5.24-.33-11.22,0-16-2.63-7.27-3.95.5-9,4.52-11.82a212.61,212.61,0,0,1,28.36-16.87c40.37-20,86.09-27.56,130.82-28.31,14.06-.24,28.15.47,42.19-.49,14.83-1,29.32-5.15,44.21-5.16,14.71,0,29.29,3,43.66,5.84s28.83,6.09,43.12,9.67c3.71.93,5.3-4.81,1.58-5.74Z" transform="translate(-9.8 -55.31)"/><path d="M342.13,235.78c-31.37-7-63.74.69-95.46-3.26-32.58-4.06-65.22-1.44-97.17,6A231.77,231.77,0,0,0,126,245.32c-5,1.73-10.71,3.6-13.93,8.09-8.44,11.75,8.78,18,17.3,19.45,15.38,2.54,31.49,1.1,47,.78,17-.34,34-.79,51-1.65,37.9-1.92,75.58-6.57,113.27-10.77,3.77-.42,3.81-6.38,0-6-30.54,3.4-61.07,7.18-91.73,9.43-30,2.21-60.12,2.8-90.2,3.31-6.8.12-13.62.34-20.41-.1-6-.38-16.58-.78-21-5.77-5.63-6.36,8-10.34,12.06-11.69,7.13-2.41,14.39-4.44,21.72-6.15,29.51-6.92,60.57-10.21,90.74-6.44a284.15,284.15,0,0,0,49.32,1.55c16.53-.78,33.14-1.53,49.41,2.11,3.73.83,5.33-4.91,1.58-5.74Z" transform="translate(-9.8 -55.31)"/></svg>