<svg xmlns="http://www.w3.org/2000/svg" xmlns:xlink="http://www.w3.org/1999/xlink" viewBox="0 0 393.76 63.15"><defs><style>.cls-1{fill:none;}.cls-2{opacity:0.15;}.cls-3{clip-path:url(#clip-path);}.cls-4{fill:#13211e;}.cls-5{fill:#aeaeae;}</style><clipPath id="clip-path"><path class="cls-1" d="M-78.24-2155.89V-2160H-93.93v-7.1h13.79v-4.15H-93.93v-6.53h15.47v-4.14H-98.79v26.06Zm-47.42.46a14.46,14.46,0,0,0,8.06-2,6.83,6.83,0,0,0,3-6.13,5.74,5.74,0,0,0-1.43-4,9.17,9.17,0,0,0-3.42-2.36,47,47,0,0,0-5.14-1.63c-1.45-.38-2.59-.72-3.44-1a6.41,6.41,0,0,1-2.11-1.14,2.17,2.17,0,0,1-.84-1.73,2.35,2.35,0,0,1,1.46-2.13,9,9,0,0,1,4-.76,7.14,7.14,0,0,1,3.93.94,2.88,2.88,0,0,1,1.47,2.56v.42h4.79v-.46a6.37,6.37,0,0,0-2.84-5.68,13,13,0,0,0-7.31-1.88,13.83,13.83,0,0,0-7.56,1.84,6,6,0,0,0-2.89,5.34,5.89,5.89,0,0,0,1.37,4.05,8.74,8.74,0,0,0,3.28,2.32,43,43,0,0,0,5,1.61c1.57.43,2.79.81,3.65,1.12a6.38,6.38,0,0,1,2.16,1.28,2.58,2.58,0,0,1,.88,2,2.71,2.71,0,0,1-1.48,2.43,9.08,9.08,0,0,1-4.53.88,8.13,8.13,0,0,1-4.48-1.07,3.34,3.34,0,0,1-1.63-3l0-.69h-4.9l0,.8a6.81,6.81,0,0,0,1.49,4.47,8.78,8.78,0,0,0,4,2.68A16.35,16.35,0,0,0-125.66-2155.43Zm-26.07-.46V-2160h-15.69v-7.1h13.79v-4.15h-13.79v-6.53H-152v-4.14h-20.33v26.06Zm-36.74,0V-2160h-15.7v-7.1h13.8v-4.15h-13.8v-6.53h15.47v-4.14H-209v26.06Zm-54.53,0v-11.24h12.31v11.24h4.86v-26.06h-4.86v10.64H-243v-10.64h-4.87v26.06Zm-32.11.46a12.93,12.93,0,0,0,8.34-2.55c2.11-1.69,3.17-4.18,3.17-7.44h-4.79a5.44,5.44,0,0,1-1.78,4.35,7.27,7.27,0,0,1-4.87,1.54c-2.63,0-4.58-.74-5.83-2.23s-1.88-3.74-1.88-6.78v-.76c0-3,.63-5.27,1.9-6.76s3.2-2.25,5.81-2.25a6.81,6.81,0,0,1,4.69,1.56,5.57,5.57,0,0,1,1.77,4.41h5a9.88,9.88,0,0,0-1.5-5.57,9.19,9.19,0,0,0-4.09-3.38,14.71,14.71,0,0,0-5.92-1.12q-6.09,0-9.35,3.36t-3.27,10.13q0,6.89,3.23,10.18T-275.11-2155.43Zm-26.79-.46v-4.21h-13.84v-21.85h-4.86v26.06Zm-41.88-9.76h-8.85l2.66-7.15,1.29-3.8.38-1.17h.19c.05.12.11.28.17.47l.21.63a39.49,39.49,0,0,0,1.29,3.87Zm-12.46,9.76,2.09-5.66h11.93l2.13,5.66h5.24L-345-2181.95h-6.11l-10.15,26.06Zm-23.53,0v-10.6l10-15.46h-5.36l-6.84,11.09h-.19l-7-11.09h-5.58l10.07,15.46v10.6Zm-41.3-3.64a7.83,7.83,0,0,1-6.06-2.26q-2.07-2.27-2.07-6.71v-.8c0-3,.69-5.21,2.09-6.73a7.77,7.77,0,0,1,6-2.28A7.85,7.85,0,0,1-415-2176c1.39,1.52,2.09,3.77,2.09,6.73v.8q0,4.44-2.07,6.71A7.89,7.89,0,0,1-421.07-2159.53Zm0,4.1q6.27,0,9.71-3.38t3.44-10.11q0-6.72-3.44-10.11t-9.71-3.38q-6.27,0-9.69,3.38t-3.42,10.11q0,6.72,3.42,10.11T-421.07-2155.43Zm-37.55-14.63h-8.51v-7.75h8.51a4.11,4.11,0,0,1,3,1,3.68,3.68,0,0,1,1,2.77,4,4,0,0,1-1.06,2.93A4,4,0,0,1-458.62-2170.06Zm-8.51,14.17V-2166h8.1l4.94,10.07h5.32l-5.59-10.83a7,7,0,0,0,3.46-2.79,8.43,8.43,0,0,0,1.18-4.54,7.74,7.74,0,0,0-2.15-5.81c-1.43-1.4-3.55-2.09-6.37-2.09H-472v26.06Z"/></clipPath></defs><g id="Calque_1" data-name="Calque 1"><path class="cls-4" d="M22.07,19a8.92,8.92,0,0,0,1.26-4.82A8.23,8.23,0,0,0,21,8C19.5,6.55,17.24,5.8,14.31,5.8H.09v27h6v-10h7l4.89,10h6.62L19,21.77A7.33,7.33,0,0,0,22.07,19ZM16.4,16.7a3.32,3.32,0,0,1-2.47.88H6.1V11.1h7.83a3.52,3.52,0,0,1,2.52.81,3,3,0,0,1,.83,2.31A3.32,3.32,0,0,1,16.4,16.7ZM51.1,5.35c-4.28,0-7.65,1.18-10,3.52s-3.57,5.85-3.57,10.43,1.2,8.1,3.57,10.44,5.73,3.52,10,3.52,7.66-1.19,10-3.52,3.59-5.85,3.59-10.44-1.21-8.09-3.59-10.43S55.38,5.35,51.1,5.35Zm7.49,14.37c0,2.76-.64,4.86-1.89,6.23A7.24,7.24,0,0,1,51.1,28,7.18,7.18,0,0,1,45.54,26c-1.25-1.37-1.89-3.47-1.89-6.23v-.79c0-2.77.64-4.87,1.91-6.26a7.18,7.18,0,0,1,5.54-2.06,7.21,7.21,0,0,1,5.58,2.06c1.27,1.38,1.91,3.49,1.91,6.26Zm30-3.32L81.92,5.8H75L85.43,21.89V32.81h6V21.89L101.84,5.8H95.1ZM121.15,5.8l-10.51,27h6.26L119,27.2h11l2.11,5.61h6.48L128,5.8Zm-.23,16.14,2.34-6.28,1.19-3.5c.41,1.41.81,2.59,1.18,3.51L128,21.94ZM158.39,5.8h-6v27h19.71V27.43H158.39Zm45.72.71A15.22,15.22,0,0,0,198,5.35c-4.16,0-7.42,1.18-9.69,3.51s-3.4,5.84-3.4,10.44,1.13,8.22,3.37,10.5,5.51,3.46,9.72,3.46a13.43,13.43,0,0,0,8.63-2.66c2.23-1.79,3.36-4.42,3.36-7.84v-.59h-5.93v.59a4.79,4.79,0,0,1-1.56,3.86A6.62,6.62,0,0,1,198.08,28c-2.41,0-4.2-.67-5.32-2S191,22.53,191,19.68v-.75c0-2.83.59-4.95,1.74-6.31s2.91-2,5.3-2A6.25,6.25,0,0,1,202.33,12a4.91,4.91,0,0,1,1.55,3.92v.59H210v-.59a10.41,10.41,0,0,0-1.58-5.85A9.67,9.67,0,0,0,204.11,6.51Zm37.28,9.82h-11V5.8h-6v27h6V21.67h11V32.81h6V5.8h-6Zm27.46,5.34h13.66v-5.3H268.85V11.1h15.31V5.8H262.84v27h21.55v-5.3H268.85Zm36.38,0h13.66v-5.3H305.23V11.1h15.31V5.8H299.22v27h21.55v-5.3H305.23Zm47.09-3.9a45.44,45.44,0,0,0-5.17-1.64c-1.4-.37-2.54-.7-3.36-1a5.7,5.7,0,0,1-1.9-1,1.54,1.54,0,0,1-.61-1.25c0-.43.11-1,1.12-1.58a8.36,8.36,0,0,1,3.73-.68,6.68,6.68,0,0,1,3.58.83,2.29,2.29,0,0,1,1.17,2v1h5.93V13.43a6.87,6.87,0,0,0-3.07-6.12,13.49,13.49,0,0,0-7.57-2,14.32,14.32,0,0,0-7.81,1.92,6.47,6.47,0,0,0-3.13,5.79,6.38,6.38,0,0,0,1.5,4.4,9.19,9.19,0,0,0,3.48,2.45,43.6,43.6,0,0,0,5.05,1.62c1.53.42,2.73.79,3.56,1.1a5.81,5.81,0,0,1,1.95,1.14,2,2,0,0,1,.67,1.55,2.06,2.06,0,0,1-1.17,1.89,8.56,8.56,0,0,1-4.18.79A7.5,7.5,0,0,1,342,27a2.76,2.76,0,0,1-1.35-2.4l.08-1.31h-6.06l-.06,1.39a7.37,7.37,0,0,0,1.6,4.8,9.31,9.31,0,0,0,4.17,2.84,17,17,0,0,0,5.62.9,15,15,0,0,0,8.31-2,7.36,7.36,0,0,0,3.2-6.58,6.3,6.3,0,0,0-1.57-4.39A9.73,9.73,0,0,0,352.32,17.77ZM378,27.51V21.67h13.65v-5.3H378V11.1h15.31V5.8H372v27h21.54v-5.3Z"/><path class="cls-5" d="M213.9,60.82a4.8,4.8,0,0,0,1.81-.32,2.68,2.68,0,0,0,1.22-.92,2.38,2.38,0,0,0,.44-1.43,2.14,2.14,0,0,0-.39-1.31,3,3,0,0,0-1-.85,14.08,14.08,0,0,0-1.54-.7l-.32-.14a8.63,8.63,0,0,1-1-.47,1.77,1.77,0,0,1-.63-.56,1.53,1.53,0,0,1-.25-.89,1.12,1.12,0,0,1,.23-.69,1.52,1.52,0,0,1,.65-.47,2.5,2.5,0,0,1,.94-.16,3.41,3.41,0,0,1,1,.15.88.88,0,0,1,.58.37l.3,1.21h.82v-2c-.27-.11-.5-.19-.68-.25a5.82,5.82,0,0,0-.78-.18,6.52,6.52,0,0,0-1.12-.09,4.52,4.52,0,0,0-1.62.29,2.77,2.77,0,0,0-1.18.83,2,2,0,0,0-.44,1.26,2.93,2.93,0,0,0,.28,1.3,2.65,2.65,0,0,0,.84.93,6.71,6.71,0,0,0,1.47.72,12.21,12.21,0,0,1,1.44.61,2.39,2.39,0,0,1,.8.62,1.28,1.28,0,0,1,.27.81c0,1-.68,1.52-2.05,1.52a3.61,3.61,0,0,1-.86-.1,2.85,2.85,0,0,1-.73-.28,1.13,1.13,0,0,1-.43-.34l-.25-1.3h-.9v2.1a6.72,6.72,0,0,0,1.37.48A7,7,0,0,0,213.9,60.82Zm-4.41-.19v-.72L208,59.79V51.4l-.32-.26h0l-2.29.26v.75l1.31.3v7.33l-1.47.13v.72ZM207.2,49.42a.94.94,0,0,0,.75-.31,1.24,1.24,0,0,0,.26-.8,1.07,1.07,0,0,0-.23-.67.77.77,0,0,0-.64-.29.88.88,0,0,0-.73.33,1.25,1.25,0,0,0-.26.79,1,1,0,0,0,.23.67.79.79,0,0,0,.62.28Zm-4.5,11.21v-.69l-2.22-.13V53.47a5.73,5.73,0,0,1,1.22-.7,4.22,4.22,0,0,1,1.64-.29,2.42,2.42,0,0,1,.47.05.91.91,0,0,1,.3.1V51.16a1.59,1.59,0,0,0-.5-.08,3.46,3.46,0,0,0-1.65.44,4.34,4.34,0,0,0-1.22.91l-.36.42-.06.07v0h0V51.4l-.32-.26h0l-2.12.26v.75l1.29.3v7.37l-1.34.12v.69Zm-10.92-.81a1.93,1.93,0,0,1-1.32-.43A1.74,1.74,0,0,1,190,58a1.61,1.61,0,0,1,.46-1.13,3.11,3.11,0,0,1,1.39-.77,8.65,8.65,0,0,1,2.28-.28v3a5.85,5.85,0,0,1-1.19.71A2.76,2.76,0,0,1,191.78,59.82Zm-.5,1a3.16,3.16,0,0,0,1.22-.24,4.26,4.26,0,0,0,1-.52q.38-.27.75-.6v.62a1.16,1.16,0,0,0,.07.47.35.35,0,0,0,.21.19,1.5,1.5,0,0,0,.42,0,6.25,6.25,0,0,0,1.57-.27V59.9h-1V54.39a5,5,0,0,0-.29-1.9,1.87,1.87,0,0,0-.95-1,4.25,4.25,0,0,0-1.81-.32,5.21,5.21,0,0,0-1.46.23,8.76,8.76,0,0,0-1.36.54,3.79,3.79,0,0,0-.79.48l.37.74a5.87,5.87,0,0,1,3-.9,2.59,2.59,0,0,1,1.23.23,1.26,1.26,0,0,1,.61.71,4.39,4.39,0,0,1,.17,1.35v.53a11.88,11.88,0,0,0-2.77.33,4.85,4.85,0,0,0-2.06,1,2.29,2.29,0,0,0-.78,1.8,2.66,2.66,0,0,0,.37,1.46,2.27,2.27,0,0,0,1,.88A3.38,3.38,0,0,0,191.28,60.82Zm-8.88-5.76a12.37,12.37,0,0,1-1.79-.08V49a6,6,0,0,0,.65,0c.44,0,.82-.06,1.16-.06a5.28,5.28,0,0,1,1.85.27,2,2,0,0,1,1.07.86,3.18,3.18,0,0,1,.35,1.59,3.39,3.39,0,0,1-.92,2.65A3.48,3.48,0,0,1,182.4,55.06Zm.53,5.57v-.72l-2.32-.16V55.81l.69,0,1.08,0a5.69,5.69,0,0,0,2.43-.51,4,4,0,0,0,2.35-3.77,4,4,0,0,0-.41-1.93,2.66,2.66,0,0,0-1.35-1.19,6.44,6.44,0,0,0-2.55-.41c-.54,0-1.1,0-1.69.06-.43,0-.85.06-1.24.06h-2v.72l1.33.19V59.76l-1.43.15v.72Z"/></g></svg>