<svg xmlns="http://www.w3.org/2000/svg" width="204.308" height="22.471" viewBox="0 0 204.308 22.471">
  <g id="Group_171" data-name="Group 171" transform="translate(-578.467 -2264.413)">
    <path id="Path_3204" data-name="Path 3204" d="M1043.862,2275.071c-.024.263-.068.527-.068.79q-.007,4.778,0,9.555c0,.816,0,.82-.8.823-1.117,0-2.234-.011-3.351.006-.406.006-.576-.142-.559-.552.019-.463,0-.928,0-1.392q0-9.491,0-18.983c0-.265.023-.531.035-.8l.143-.107a5.879,5.879,0,0,1,.664.465q5.155,4.755,10.3,9.52c.755.7,1.522,1.382,2.28,2.069.417-.185.3-.521.3-.789.01-2.32.006-4.64.006-6.96,0-1.013.014-2.025,0-3.037-.009-.468.187-.641.638-.636,1.159.012,2.319.014,3.478,0,.446-.006.588.2.584.615-.011,1.413,0,2.826,0,4.24q0,8,0,16.009c0,.3-.047.6-.072.894l-.2.084L1044.036,2275Z" transform="translate(-344.002 0)"/>
    <path id="Path_3205" data-name="Path 3205" d="M1274.661,2280.62l4.655,7.392a6.263,6.263,0,0,1-.666.083c-1.349.006-2.7-.009-4.046.01a.936.936,0,0,1-.913-.526c-1.118-1.88-2.267-3.74-3.385-5.62a.838.838,0,0,0-.809-.479c-.506.012-1.012.022-1.517,0-.48-.022-.618.208-.615.649.012,1.645,0,3.29,0,4.935,0,.19-.008.38,0,.57.01.311-.118.467-.446.465q-1.928-.01-3.856,0c-.328,0-.454-.161-.447-.468,0-.169,0-.337,0-.506q0-9.617,0-19.233c0-.147.009-.3,0-.443-.02-.365.126-.545.512-.542,2.781.029,5.57-.072,8.34.112a7.718,7.718,0,0,1,5.442,2.618,6.813,6.813,0,0,1,1.606,5.7,6.6,6.6,0,0,1-3.351,4.864A4.5,4.5,0,0,0,1274.661,2280.62Zm-7.291-6.487c0,1.012,0,2.025,0,3.038,0,.309.064.561.437.552a11.113,11.113,0,0,0,3.629-.294,3.433,3.433,0,0,0,.046-6.455,10.76,10.76,0,0,0-3.69-.315c-.382-.005-.423.263-.422.564C1267.371,2272.193,1267.369,2273.163,1267.37,2274.133Z" transform="translate(-510.942 -1.859)"/>
    <path id="Path_3206" data-name="Path 3206" d="M782.189,2286.882a10.526,10.526,0,0,1-7.72-3.208c-.277-.286-.5-.625-.77-.918a.385.385,0,0,1,.052-.642c.758-.635,1.521-1.267,2.279-1.9.328-.275.556-.14.781.154a6.876,6.876,0,0,0,2.6,2.155,6.032,6.032,0,0,0,5.016.153,2.122,2.122,0,0,0,1.365-2.376,2.371,2.371,0,0,0-1.534-1.725c-1.323-.585-2.677-1.1-4.029-1.62a9.968,9.968,0,0,1-3.458-2.025,5.246,5.246,0,0,1-1.563-4.066,5.674,5.674,0,0,1,1.754-4.32,6.812,6.812,0,0,1,3.174-1.59,10.955,10.955,0,0,1,4.824,0,8.577,8.577,0,0,1,4.709,2.633c.382.427.37.535-.053.938q-.891.849-1.8,1.677c-.437.4-.522.4-.943-.012a6.108,6.108,0,0,0-3.9-1.719,3.953,3.953,0,0,0-2.439.48,1.769,1.769,0,0,0-.17,2.969,14.184,14.184,0,0,0,2.522,1.262,31.874,31.874,0,0,1,5.006,2.2,5.6,5.6,0,0,1,2.372,6.76,6.237,6.237,0,0,1-3.891,4.017A10.847,10.847,0,0,1,782.189,2286.882Z" transform="translate(-145.694 -0.2)"/>
    <path id="Path_3207" data-name="Path 3207" d="M876.491,2279.924c.457.5.8.9,1.167,1.271a6.3,6.3,0,0,0,6.148,1.751,2.342,2.342,0,0,0,2.11-2.5,2.374,2.374,0,0,0-1.59-1.888c-1.283-.574-2.594-1.087-3.91-1.58a10.184,10.184,0,0,1-3.477-1.992,5.194,5.194,0,0,1-1.626-4.037,5.713,5.713,0,0,1,1.736-4.391,6.768,6.768,0,0,1,3.168-1.6,10.947,10.947,0,0,1,4.824-.013,8.616,8.616,0,0,1,4.674,2.572c.462.505.448.6-.065,1.08q-.827.78-1.668,1.544c-.522.476-.534.462-1.086-.025a5.861,5.861,0,0,0-5.613-1.447,1.869,1.869,0,0,0-.437,3.536c.982.473,1.992.888,3,1.3a21.886,21.886,0,0,1,4.177,1.9,5.421,5.421,0,0,1,2.512,6.178,6.1,6.1,0,0,1-4.045,4.569,11.368,11.368,0,0,1-6.335.544,9.7,9.7,0,0,1-6.326-3.933c-.1-.13-.141-.459-.063-.529C874.644,2281.457,875.551,2280.712,876.491,2279.924Z" transform="translate(-220.51 -0.201)"/>
    <path id="Path_3208" data-name="Path 3208" d="M685.915,2286.5h-1.17c-1.053,0-2.107-.029-3.159.013a.817.817,0,0,1-.892-.61c-.23-.586-.491-1.162-.7-1.755a.922.922,0,0,0-.994-.686c-2.422.014-4.844.011-7.266,0a.9.9,0,0,0-.984.685,17.7,17.7,0,0,1-.843,1.968c-.075.158-.282.358-.43.36-1.473.017-2.947,0-4.42-.016-.034,0-.069-.042-.166-.1.438-.935.877-1.881,1.324-2.823q2.323-4.9,4.651-9.791,2.044-4.3,4.1-8.586c.082-.17.279-.4.419-.4s.343.226.425.4c1.826,3.831,3.635,7.669,5.457,11.5,1.416,2.979,2.844,5.951,4.264,8.928C685.648,2285.826,685.742,2286.081,685.915,2286.5Zm-10.449-13.288-.157,0c-.176.4-.36.788-.528,1.186q-1.016,2.4-2.021,4.812c-.211.509-.114.672.414.676q2.207.016,4.414,0c.515,0,.606-.151.418-.614q-.938-2.3-1.886-4.595C675.914,2274.181,675.684,2273.7,675.466,2273.208Z" transform="translate(-64.544 -0.256)"/>
    <path id="Path_3209" data-name="Path 3209" d="M1166.667,2286.439c-.257.024-.457.06-.657.06-1.222.005-2.445-.023-3.666.015a.792.792,0,0,1-.847-.583c-.238-.584-.495-1.161-.7-1.755a.922.922,0,0,0-.975-.712c-2.444.014-4.888.009-7.333,0a.868.868,0,0,0-.937.661,21.442,21.442,0,0,1-.866,2.028.592.592,0,0,1-.392.323c-1.474.013-2.948-.005-4.422-.019-.034,0-.067-.043-.174-.116.325-.7.649-1.423.988-2.137q2.325-4.9,4.657-9.793,2.208-4.64,4.427-9.274a.724.724,0,0,1,.437-.374c.106-.019.31.2.384.354,1.189,2.483,2.361,4.974,3.542,7.461q2.122,4.47,4.25,8.938,1.082,2.278,2.155,4.561C1166.574,2286.171,1166.6,2286.268,1166.667,2286.439Zm-10.448-13.333a5.717,5.717,0,0,0-.355.59c-.784,1.859-1.568,3.719-2.336,5.585-.19.461-.078.607.441.61q2.182.016,4.363,0c.585,0,.654-.142.426-.695-.5-1.2-.984-2.413-1.484-3.616C1156.947,2274.792,1156.605,2274.011,1156.218,2273.105Z" transform="translate(-423.623 -0.262)"/>
    <path id="Path_3210" data-name="Path 3210" d="M587.358,2266.913q4.045,0,8.089,0c.857,0,.876.023.878.895,0,.78,0,1.56,0,2.34s-.053.838-.88.84c-1.622,0-3.244,0-4.866,0-.771,0-.776.005-.776.774q0,7.748,0,15.5c0,.843,0,.845-.823.846q-1.612,0-3.223,0c-.713,0-.736-.022-.736-.756q0-7.5,0-14.99c0-1.413.189-1.374-1.359-1.371q-2.275,0-4.55,0c-.588,0-.626-.044-.632-.667-.008-.906-.006-1.813,0-2.719,0-.669.019-.685.734-.686Q583.282,2266.91,587.358,2266.913Z" transform="translate(0 -1.867)"/>
    <path id="Path_3211" data-name="Path 3211" d="M978.15,2277.56q0-4.934,0-9.867c0-.772.006-.778.771-.781q1.58-.007,3.16,0c.844,0,.858.013.858.84q0,6.1,0,12.208,0,3.669,0,7.337c0,.791-.019.8-.822.806q-1.612,0-3.223,0c-.737,0-.743-.008-.743-.737Q978.148,2282.461,978.15,2277.56Z" transform="translate(-298.496 -1.863)"/>
    <path id="Path_3212" data-name="Path 3212" d="M1366.5,2277.444q0-4.872,0-9.744c0-.773.014-.788.765-.792q1.675-.008,3.351,0c.631,0,.681.051.683.7q.008,4.366,0,8.731,0,5.442,0,10.883c0,.879,0,.88-.873.881-1.075,0-2.15,0-3.224,0-.687,0-.7-.019-.7-.719Q1366.5,2282.411,1366.5,2277.444Z" transform="translate(-588.531 -1.861)"/>
  </g>
</svg>
