<svg xmlns="http://www.w3.org/2000/svg" viewBox="0 0 1038.35 72.55"><defs><style>.cls-1{fill:#333;}</style></defs><g id="Layer_2" data-name="Layer 2"><g id="Layer_1-2" data-name="Layer 1"><path class="cls-1" d="M29.55,32.51,55.12,57.92q6.29,6.28,10.74,8.57a23.09,23.09,0,0,0,8.89,2.58V71h-33V69.07a7.08,7.08,0,0,0,4.27-1,2.8,2.8,0,0,0,1.31-2.22,4.78,4.78,0,0,0-.49-2.2A19.32,19.32,0,0,0,43.67,60L19.74,36.34V58.69q0,5.27.66,7a4.58,4.58,0,0,0,2.15,2.2,9.38,9.38,0,0,0,4.65,1.23h2.35V71H0V69.07H2.45q4.31,0,6.24-2.51,1.23-1.64,1.23-7.87V13.9q0-5.26-.67-7A4.69,4.69,0,0,0,7.16,4.75,9.69,9.69,0,0,0,2.45,3.52H0V1.63H29.55V3.52H27.2a10,10,0,0,0-4.65,1.17,4.46,4.46,0,0,0-2.2,2.46q-.62,1.63-.61,6.75V35.12q1-1,7-6.5Q41.93,14.72,45.1,10.06a6.67,6.67,0,0,0,1.38-3.58A2.65,2.65,0,0,0,45.4,4.41a5.74,5.74,0,0,0-3.63-.89H40.19V1.63H65.65V3.52a15.2,15.2,0,0,0-4.09.61,20.9,20.9,0,0,0-4.5,2.18,44.14,44.14,0,0,0-6.54,5.18Q49.4,12.52,40.14,22Z"/><path class="cls-1" d="M126,47.75H99.14l-4.7,10.94a17.28,17.28,0,0,0-1.74,6,3.49,3.49,0,0,0,1.51,2.79q1.5,1.2,6.51,1.56V71H78.89V69.07c2.9-.51,4.77-1.18,5.63-2q2.6-2.44,5.77-10L114.68,0h1.79l24.14,57.68q2.91,6.95,5.29,9a10.77,10.77,0,0,0,6.62,2.33V71H125.17V69.07q4.14-.21,5.59-1.38a3.55,3.55,0,0,0,1.46-2.87c0-1.5-.68-3.86-2-7.1ZM124.55,44l-11.76-28L100.72,44Z"/><path class="cls-1" d="M176.53,5.41V32.66h12.63q4.35,0,6.37-1.91t2.68-7.6h1.9V46.62h-1.9a13.73,13.73,0,0,0-1-5.93,6.67,6.67,0,0,0-2.77-2.84,11.4,11.4,0,0,0-5.24-.94H176.53V58.69c0,3.51.23,5.83.67,7a4.54,4.54,0,0,0,2.15,2.2,9.65,9.65,0,0,0,4.7,1.23h2.51V71H156.8V69.07h2.45c2.87,0,4.94-.84,6.24-2.51q1.23-1.64,1.23-7.87V13.9c0-3.51-.23-5.83-.67-7A4.6,4.6,0,0,0,164,4.75a9.52,9.52,0,0,0-4.71-1.23H156.8V1.63h51.59l.66,15.23h-1.79a20.85,20.85,0,0,0-3.09-7.13,10.19,10.19,0,0,0-4.35-3.3,23.22,23.22,0,0,0-8-1Z"/><path class="cls-1" d="M242.28,32.51l25.57,25.41q6.28,6.28,10.74,8.57a23.09,23.09,0,0,0,8.89,2.58V71h-33V69.07a7.08,7.08,0,0,0,4.27-1,2.8,2.8,0,0,0,1.31-2.22,4.78,4.78,0,0,0-.49-2.2A19.32,19.32,0,0,0,256.4,60L232.47,36.34V58.69q0,5.27.66,7a4.58,4.58,0,0,0,2.15,2.2,9.38,9.38,0,0,0,4.65,1.23h2.35V71H212.73V69.07h2.45q4.31,0,6.24-2.51,1.23-1.64,1.23-7.87V13.9q0-5.26-.66-7a4.77,4.77,0,0,0-2.1-2.14,9.69,9.69,0,0,0-4.71-1.23h-2.45V1.63h29.55V3.52h-2.35a10,10,0,0,0-4.65,1.17,4.46,4.46,0,0,0-2.2,2.46q-.62,1.63-.61,6.75V35.12q1-1,7-6.5,15.19-13.9,18.36-18.56a6.67,6.67,0,0,0,1.38-3.58,2.65,2.65,0,0,0-1.08-2.07,5.74,5.74,0,0,0-3.63-.89h-1.58V1.63h25.46V3.52a15.2,15.2,0,0,0-4.09.61,21.13,21.13,0,0,0-4.5,2.18,44.14,44.14,0,0,0-6.54,5.18q-1.12,1-10.38,10.49Z"/><path class="cls-1" d="M338.71,47.75H311.87l-4.7,10.94a17.28,17.28,0,0,0-1.74,6,3.49,3.49,0,0,0,1.51,2.79q1.5,1.2,6.52,1.56V71H291.62V69.07c2.9-.51,4.77-1.18,5.63-2q2.61-2.44,5.77-10L327.41,0h1.79l24.14,57.68q2.91,6.95,5.29,9a10.77,10.77,0,0,0,6.62,2.33V71H337.9V69.07q4.14-.21,5.59-1.38A3.55,3.55,0,0,0,345,64.82c0-1.5-.68-3.86-2-7.1ZM337.28,44l-11.76-28L313.46,44Z"/><path class="cls-1" d="M438.44,71,411.65,12.62V58.94q0,6.41,1.38,8c1.26,1.43,3.26,2.15,6,2.15h2.46V71H397.33V69.07h2.46q4.4,0,6.24-2.66,1.13-1.64,1.12-7.47V13.64q0-4.61-1-6.64a5.69,5.69,0,0,0-2.63-2.48,14.08,14.08,0,0,0-6.17-1V1.63H417l25.16,54.25L466.87,1.63h19.64V3.52H484.1c-3,0-5.06.89-6.28,2.66-.76,1.09-1.13,3.58-1.13,7.46v45.3q0,6.41,1.43,8c1.26,1.43,3.26,2.15,6,2.15h2.41V71H457.06V69.07h2.45c3,0,5-.89,6.24-2.66q1.13-1.64,1.12-7.47V12.62L440.13,71Z"/><path class="cls-1" d="M510.51,5.41V32.82h15.24q5.93,0,7.92-1.79,2.67-2.36,3-8.29h1.89V46.88h-1.89a26.49,26.49,0,0,0-1.43-6.5,6.43,6.43,0,0,0-3-2.81,15.42,15.42,0,0,0-6.44-1H510.51V59.41a21.27,21.27,0,0,0,.41,5.59,3.19,3.19,0,0,0,1.43,1.59,8.73,8.73,0,0,0,3.89.59H528a32.12,32.12,0,0,0,8.54-.82,12.84,12.84,0,0,0,5.11-3.22,39.7,39.7,0,0,0,6.5-9.56h2l-6,17.38H490.78V69.07h2.45a9.62,9.62,0,0,0,4.65-1.18,4.32,4.32,0,0,0,2.23-2.45,24.28,24.28,0,0,0,.58-6.7V13.69q0-6.58-1.32-8.13-1.85-2-6.14-2h-2.45V1.63h53.43L545,16.81h-2c-.72-3.64-1.51-6.15-2.38-7.51a8.07,8.07,0,0,0-3.86-3.12,23.13,23.13,0,0,0-7.21-.77Z"/><path class="cls-1" d="M617.68,71H599.17L575.7,38.54c-1.74.07-3.15.11-4.24.11l-1.43,0c-.52,0-1,0-1.59-.08V58.69q0,6.54,1.43,8.13a7.29,7.29,0,0,0,5.83,2.25h2.71V71H548.7V69.07h2.61q4.4,0,6.29-2.86c.72-1.06,1.07-3.57,1.07-7.52V13.9q0-6.54-1.43-8.13a7.52,7.52,0,0,0-5.93-2.25H548.7V1.63H574c7.37,0,12.79.53,16.29,1.61a18.57,18.57,0,0,1,8.89,5.93,15.41,15.41,0,0,1,3.66,10.3,16.2,16.2,0,0,1-4.17,11.1q-4.17,4.7-12.91,6.64L600,57.1q4.9,6.85,8.44,9.11a21.25,21.25,0,0,0,9.2,2.86ZM568.44,35.32c.64,0,1.21,0,1.69,0s.87,0,1.17,0q9.91,0,15-4.29a13.78,13.78,0,0,0,5-10.94,14.29,14.29,0,0,0-4.07-10.56,14.55,14.55,0,0,0-10.76-4.07,45.77,45.77,0,0,0-8,1Z"/><path class="cls-1" d="M670.61,0l1.58,23.57h-1.58Q667.43,13,661.56,8.38a22,22,0,0,0-14.12-4.66A22.9,22.9,0,0,0,635,7.23q-5.58,3.5-8.77,11.17T623,37.47a40.51,40.51,0,0,0,3,16.31,22.58,22.58,0,0,0,9.08,10.58,26.06,26.06,0,0,0,13.83,3.69,24,24,0,0,0,11.91-2.89q5.16-2.89,11.35-11.48l1.59,1Q668.56,64,661.61,68.25a30.85,30.85,0,0,1-16.52,4.3q-17.24,0-26.69-12.79a36.55,36.55,0,0,1-7-22.39A39.77,39.77,0,0,1,616,18.3,33.64,33.64,0,0,1,628.81,4.82,34.64,34.64,0,0,1,646.63,0a32.67,32.67,0,0,1,14.82,3.68,8.16,8.16,0,0,0,3.07,1.13,3.44,3.44,0,0,0,2.41-1A8.07,8.07,0,0,0,668.82,0Z"/><path class="cls-1" d="M719.77,47.71H692.93l-4.71,10.94a17.5,17.5,0,0,0-1.74,6A3.52,3.52,0,0,0,688,67.47q1.51,1.2,6.52,1.56v1.89H672.68V69q4.35-.77,5.62-2,2.61-2.44,5.78-10L708.47,0h1.79l24.13,57.68q2.93,6.95,5.3,9A10.77,10.77,0,0,0,746.31,69v1.89H719V69q4.14-.21,5.6-1.38A3.58,3.58,0,0,0,726,64.78c0-1.5-.68-3.86-2-7.1Zm-1.43-3.79-11.76-28-12.07,28Z"/><path class="cls-1" d="M746.68,1.59H765.5l42.39,52v-40q0-6.39-1.44-8-1.89-2.14-6-2.14h-2.4V1.59H822.2V3.48h-2.45c-2.93,0-5,.88-6.24,2.66-.75,1.09-1.13,3.57-1.13,7.46V72h-1.84L764.83,16.21V58.9c0,4.27.46,6.92,1.38,8,1.3,1.43,3.29,2.15,6,2.15h2.45v1.89H750.52V69h2.4q4.44,0,6.29-2.66,1.13-1.64,1.12-7.47V10.69A31.31,31.31,0,0,0,755.76,6a16.94,16.94,0,0,0-4.58-2.09,16.19,16.19,0,0,0-4.5-.46Z"/><path class="cls-1" d="M882.9,1.63l.77,16.26h-1.94a19.68,19.68,0,0,0-1.54-6.14A10.25,10.25,0,0,0,876,7.38,14.63,14.63,0,0,0,869.05,6h-9.77v53q0,6.41,1.38,8c1.29,1.43,3.29,2.15,6,2.15h2.41V71h-29.4V69.07h2.45q4.39,0,6.24-2.66c.74-1.09,1.12-3.58,1.12-7.47V6h-8.33a23.07,23.07,0,0,0-6.9.72,9.4,9.4,0,0,0-4.55,3.73,14.94,14.94,0,0,0-2.25,7.47h-1.95l.82-16.26Z"/><path class="cls-1" d="M916.88,69.07V71H887.17V69.07h2.45c2.87,0,4.94-.84,6.24-2.51q1.23-1.64,1.23-7.87V13.9c0-3.51-.23-5.83-.67-7a4.6,4.6,0,0,0-2.09-2.19,9.69,9.69,0,0,0-4.71-1.23h-2.45V1.63h29.71V3.52h-2.51q-4.25,0-6.19,2.5c-.85,1.1-1.27,3.72-1.27,7.88V58.69q0,5.27.66,7a4.54,4.54,0,0,0,2.15,2.2,9.38,9.38,0,0,0,4.65,1.23Z"/><path class="cls-1" d="M979,51.79l1.68.35L974.7,71H921V69.07h2.6q4.39,0,6.29-2.86Q931,64.56,931,58.64V13.9q0-6.49-1.44-8.13c-1.33-1.5-3.3-2.25-5.93-2.25H921V1.63h31.39V3.52q-5.52,0-7.75,1a6.3,6.3,0,0,0-3,2.71q-.82,1.63-.82,7.82V58.64q0,4.24.82,5.83a3.68,3.68,0,0,0,1.89,1.58q1.28.51,8,.51h5.06q8,0,11.2-1.17a14.72,14.72,0,0,0,5.88-4.17A34.39,34.39,0,0,0,979,51.79Z"/><path class="cls-1" d="M998.67,5.64V33.05h15.23q5.94,0,7.93-1.79,2.66-2.36,3-8.29h1.89V47.11h-1.89a27,27,0,0,0-1.43-6.5,6.43,6.43,0,0,0-3-2.81,15.48,15.48,0,0,0-6.45-1H998.67V59.64a21.27,21.27,0,0,0,.41,5.59,3.19,3.19,0,0,0,1.43,1.59,8.71,8.71,0,0,0,3.88.59h11.77a32.17,32.17,0,0,0,8.54-.82,12.84,12.84,0,0,0,5.11-3.22,39.71,39.71,0,0,0,6.49-9.56h2l-6,17.38H978.93V69.3h2.46A9.68,9.68,0,0,0,986,68.12a4.27,4.27,0,0,0,2.22-2.45c.4-1.09.59-3.32.59-6.7v-45q0-6.59-1.33-8.13-1.85-2-6.13-2h-2.46V1.86h53.44l.76,15.18h-2c-.72-3.64-1.51-6.15-2.38-7.51a8.12,8.12,0,0,0-3.86-3.12,23.18,23.18,0,0,0-7.21-.77Z"/></g></g></svg>