<svg width="39" height="39" viewBox="0 0 39 39" fill="none" xmlns="http://www.w3.org/2000/svg">
<rect x="0.35" y="0.35" width="38.3" height="38.3" rx="19.15" fill="white"/>
<rect x="0.35" y="0.35" width="38.3" height="38.3" rx="19.15" stroke="#5F3300" stroke-width="0.7"/>
<mask id="path-2-inside-1_55_186" fill="white">
<path d="M17.1963 19.5L22.8547 12.0863C22.9013 12.0266 22.9381 11.9556 22.963 11.8776C22.988 11.7996 23.0005 11.7161 23 11.6318C22.9994 11.5476 22.9858 11.4643 22.9598 11.3869C22.9339 11.3094 22.8961 11.2392 22.8488 11.1805C22.8014 11.1217 22.7454 11.0756 22.6839 11.0446C22.6225 11.0136 22.5568 10.9985 22.4908 11.0001C22.4247 11.0017 22.3595 11.02 22.299 11.0539C22.2386 11.0879 22.184 11.1367 22.1384 11.1977L16.1416 19.0557C16.0508 19.1747 16 19.3341 16 19.5C16 19.6659 16.0508 19.8253 16.1416 19.9443L22.1384 27.8023C22.184 27.8633 22.2386 27.9121 22.299 27.9461C22.3595 27.98 22.4247 27.9983 22.4908 27.9999C22.5568 28.0015 22.6225 27.9864 22.6839 27.9554C22.7454 27.9244 22.8014 27.8783 22.8488 27.8195C22.8961 27.7608 22.9339 27.6906 22.9598 27.6131C22.9858 27.5357 22.9994 27.4524 23 27.3682C23.0005 27.2839 22.988 27.2004 22.963 27.1224C22.9381 27.0443 22.9013 26.9734 22.8547 26.9137L17.1963 19.5Z"/>
</mask>
<path d="M17.1963 19.5L22.8547 12.0863C22.9013 12.0266 22.9381 11.9556 22.963 11.8776C22.988 11.7996 23.0005 11.7161 23 11.6318C22.9994 11.5476 22.9858 11.4643 22.9598 11.3869C22.9339 11.3094 22.8961 11.2392 22.8488 11.1805C22.8014 11.1217 22.7454 11.0756 22.6839 11.0446C22.6225 11.0136 22.5568 10.9985 22.4908 11.0001C22.4247 11.0017 22.3595 11.02 22.299 11.0539C22.2386 11.0879 22.184 11.1367 22.1384 11.1977L16.1416 19.0557C16.0508 19.1747 16 19.3341 16 19.5C16 19.6659 16.0508 19.8253 16.1416 19.9443L22.1384 27.8023C22.184 27.8633 22.2386 27.9121 22.299 27.9461C22.3595 27.98 22.4247 27.9983 22.4908 27.9999C22.5568 28.0015 22.6225 27.9864 22.6839 27.9554C22.7454 27.9244 22.8014 27.8783 22.8488 27.8195C22.8961 27.7608 22.9339 27.6906 22.9598 27.6131C22.9858 27.5357 22.9994 27.4524 23 27.3682C23.0005 27.2839 22.988 27.2004 22.963 27.1224C22.9381 27.0443 22.9013 26.9734 22.8547 26.9137L17.1963 19.5Z" fill="#5F3300"/>
<path d="M17.1963 19.5L16.4014 18.8933L15.9383 19.5L16.4014 20.1067L17.1963 19.5ZM22.8547 12.0863L22.066 11.4714L22.0597 11.4796L22.8547 12.0863ZM22.1384 11.1977L22.9334 11.8044L22.9395 11.7962L22.1384 11.1977ZM16.1416 19.0557L15.3466 18.449L15.3466 18.4491L16.1416 19.0557ZM16.1416 19.9443L15.3466 20.5509L15.3466 20.551L16.1416 19.9443ZM22.1384 27.8023L22.9396 27.2038L22.9333 27.1956L22.1384 27.8023ZM22.8547 26.9137L22.0597 27.5204L22.0661 27.5286L22.8547 26.9137ZM17.9913 20.1067L23.6496 12.693L22.0597 11.4796L16.4014 18.8933L17.9913 20.1067ZM23.6433 12.7012C23.768 12.5412 23.8576 12.3634 23.9155 12.1822L22.0105 11.5731C22.0186 11.5479 22.0345 11.5119 22.0661 11.4714L23.6433 12.7012ZM23.9155 12.1822C23.9735 12.0008 24.0012 11.8121 24 11.6253L22 11.6384C21.9999 11.6201 22.0024 11.5985 22.0105 11.5731L23.9155 12.1822ZM24 11.6253C23.9987 11.4386 23.9686 11.2501 23.908 11.0692L22.0116 11.7045C22.0029 11.6786 22.0001 11.6566 22 11.6384L24 11.6253ZM23.908 11.0692C23.8475 10.8885 23.7551 10.7114 23.6273 10.5529L22.0702 11.8081C22.0371 11.767 22.0203 11.7303 22.0116 11.7045L23.908 11.0692ZM23.6273 10.5529C23.4993 10.3941 23.3344 10.2526 23.1339 10.1515L22.234 11.9376C22.1564 11.8986 22.1035 11.8494 22.0702 11.8081L23.6273 10.5529ZM23.1339 10.1515C22.9318 10.0497 22.7039 9.99465 22.4665 10.0004L22.515 11.9998C22.4098 12.0024 22.3131 11.9775 22.234 11.9376L23.1339 10.1515ZM22.4665 10.0004C22.2293 10.0062 22.0054 10.0721 21.8099 10.1817L22.7882 11.9261C22.7137 11.9679 22.6201 11.9973 22.515 11.9998L22.4665 10.0004ZM21.8099 10.1817C21.6159 10.2905 21.4582 10.4373 21.3372 10.5993L22.9395 11.7962C22.9097 11.8362 22.8612 11.8852 22.7882 11.9261L21.8099 10.1817ZM21.3434 10.5911L15.3466 18.449L16.9365 19.6624L22.9333 11.8044L21.3434 10.5911ZM15.3466 18.4491C15.1083 18.7613 15 19.1401 15 19.5H17C17 19.5181 16.9974 19.5392 16.9895 19.5638C16.9818 19.588 16.9667 19.6229 16.9365 19.6624L15.3466 18.4491ZM15 19.5C15 19.8599 15.1083 20.2387 15.3466 20.5509L16.9365 19.3376C16.9667 19.3771 16.9818 19.412 16.9895 19.4362C16.9974 19.4608 17 19.4819 17 19.5H15ZM15.3466 20.551L21.3434 28.4089L22.9333 27.1956L16.9365 19.3376L15.3466 20.551ZM21.3372 28.4007C21.4582 28.5627 21.6159 28.7095 21.8099 28.8183L22.7882 27.0739C22.8612 27.1148 22.9097 27.1638 22.9395 27.2038L21.3372 28.4007ZM21.8099 28.8183C22.0054 28.9279 22.2293 28.9938 22.4665 28.9996L22.515 27.0002C22.6201 27.0027 22.7137 27.0321 22.7882 27.0739L21.8099 28.8183ZM22.4665 28.9996C22.7039 29.0054 22.9318 28.9503 23.1339 28.8485L22.234 27.0624C22.3131 27.0225 22.4098 26.9976 22.515 27.0002L22.4665 28.9996ZM23.1339 28.8485C23.3344 28.7475 23.4993 28.6059 23.6273 28.4471L22.0702 27.1919C22.1035 27.1506 22.1564 27.1014 22.234 27.0624L23.1339 28.8485ZM23.6273 28.4471C23.7551 28.2886 23.8475 28.1115 23.908 27.9308L22.0116 27.2955C22.0203 27.2697 22.0371 27.233 22.0702 27.1919L23.6273 28.4471ZM23.908 27.9308C23.9686 27.7499 23.9987 27.5614 24 27.3747L22 27.3616C22.0001 27.3434 22.0029 27.3214 22.0116 27.2955L23.908 27.9308ZM24 27.3747C24.0012 27.1879 23.9735 26.9992 23.9155 26.8178L22.0105 27.4269C22.0024 27.4015 21.9999 27.3799 22 27.3616L24 27.3747ZM23.9155 26.8178C23.8576 26.6366 23.768 26.4588 23.6433 26.2988L22.0661 27.5286C22.0345 27.4881 22.0186 27.4521 22.0105 27.4269L23.9155 26.8178ZM23.6496 26.307L17.9913 18.8933L16.4014 20.1067L22.0597 27.5204L23.6496 26.307Z" fill="#5F3300" mask="url(#path-2-inside-1_55_186)"/>
</svg>
