<svg width="39" height="39" viewBox="0 0 39 39" fill="none" xmlns="http://www.w3.org/2000/svg">
<rect x="38.65" y="38.65" width="38.3" height="38.3" rx="19.15" transform="rotate(180 38.65 38.65)" fill="white"/>
<rect x="38.65" y="38.65" width="38.3" height="38.3" rx="19.15" transform="rotate(180 38.65 38.65)" stroke="#5F3300" stroke-width="0.7"/>
<mask id="path-2-inside-1_55_188" fill="white">
<path d="M21.8037 19.5L16.1453 26.9137C16.0987 26.9734 16.0619 27.0444 16.037 27.1224C16.012 27.2004 15.9995 27.2839 16 27.3682C16.0006 27.4524 16.0142 27.5357 16.0402 27.6131C16.0661 27.6906 16.1039 27.7608 16.1512 27.8195C16.1986 27.8783 16.2546 27.9244 16.3161 27.9554C16.3775 27.9864 16.4432 28.0015 16.5092 27.9999C16.5753 27.9983 16.6405 27.98 16.701 27.9461C16.7614 27.9121 16.816 27.8633 16.8616 27.8023L22.8584 19.9443C22.9492 19.8253 23 19.6659 23 19.5C23 19.3341 22.9492 19.1747 22.8584 19.0557L16.8616 11.1977C16.816 11.1367 16.7614 11.0879 16.701 11.0539C16.6405 11.02 16.5753 11.0017 16.5092 11.0001C16.4432 10.9985 16.3775 11.0136 16.3161 11.0446C16.2546 11.0756 16.1986 11.1217 16.1512 11.1805C16.1039 11.2392 16.0661 11.3094 16.0402 11.3869C16.0142 11.4643 16.0006 11.5476 16 11.6318C15.9995 11.7161 16.012 11.7996 16.037 11.8776C16.0619 11.9557 16.0987 12.0266 16.1453 12.0863L21.8037 19.5Z"/>
</mask>
<path d="M21.8037 19.5L16.1453 26.9137C16.0987 26.9734 16.0619 27.0444 16.037 27.1224C16.012 27.2004 15.9995 27.2839 16 27.3682C16.0006 27.4524 16.0142 27.5357 16.0402 27.6131C16.0661 27.6906 16.1039 27.7608 16.1512 27.8195C16.1986 27.8783 16.2546 27.9244 16.3161 27.9554C16.3775 27.9864 16.4432 28.0015 16.5092 27.9999C16.5753 27.9983 16.6405 27.98 16.701 27.9461C16.7614 27.9121 16.816 27.8633 16.8616 27.8023L22.8584 19.9443C22.9492 19.8253 23 19.6659 23 19.5C23 19.3341 22.9492 19.1747 22.8584 19.0557L16.8616 11.1977C16.816 11.1367 16.7614 11.0879 16.701 11.0539C16.6405 11.02 16.5753 11.0017 16.5092 11.0001C16.4432 10.9985 16.3775 11.0136 16.3161 11.0446C16.2546 11.0756 16.1986 11.1217 16.1512 11.1805C16.1039 11.2392 16.0661 11.3094 16.0402 11.3869C16.0142 11.4643 16.0006 11.5476 16 11.6318C15.9995 11.7161 16.012 11.7996 16.037 11.8776C16.0619 11.9557 16.0987 12.0266 16.1453 12.0863L21.8037 19.5Z" fill="#5F3300"/>
<path d="M21.8037 19.5L22.5986 20.1067L23.0617 19.5L22.5986 18.8933L21.8037 19.5ZM16.1453 26.9137L16.934 27.5286L16.9403 27.5204L16.1453 26.9137ZM16.8616 27.8023L16.0666 27.1956L16.0605 27.2038L16.8616 27.8023ZM22.8584 19.9443L23.6534 20.551L23.6534 20.5509L22.8584 19.9443ZM22.8584 19.0557L23.6534 18.4491L23.6534 18.449L22.8584 19.0557ZM16.8616 11.1977L16.0604 11.7962L16.0667 11.8044L16.8616 11.1977ZM16.1453 12.0863L16.9403 11.4796L16.9339 11.4714L16.1453 12.0863ZM21.0087 18.8933L15.3504 26.307L16.9403 27.5204L22.5986 20.1067L21.0087 18.8933ZM15.3567 26.2988C15.232 26.4588 15.1424 26.6366 15.0845 26.8178L16.9895 27.4269C16.9814 27.4521 16.9655 27.4881 16.9339 27.5286L15.3567 26.2988ZM15.0845 26.8178C15.0265 26.9992 14.9988 27.1879 15 27.3747L17 27.3616C17.0001 27.3799 16.9976 27.4015 16.9895 27.4269L15.0845 26.8178ZM15 27.3747C15.0013 27.5614 15.0314 27.7499 15.092 27.9308L16.9884 27.2955C16.9971 27.3214 16.9999 27.3434 17 27.3616L15 27.3747ZM15.092 27.9308C15.1525 28.1115 15.2449 28.2886 15.3727 28.4471L16.9298 27.1919C16.9629 27.233 16.9797 27.2697 16.9884 27.2955L15.092 27.9308ZM15.3727 28.4471C15.5007 28.6059 15.6656 28.7474 15.8661 28.8485L16.766 27.0624C16.8436 27.1014 16.8965 27.1506 16.9298 27.1919L15.3727 28.4471ZM15.8661 28.8485C16.0682 28.9503 16.2961 29.0054 16.5335 28.9996L16.485 27.0002C16.5902 26.9976 16.6869 27.0225 16.766 27.0624L15.8661 28.8485ZM16.5335 28.9996C16.7707 28.9938 16.9946 28.9279 17.1901 28.8183L16.2118 27.0739C16.2863 27.0321 16.3799 27.0027 16.485 27.0002L16.5335 28.9996ZM17.1901 28.8183C17.3841 28.7095 17.5418 28.5627 17.6628 28.4007L16.0605 27.2038C16.0903 27.1638 16.1388 27.1148 16.2118 27.0739L17.1901 28.8183ZM17.6566 28.4089L23.6534 20.551L22.0635 19.3376L16.0667 27.1956L17.6566 28.4089ZM23.6534 20.5509C23.8917 20.2387 24 19.8599 24 19.5L22 19.5C22 19.4819 22.0026 19.4608 22.0105 19.4362C22.0182 19.412 22.0333 19.3771 22.0635 19.3376L23.6534 20.5509ZM24 19.5C24 19.1401 23.8917 18.7613 23.6534 18.4491L22.0635 19.6624C22.0333 19.6229 22.0182 19.588 22.0105 19.5638C22.0026 19.5392 22 19.5181 22 19.5L24 19.5ZM23.6534 18.449L17.6566 10.5911L16.0667 11.8044L22.0635 19.6624L23.6534 18.449ZM17.6628 10.5993C17.5418 10.4373 17.3841 10.2905 17.1901 10.1817L16.2118 11.9261C16.1388 11.8852 16.0903 11.8362 16.0605 11.7962L17.6628 10.5993ZM17.1901 10.1817C16.9946 10.0721 16.7707 10.0062 16.5335 10.0004L16.485 11.9998C16.3799 11.9973 16.2863 11.9679 16.2118 11.9261L17.1901 10.1817ZM16.5335 10.0004C16.2961 9.99465 16.0682 10.0497 15.8661 10.1515L16.766 11.9376C16.6869 11.9775 16.5902 12.0024 16.485 11.9998L16.5335 10.0004ZM15.8661 10.1515C15.6656 10.2525 15.5007 10.3941 15.3727 10.5529L16.9298 11.8081C16.8965 11.8494 16.8436 11.8986 16.766 11.9376L15.8661 10.1515ZM15.3727 10.5529C15.2449 10.7114 15.1525 10.8885 15.092 11.0692L16.9884 11.7045C16.9797 11.7303 16.9629 11.767 16.9298 11.8081L15.3727 10.5529ZM15.092 11.0692C15.0314 11.2501 15.0013 11.4386 15 11.6253L17 11.6384C16.9999 11.6566 16.9971 11.6786 16.9884 11.7045L15.092 11.0692ZM15 11.6253C14.9988 11.8121 15.0265 12.0008 15.0845 12.1822L16.9895 11.5731C16.9976 11.5985 17.0001 11.6201 17 11.6384L15 11.6253ZM15.0845 12.1822C15.1424 12.3634 15.232 12.5412 15.3567 12.7012L16.9339 11.4714C16.9655 11.5119 16.9814 11.5479 16.9895 11.5731L15.0845 12.1822ZM15.3504 12.693L21.0087 20.1067L22.5986 18.8933L16.9403 11.4796L15.3504 12.693Z" fill="#5F3300" mask="url(#path-2-inside-1_55_188)"/>
</svg>
