<svg width="50" height="50" viewBox="0 0 50 50" fill="none" xmlns="http://www.w3.org/2000/svg">
<rect x="50" y="50" width="50" height="50" rx="25" transform="rotate(180 50 50)" fill="#5F3300"/>
<path d="M31.75 34C31.75 34.4476 31.5722 34.8768 31.2557 35.1932C30.9393 35.5097 30.5101 35.6875 30.0625 35.6875L13.1875 35.6875C12.7399 35.6875 12.3107 35.5097 11.9943 35.1932C11.6778 34.8768 11.5 34.4476 11.5 34C11.5 33.5524 11.6778 33.1232 11.9943 32.8068C12.3107 32.4903 12.7399 32.3125 13.1875 32.3125L30.0625 32.3125C30.5101 32.3125 30.9393 32.4903 31.2557 32.8068C31.5722 33.1232 31.75 33.5524 31.75 34ZM29.5 16C29.5 16.4476 29.3222 16.8768 29.0057 17.1932C28.6893 17.5097 28.2601 17.6875 27.8125 17.6875L13.1875 17.6875C12.7399 17.6875 12.3107 17.5097 11.9943 17.1932C11.6778 16.8768 11.5 16.4476 11.5 16C11.5 15.5524 11.6778 15.1232 11.9943 14.8068C12.3107 14.4903 12.7399 14.3125 13.1875 14.3125L27.8125 14.3125C28.2601 14.3125 28.6893 14.4903 29.0057 14.8068C29.3222 15.1232 29.5 15.5524 29.5 16ZM36.8125 26.6875C37.2601 26.6875 37.6893 26.5097 38.0057 26.1932C38.3222 25.8768 38.5 25.4476 38.5 25C38.5 24.5524 38.3222 24.1232 38.0057 23.8068C37.6893 23.4903 37.2601 23.3125 36.8125 23.3125L13.1875 23.3125C12.7399 23.3125 12.3107 23.4903 11.9943 23.8068C11.6778 24.1232 11.5 24.5524 11.5 25C11.5 25.4476 11.6778 25.8768 11.9943 26.1932C12.3107 26.5097 12.7399 26.6875 13.1875 26.6875L36.8125 26.6875Z" fill="#FFE4B3"/>
</svg>
