<svg width="204" height="57" viewBox="0 0 204 57" fill="none" xmlns="http://www.w3.org/2000/svg">
<g clip-path="url(#clip0_6_363)">
<path d="M202.424 30.4768C202.331 30.3881 202.162 30.3518 202.024 30.3477C201.273 30.3356 200.517 30.3316 199.766 30.3477C199.6 30.3518 199.414 30.4002 199.281 30.493C196.376 32.4578 193.237 33.9788 190.037 35.3909C189.653 35.5603 189.289 35.6451 188.873 35.5926C188.271 35.516 187.669 35.4635 187.067 35.4191C186.792 35.399 186.651 35.29 186.566 35.0117C186.134 33.5875 185.71 32.1592 185.213 30.7592C185.007 30.1863 185.193 29.8192 185.54 29.4359C185.576 29.3956 185.617 29.3593 185.657 29.327C186.267 28.867 186.861 28.3789 187.495 27.9512C189.265 26.757 191.071 25.6152 192.825 24.3927C194.271 23.3841 195.62 22.2504 196.699 20.8343C197.099 20.3098 197.471 19.7651 197.552 19.0833C197.673 18.0545 197.374 17.1225 196.877 16.2389C196.513 15.5934 195.992 15.1657 195.22 15.1133C194.509 15.0689 193.798 15.0366 193.091 14.9802C192.808 14.96 192.627 15.0689 192.437 15.2706C191.394 16.3721 190.384 17.5098 189.273 18.5386C187.605 20.0879 185.653 21.2619 183.694 22.5651C183.391 22.1374 183.023 21.7582 182.821 21.3063C182.356 20.2533 181.972 19.164 181.556 18.0908C181.152 17.0499 180.752 16.009 179.932 15.2061C179.827 15.1052 179.67 14.9923 179.54 14.9923C178.853 14.9923 178.167 15.0084 177.484 15.0568C176.878 15.1012 176.357 15.3715 176.021 15.8799C175.67 16.4164 175.367 16.9894 175.06 17.5542C175.007 17.651 175.007 17.7882 175.023 17.9052C175.108 18.462 175.193 19.0187 175.302 19.5715C175.694 21.5 176.098 23.4285 176.502 25.357C176.684 26.2204 176.49 26.9063 175.742 27.4671C173.759 28.9598 171.831 30.5373 169.836 32.014C167.589 33.6803 165.25 35.2093 162.66 36.3108C162.478 36.3874 162.28 36.456 162.086 36.456C159.989 36.4641 157.889 36.46 155.792 36.456C155.65 36.456 155.485 36.4358 155.371 36.3632C154.673 35.8871 153.961 35.4272 153.299 34.8987C151.933 33.8134 151.602 32.3408 151.8 30.6705C151.881 30.6866 151.949 30.6907 152.01 30.7108C153.755 31.2474 155.497 31.7961 157.242 32.3287C158.507 32.712 159.796 32.95 161.133 32.8693C162.288 32.8007 163.383 32.5022 164.462 32.1229C167.116 31.195 169.032 29.5045 170.106 26.8619C170.49 25.9178 170.664 25.0383 170.502 24.0014C169.912 20.2654 167.929 17.5905 164.506 16.0412C161.226 14.5565 157.933 14.7986 154.725 16.3277C150.976 18.111 148.37 21.0199 146.576 24.7074C145.772 26.3576 145.311 28.1207 144.802 29.8716C144.746 30.0693 144.657 30.2953 144.507 30.4163C142.976 31.663 141.449 32.9177 139.869 34.1039C139.178 34.6243 138.39 35.0278 137.619 35.4232C137.227 35.6249 136.73 35.6773 136.447 35.2497C136.156 34.814 135.817 34.3742 136.108 33.7488C140.035 25.2682 143.934 16.7755 147.881 8.30299C148.451 7.08052 148.778 5.88226 148.705 4.52665C148.628 3.12263 148.689 3.1186 147.481 2.36818C146.418 1.70651 145.594 1.70651 144.62 2.47711C143.853 3.08632 143.15 3.7722 142.431 4.43789C142.269 4.58717 142.136 4.78487 142.047 4.98659C141.041 7.23787 140.079 9.51335 139.037 11.7444C135.7 18.8856 132.326 26.0146 128.977 33.1517C128.855 33.4099 128.787 33.7085 128.754 33.9949C128.641 34.9673 128.548 35.9436 128.459 36.916C128.431 37.2226 128.35 37.5534 128.435 37.8318C128.985 39.5949 130.003 41.0231 131.566 42.0358C131.68 42.1084 131.841 42.1326 131.983 42.1326C133.894 42.1407 135.805 42.1407 137.716 42.1326C137.873 42.1326 138.043 42.1044 138.18 42.0358C139.194 41.5395 140.225 41.0756 141.206 40.5188C142.503 39.7845 143.772 39.0018 145.024 38.1949C145.756 37.7229 146.398 37.6825 147.045 38.3038C147.142 38.3966 147.259 38.4652 147.364 38.5499C148.463 39.4133 149.525 40.3251 150.669 41.1199C151.388 41.6202 152.188 42.0882 153.02 42.3222C156.006 43.1614 159.052 43.1574 162.094 42.6168C165.953 41.9309 169.383 40.2525 172.579 38.0497C174.26 36.8917 175.924 35.7096 177.617 34.5678C177.888 34.3863 178.259 34.3419 178.595 34.2572C178.849 34.1926 178.975 34.3258 179.051 34.5719C179.286 35.3142 179.532 36.0485 179.791 36.7828C180.469 38.6992 181.342 40.4986 182.898 41.8784C183.051 42.0116 183.29 42.1205 183.488 42.1245C185.653 42.1407 187.819 42.1367 189.984 42.1326C190.166 42.1326 190.364 42.1044 190.534 42.0398C191.322 41.7332 192.105 41.4185 192.885 41.0877C196.008 39.7684 198.808 37.8762 201.661 36.0808C202.723 35.4111 203.612 34.5678 204 33.3212C204 33.0791 204 32.837 204 32.595C203.757 31.6993 203.075 31.0981 202.424 30.4768ZM157.977 21.8994C159.299 21.4758 160.664 21.5807 162.018 21.5766C162.103 21.5766 162.208 21.617 162.264 21.6775C162.709 22.1616 163.193 22.6175 163.565 23.1541C164.337 24.2677 163.969 25.3489 162.62 25.8653C160.333 26.7408 158.167 26.41 156.143 25.0625C155.877 24.885 155.626 24.6752 155.371 24.4815C155.339 24.4573 155.315 24.425 155.275 24.3887C155.582 22.8919 156.701 22.3109 157.977 21.8994Z" fill="#FFE4B3"/>
<path d="M131.312 21.5646C131.449 21.5646 131.635 21.5485 131.72 21.4638C132.407 20.7456 133.118 20.0476 133.728 19.269C134.322 18.5105 134.253 17.6955 133.635 16.9451C133.336 16.586 132.989 16.2632 132.645 15.9445C131.663 15.0246 131.397 13.9272 131.881 12.6846C132.104 12.1157 132.374 11.5348 132.746 11.0587C133.732 9.80394 134.778 8.59357 135.817 7.38321C135.962 7.21376 136.196 7.09272 136.411 7.0201C137.352 6.70541 138.342 6.50368 139.239 6.10023C140.693 5.4426 141.841 4.48238 141.659 2.65069C141.643 2.48931 141.558 2.29162 141.437 2.18672C140.709 1.54926 139.958 0.940048 139.219 0.314694C139.109 0.2219 139.025 0.104898 138.928 0C138.819 0 138.714 0 138.604 0C138.289 0.0564836 137.974 0.129105 137.659 0.161382C135.772 0.346971 134.059 0.984428 132.512 2.08182C130.221 3.70371 128.435 5.7936 127.013 8.16995C125.789 10.2155 124.726 12.3578 123.607 14.4679C123.486 14.6938 123.357 14.8027 123.09 14.8189C121.199 14.948 119.308 15.0932 117.417 15.2425C117.24 15.2586 117.038 15.303 116.892 15.4039C116.201 15.8921 115.523 16.4004 114.852 16.9168C114.751 16.9935 114.658 17.1468 114.642 17.2719C114.549 18.0021 114.476 18.7364 114.411 19.4747C114.403 19.5796 114.432 19.737 114.504 19.7935C115.094 20.2332 115.68 20.6891 116.31 21.0684C116.916 21.4315 117.615 21.5404 118.318 21.5888C119.425 21.6615 119.68 22.0286 119.337 23.0493C118.456 25.6758 117.288 28.1772 115.927 30.5859C115.599 31.1668 115.147 31.6308 114.577 31.9979C112.048 33.6319 109.345 34.9028 106.501 35.8872C105.652 36.1818 104.78 36.4238 103.858 36.3512C103.345 36.3109 102.893 36.1616 102.699 35.6331C102.497 35.0763 102.481 34.6244 102.99 34.0999C105.838 31.191 108.63 28.2297 111.434 25.2764C111.959 24.7237 112.399 24.1104 112.448 23.3156C112.533 21.9398 112.601 20.56 112.662 19.1842C112.666 19.0793 112.605 18.9462 112.537 18.8615C112.169 18.4177 111.806 17.9658 111.406 17.5503C110.367 16.4811 109.074 15.8275 107.648 15.4644C106.961 15.2909 106.557 14.9843 106.59 14.2419C106.594 14.137 106.557 14.0321 106.545 13.9232C106.339 11.9947 105.446 10.5584 103.6 9.79587C103.466 9.74342 103.289 9.71518 103.159 9.75552C101.697 10.1953 100.646 11.1353 99.8666 12.4304C98.4767 14.7382 97.4788 17.2275 96.4364 19.6966C95.8708 21.0361 96.097 22.1416 97.0263 23.2591C97.5838 23.9289 98.101 24.2274 98.9899 24.2194C99.9393 24.2113 100.723 24.062 101.341 23.3156C101.458 23.1744 101.608 23.0493 101.766 22.9444C102.42 22.5047 103.071 22.0568 103.749 21.6574C104.032 21.492 104.404 21.4839 104.646 21.7583C104.881 22.0246 104.731 22.3393 104.557 22.5733C103.911 23.4286 103.317 24.3364 102.57 25.0948C100.246 27.447 97.8667 29.7386 95.5112 32.0585C95.3819 32.1876 95.2567 32.3409 95.188 32.5063C94.3315 34.5841 94.1173 36.7264 94.5617 38.9333C94.586 39.0624 94.6102 39.2117 94.691 39.3045C95.8021 40.5431 97.0909 41.5517 98.7151 42.0197C101.087 42.7056 103.507 42.6451 105.919 42.2981C107.858 42.0197 109.781 41.6082 111.713 41.2774C111.955 41.237 112.25 41.2855 112.472 41.3904C113.212 41.7373 113.931 42.1367 114.666 42.4999C114.811 42.5725 115.005 42.6169 115.159 42.5886C115.648 42.4958 116.137 42.399 116.605 42.2376C117.381 41.9713 118.056 41.5679 118.448 40.7811C119.231 39.2117 120.088 37.6745 120.844 36.089C123.094 31.3686 125.316 26.636 127.538 21.8995C127.659 21.6413 127.801 21.5485 128.084 21.5566C129.158 21.5767 130.237 21.5727 131.312 21.5646Z" fill="#FFE4B3"/>
<path d="M52.3857 29.428C50.8908 25.5831 49.3879 21.7382 47.9091 17.8852C47.7799 17.5503 47.7273 17.159 47.7556 16.7999C47.8768 15.061 48.0344 13.3221 48.1879 11.5873C48.2081 11.3532 48.1394 11.204 47.9657 11.0345C47.2223 10.3244 46.3294 10.034 45.3234 10.0299C44.0063 10.0218 42.9275 10.3769 42.2892 11.6962C41.4124 13.5077 40.3741 15.2385 39.5135 17.05C38.358 19.4828 37.2833 21.952 36.2086 24.4211C35.8773 25.1837 35.9137 25.9986 36.1722 26.7854C36.7783 28.613 38.8348 29.5692 40.4993 28.3629C41.1175 27.915 41.667 27.3784 42.2568 26.8943C42.5356 26.6643 42.8144 26.4263 43.1215 26.2447C43.5497 25.9906 43.7113 26.0349 43.9053 26.4868C44.1921 27.1485 44.4709 27.8222 44.685 28.5081C45.1779 30.1018 45.5577 31.7196 45.4608 33.4061C45.4527 33.5473 45.4406 33.7167 45.3557 33.8135C44.2608 35.1006 43.0689 36.2504 41.2872 36.4965C41.1175 36.5207 40.9114 36.5086 40.7579 36.436C40.1802 36.1536 39.6064 35.855 39.0529 35.5242C38.863 35.4112 38.6853 35.2176 38.5843 35.0199C38.0388 33.9144 37.554 32.7767 36.9762 31.6914C36.4106 30.6222 35.4854 30.0251 34.2572 29.9404C33.841 29.9121 33.4208 29.9323 33.0087 29.8758C32.1805 29.7709 31.5381 30.0695 30.8714 30.5536C29.0372 31.8891 27.1544 33.1599 25.2717 34.4268C24.3626 35.04 23.3364 35.2619 22.197 35.1086C22.189 35.0199 22.1809 34.9553 22.1768 34.8908C22.1162 33.979 22.5122 33.1842 22.8677 32.3974C23.8737 30.1744 24.9282 27.9756 25.9585 25.7646C26.0312 25.6113 26.1201 25.4378 26.1201 25.2765C26.1161 24.4978 26.1242 23.7191 26.0555 22.9445C25.9625 21.9036 25.4777 21.3589 24.4434 21.254C23.3243 21.141 22.189 21.1531 21.0617 21.1289C20.9648 21.1249 20.8355 21.2177 20.7749 21.3024C20.189 22.1174 19.5305 22.9001 19.0497 23.7756C17.979 25.7243 16.9892 27.7214 15.9831 29.7064C15.0902 31.4654 13.963 33.0268 12.3429 34.1968C11.5106 34.798 10.6621 35.3628 9.60359 35.4879C8.73898 35.5887 8.06426 35.1651 7.80568 34.338C7.72488 34.0718 7.66428 33.7853 7.66832 33.5109C7.6764 32.0262 8.08446 30.6464 8.93695 29.428C10.5126 27.1808 12.4398 25.2563 14.5367 23.4972C15.3933 22.7791 16.3023 22.1295 17.3447 21.7059C18.4396 21.2621 19.5224 20.782 20.6456 20.4148C22.6455 19.7572 24.6575 19.1238 26.6898 18.5831C27.4736 18.3734 28.1928 18.1151 28.8392 17.6431C30.1765 16.6708 30.2452 16.5215 30.0189 14.8915C29.8816 13.9071 29.3967 13.1405 28.4715 12.7411C27.8817 12.487 27.2554 12.3215 26.6373 12.1521C26.3746 12.0835 26.0797 12.0633 25.809 12.1077C24.9444 12.2408 24.0838 12.3901 23.2313 12.5676C17.8093 13.6691 12.856 15.8477 8.52889 19.2852C6.73906 20.7093 5.16336 22.4079 3.49474 23.9854C3.40182 24.0742 3.33717 24.2033 3.28061 24.3203C2.23015 26.4465 1.17564 28.5727 0.129221 30.7029C0.0484159 30.8643 0.00801349 31.0579 0.00801349 31.2395C-6.6997e-05 33.2527 -6.6997e-05 35.266 0.00801349 37.2792C0.00801349 37.4527 0.0686171 37.6504 0.157503 37.7997C0.743338 38.7639 1.33725 39.7201 1.94329 40.6682C2.05238 40.8377 2.22611 40.991 2.40792 41.0797C3.39778 41.5599 4.39572 42.0279 5.3977 42.4838C5.58355 42.5685 5.8098 42.6169 6.01586 42.6048C7.6966 42.516 9.3733 42.399 11.05 42.3143C11.4419 42.2941 11.7692 42.1731 12.1005 41.9795C12.9247 41.5034 13.757 41.0354 14.6095 40.6158C15.1306 40.3576 15.668 40.4423 16.1205 40.8256C16.6215 41.2492 17.0942 41.7132 17.6033 42.1287C17.7608 42.2578 17.9992 42.3627 18.2012 42.3627C20.084 42.3789 21.9667 42.3708 23.8495 42.3587C24.0394 42.3587 24.2495 42.3062 24.4192 42.2175C25.4656 41.697 26.4959 41.1443 27.5423 40.6279C28.7584 40.0267 29.9907 39.4619 31.2068 38.8648C31.6431 38.651 32.0391 38.6429 32.4431 38.9334C32.8916 39.2521 33.3764 39.5224 33.8168 39.8532C35.542 41.1564 37.4207 42.1368 39.5539 42.5846C39.8489 42.6451 40.164 42.6694 40.467 42.6492C41.2185 42.6008 41.974 42.5524 42.7134 42.4313C43.7962 42.2538 44.8951 42.0924 45.9415 41.7777C47.3193 41.3662 48.3495 40.4019 49.3111 39.3691C50.4181 38.1789 51.3474 36.8879 51.9211 35.3467C52.6039 33.5029 52.4585 31.5945 52.4585 29.6943C52.4665 29.6055 52.4221 29.5127 52.3857 29.428Z" fill="#FFE4B3"/>
<path d="M98.2425 49.6692C98.1536 49.758 98.0971 49.879 98.0244 49.988C97.988 49.9638 97.9516 49.9355 97.9193 49.9113C97.9193 49.6894 97.9193 49.4675 97.9193 49.2254C97.2486 49.2254 96.6062 49.2254 95.9355 49.2254C95.9355 51.8358 95.9355 54.4179 95.9355 57C96.6588 57 97.3537 57 98.085 57C98.085 56.5562 98.085 56.1285 98.085 55.7009C98.085 55.2772 98.085 54.8536 98.085 54.3735C98.2466 54.4865 98.3516 54.5672 98.4607 54.6358C99.5718 55.366 101.147 55.015 101.729 53.8248C102.38 52.4894 102.315 51.1297 101.463 49.8871C100.727 48.83 99.1475 48.7494 98.2425 49.6692ZM99.8061 52.8485C99.6889 53.1753 99.4384 53.377 99.0829 53.3931C98.695 53.4133 98.392 53.2358 98.2425 52.8888C98.1254 52.6144 98.093 52.3038 98.0244 52.0335C98.093 51.7309 98.1173 51.4606 98.2142 51.2185C98.3516 50.8675 98.6344 50.6658 99.0223 50.6658C99.4182 50.6658 99.6809 50.8917 99.8101 51.2427C100.008 51.7712 100 52.3159 99.8061 52.8485Z" fill="#FFE4B3"/>
<path d="M118.343 49.0882C117.575 48.9389 116.888 49.1447 116.242 49.6934C116.242 48.7655 116.242 47.9142 116.242 47.0548C115.502 47.0548 114.799 47.0548 114.092 47.0548C114.092 49.6611 114.092 52.2392 114.092 54.8415C114.44 54.8415 114.759 54.8415 115.082 54.8415C115.413 54.8415 115.741 54.8415 116.088 54.8415C116.088 54.5712 116.088 54.3573 116.088 54.1435C116.12 54.1233 116.157 54.1032 116.189 54.083C116.213 54.1314 116.23 54.1838 116.262 54.2282C117.094 55.3861 119.3 55.3619 120.003 53.5181C120.266 52.8282 120.347 52.1101 120.254 51.3839C120.08 50.0848 119.421 49.298 118.343 49.0882ZM117.967 52.8C117.91 53.1631 117.595 53.381 117.203 53.3931C116.815 53.4052 116.525 53.2075 116.387 52.8565C116.286 52.5862 116.254 52.2916 116.185 51.981C116.258 51.7026 116.294 51.4081 116.415 51.1458C116.573 50.8029 116.884 50.6334 117.268 50.6617C117.644 50.6899 117.939 50.9199 117.983 51.2628C118.048 51.7712 118.044 52.2957 117.967 52.8Z" fill="#FFE4B3"/>
<path d="M64.4983 51.1137C64.4821 50.0485 63.9731 49.3748 62.9751 49.1771C61.9368 48.9713 60.8863 48.9592 59.8561 49.2215C59.0924 49.4151 58.6036 49.8993 58.4662 50.7344C59.1854 50.8151 59.8924 50.8958 60.5873 50.9765C60.9308 50.4238 61.3752 50.222 61.9045 50.3592C62.1792 50.4318 62.3287 50.6295 62.3004 50.8877C62.2883 51.0007 62.1024 51.1298 61.9691 51.1903C61.7509 51.2871 61.5085 51.3356 61.2742 51.3961C60.6237 51.5575 59.9571 51.6704 59.3268 51.8843C58.4541 52.1788 58.0824 53.0422 58.3773 53.9015C58.6036 54.5551 59.2419 54.9666 60.0944 55.007C60.9712 55.0473 61.7711 54.8577 62.3529 54.2888C62.5428 54.4946 62.6923 54.8093 62.8701 54.8254C63.4802 54.89 64.0983 54.8496 64.672 54.8496C64.6155 54.3937 64.5266 53.9661 64.5145 53.5303C64.4821 52.7234 64.5104 51.9165 64.4983 51.1137ZM61.1893 53.7966C60.85 53.8087 60.5631 53.7079 60.4823 53.3407C60.4096 52.9978 60.5995 52.7719 60.9106 52.6589C61.3631 52.4975 61.8237 52.3563 62.2842 52.203C62.4135 53.1632 61.9893 53.7684 61.1893 53.7966Z" fill="#FFE4B3"/>
<path d="M89.2813 51.1137C89.2651 50.0485 88.756 49.3748 87.7581 49.1771C86.7197 48.9713 85.6693 48.9592 84.639 49.2215C83.8754 49.4151 83.3865 49.8993 83.2492 50.7344C83.9683 50.8151 84.6754 50.8958 85.3703 50.9765C85.7137 50.4238 86.1581 50.222 86.6874 50.3592C86.9622 50.4318 87.1116 50.6295 87.0834 50.8877C87.0712 51.0007 86.8854 51.1298 86.7521 51.1903C86.5339 51.2871 86.2915 51.3356 86.0571 51.3961C85.4067 51.5575 84.74 51.6704 84.1097 51.8843C83.237 52.1788 82.8653 53.0422 83.1603 53.9015C83.3865 54.5551 84.0249 54.9666 84.8774 55.007C85.7541 55.0473 86.5541 54.8577 87.1359 54.2888C87.3258 54.4946 87.4753 54.8093 87.653 54.8254C88.2631 54.89 88.8813 54.8496 89.455 54.8496C89.3984 54.3937 89.3095 53.9661 89.2974 53.5303C89.2651 52.7234 89.2934 51.9165 89.2813 51.1137ZM86.146 53.7805C85.7218 53.8652 85.3743 53.7119 85.2733 53.3972C85.1683 53.0745 85.3541 52.7719 85.7864 52.6145C86.2026 52.4652 86.6268 52.3482 87.0793 52.207C87.152 53.1471 86.8531 53.6393 86.146 53.7805Z" fill="#FFE4B3"/>
<path d="M109.139 51.1137C109.123 50.0485 108.614 49.3748 107.616 49.1771C106.577 48.9713 105.527 48.9592 104.497 49.2215C103.733 49.4151 103.244 49.8993 103.107 50.7344C103.826 50.8151 104.533 50.8958 105.228 50.9765C105.571 50.4238 106.016 50.222 106.545 50.3592C106.82 50.4318 106.969 50.6295 106.941 50.8877C106.929 51.0007 106.743 51.1298 106.61 51.1903C106.392 51.2871 106.149 51.3356 105.915 51.3961C105.264 51.5575 104.598 51.6704 103.967 51.8843C103.095 52.1788 102.723 53.0422 103.018 53.9015C103.244 54.5551 103.883 54.9666 104.735 55.007C105.612 55.0473 106.412 54.8577 106.994 54.2888C107.183 54.4946 107.333 54.8093 107.511 54.8254C108.121 54.89 108.739 54.8496 109.313 54.8496C109.256 54.3937 109.167 53.9661 109.155 53.5303C109.123 52.7234 109.151 51.9165 109.139 51.1137ZM106.008 53.7765C105.584 53.8612 105.236 53.7079 105.131 53.3972C105.026 53.0745 105.208 52.7719 105.644 52.6145C106.06 52.4652 106.484 52.3482 106.937 52.207C107.014 53.143 106.715 53.6352 106.008 53.7765Z" fill="#FFE4B3"/>
<path d="M149.097 51.0692C149.069 50.0323 148.556 49.3707 147.57 49.177C146.532 48.9753 145.481 48.9592 144.451 49.2254C143.687 49.4191 143.202 49.9073 143.065 50.7384C143.792 50.8191 144.495 50.8998 145.19 50.9805C145.526 50.4237 145.978 50.222 146.507 50.3632C146.782 50.4358 146.928 50.6375 146.899 50.8957C146.887 51.0087 146.693 51.1217 146.56 51.1983C146.435 51.2709 146.281 51.2992 146.14 51.3315C145.449 51.4969 144.746 51.626 144.067 51.8317C143.223 52.0859 142.843 52.6588 142.887 53.4778C142.932 54.2162 143.453 54.7931 144.261 54.9424C145.275 55.132 146.212 54.9706 146.944 54.2928C147.138 54.5026 147.287 54.8092 147.469 54.8294C148.075 54.894 148.697 54.8536 149.222 54.8536C149.178 54.192 149.125 53.5585 149.101 52.9251C149.089 52.3038 149.117 51.6825 149.097 51.0692ZM145.994 53.7724C145.554 53.8692 145.186 53.7118 145.089 53.385C144.992 53.0623 145.182 52.7678 145.618 52.6104C146.035 52.4611 146.459 52.3441 146.903 52.207C146.96 53.1551 146.681 53.619 145.994 53.7724Z" fill="#FFE4B3"/>
<path d="M125.122 51.9286C125.118 52.1828 125.094 52.441 125.033 52.6831C124.928 53.1067 124.573 53.3447 124.169 53.3084C123.789 53.2721 123.555 53.022 123.526 52.558C123.498 52.1424 123.514 51.7269 123.514 51.3113C123.514 50.6174 123.514 49.9275 123.514 49.2335C122.763 49.2335 122.056 49.2335 121.345 49.2335C121.345 50.5649 121.312 51.864 121.357 53.1632C121.393 54.2243 121.963 54.8577 122.9 54.9787C123.688 55.0796 124.395 54.898 124.965 54.3049C125.05 54.2162 125.138 54.1355 125.3 53.9781C125.3 54.3332 125.3 54.5712 125.3 54.8214C125.971 54.8214 126.613 54.8214 127.288 54.8214C127.288 52.9332 127.288 51.0773 127.288 49.2335C126.557 49.2335 125.849 49.2335 125.138 49.2335C125.126 50.1615 125.134 51.045 125.122 51.9286Z" fill="#FFE4B3"/>
<path d="M139.437 49.0843C138.811 49.1972 138.358 49.5684 137.885 50.0848C137.885 49.7379 137.885 49.4877 137.885 49.2295C137.198 49.2295 136.548 49.2295 135.881 49.2295C135.881 51.0975 135.881 52.9453 135.881 54.8133C136.625 54.8133 137.328 54.8133 138.043 54.8133C138.043 53.8813 138.035 52.9857 138.047 52.086C138.051 51.8076 138.087 51.5211 138.176 51.2589C138.297 50.8837 138.604 50.7183 138.996 50.7465C139.396 50.7747 139.586 51.041 139.635 51.4082C139.663 51.618 139.655 51.8358 139.659 52.0496C139.663 52.9695 139.659 53.8934 139.659 54.8173C140.406 54.8173 141.113 54.8173 141.829 54.8173C141.829 53.49 141.873 52.1909 141.816 50.8917C141.756 49.5321 140.79 48.8462 139.437 49.0843Z" fill="#FFE4B3"/>
<path d="M132.621 49.1771C132.156 49.0722 131.659 49.0399 131.182 49.0722C129.861 49.1569 128.875 49.9113 128.508 51.0491C127.829 53.1511 129.255 55.0029 131.558 55.0271C131.837 54.9949 132.12 54.9747 132.399 54.9303C133.801 54.6963 134.762 53.5989 134.811 52.1747C134.863 50.6456 134.047 49.4998 132.621 49.1771ZM132.427 53.0341C132.273 53.373 131.97 53.5586 131.582 53.5545C131.174 53.5545 130.871 53.3488 130.726 52.9937C130.597 52.679 130.56 52.328 130.475 51.977C130.56 51.6543 130.609 51.3315 130.738 51.0451C130.896 50.69 131.203 50.4964 131.607 50.5004C131.999 50.5044 132.285 50.7061 132.435 51.0451C132.73 51.7027 132.726 52.3805 132.427 53.0341Z" fill="#FFE4B3"/>
<path d="M73.9566 51.5615C73.6536 51.4284 73.3182 51.3638 72.9869 51.2992C72.5021 51.2024 72.0051 51.15 71.5203 51.041C71.3991 51.0128 71.2213 50.8272 71.2254 50.7223C71.2294 50.5892 71.3668 50.4076 71.4961 50.339C71.8637 50.1413 72.4294 50.2745 72.7243 50.565C72.8051 50.6457 72.9425 50.7223 73.0475 50.7183C73.6253 50.686 74.199 50.6255 74.8171 50.573C74.5424 49.8468 74.1141 49.3546 73.399 49.1892C72.4576 48.9713 71.5001 48.9673 70.5668 49.2295C69.7345 49.4635 69.2497 50.097 69.2618 50.8595C69.2739 51.6139 69.779 52.2191 70.6274 52.433C71.2658 52.5943 71.9203 52.6871 72.5506 52.8606C72.7162 52.905 72.9384 53.1309 72.9384 53.2762C72.9384 53.4295 72.7364 53.6473 72.5708 53.72C72.0092 53.9741 71.5769 53.7644 71.1526 53.0825C70.4577 53.1632 69.7547 53.2439 69.0234 53.3246C69.2295 54.1436 69.7103 54.7004 70.5022 54.8254C71.29 54.9505 72.1061 54.9787 72.9021 54.9303C73.3586 54.9021 73.8556 54.7084 74.2394 54.4502C75.3787 53.6837 75.205 52.1062 73.9566 51.5615Z" fill="#FFE4B3"/>
<path d="M80.1098 52.9574C79.8997 53.4133 79.5038 53.5868 79.0189 53.5465C78.5381 53.5061 78.2028 53.2278 78.0937 52.7759C78.0048 52.4208 77.9806 52.0295 78.0169 51.6664C78.0856 51.0128 78.4492 50.6134 78.9664 50.5125C79.524 50.4036 79.9118 50.6053 80.2876 51.2145C80.9259 51.1338 81.5764 51.0572 82.2511 50.9724C81.9602 50.0566 81.4067 49.403 80.4936 49.2295C79.7664 49.0923 78.9947 49.056 78.2594 49.1287C76.8938 49.2658 76.0413 50.1696 75.8312 51.5252C75.5726 53.2076 76.4008 54.5511 77.9644 54.8698C78.5624 54.9908 79.1967 55.0231 79.8027 54.9626C81.1724 54.8335 82.0087 54.1154 82.3117 52.909C81.738 52.8404 81.1643 52.792 80.5946 52.6992C80.3401 52.6629 80.2189 52.7194 80.1098 52.9574Z" fill="#FFE4B3"/>
<path d="M54.9956 54.8295C55.7107 54.8295 56.4057 54.8295 57.1248 54.8295C57.1248 52.2151 57.1248 49.637 57.1248 47.067C56.3935 47.067 55.6905 47.067 54.9956 47.067C54.9956 49.6693 54.9956 52.2393 54.9956 54.8295Z" fill="#FFE4B3"/>
<path d="M92.5861 49.9154C92.5861 49.6935 92.5861 49.4676 92.5861 49.2336C91.9074 49.2336 91.2569 49.2336 90.5902 49.2336C90.5862 49.3183 90.5781 49.3828 90.5781 49.4474C90.5781 51.2266 90.5781 53.0099 90.5781 54.8214C91.3296 54.8214 92.0326 54.8214 92.7599 54.8214C92.7599 54.0831 92.7316 53.373 92.7679 52.6669C92.7922 52.203 92.8649 51.7309 93.0023 51.2912C93.1558 50.803 93.5315 50.6577 94.0325 50.7909C94.1335 50.8191 94.2305 50.8474 94.3557 50.8796C94.578 50.3753 94.7881 49.8912 95.0143 49.3788C94.0245 48.8261 93.2204 48.9189 92.5861 49.9154Z" fill="#FFE4B3"/>
<path d="M94.9457 26.8499C95.0871 25.1675 95.0547 23.4729 95.0951 21.7825C95.0992 21.6816 95.0588 21.5727 95.0184 21.4758C94.6386 20.6044 94.2911 19.7128 93.8629 18.8655C93.1518 17.4615 92.1215 16.3641 90.659 15.6984C89.5317 15.186 88.3399 15.0408 87.1237 15.0085C85.0834 14.952 83.1118 15.2506 81.3785 16.4004C78.2352 18.4822 75.807 21.2176 74.0293 24.5381C73.096 26.285 72.4819 28.157 71.8476 30.025C71.7829 30.2187 71.6173 30.4204 71.4436 30.5253C70.086 31.3403 68.7285 32.1674 67.3427 32.9299C65.767 33.7973 64.1671 34.6163 62.5591 35.4273C61.65 35.8872 60.8581 35.3022 60.9753 34.2694C61.0359 33.7207 61.1813 33.1518 61.4157 32.6515C62.7934 29.7144 64.1913 26.7853 65.6175 23.8724C65.961 23.1663 66.4417 22.5248 66.8538 21.8551C66.9953 21.6251 67.1932 21.5606 67.4639 21.5646C69.3467 21.5767 71.2294 21.5767 73.1162 21.5646C73.3021 21.5646 73.5202 21.5041 73.6657 21.3952C74.3041 20.9231 74.9263 20.4349 75.5363 19.9266C75.6616 19.8257 75.7666 19.624 75.7707 19.4666C75.7868 18.9986 75.7747 18.5266 75.7262 18.0586C75.6171 16.9773 75.0798 16.1946 74.0334 15.8194C73.694 15.6984 73.3344 15.6298 72.9829 15.5451C72.1385 15.3393 71.2941 15.1416 70.4295 14.9359C70.4618 14.7462 70.4779 14.6131 70.5022 14.484C70.8133 12.7128 71.1284 10.9457 71.4193 9.17453C71.4516 8.98491 71.3628 8.7267 71.2416 8.56935C70.89 8.12959 70.5022 7.71806 70.1062 7.31461C69.9972 7.20568 69.8153 7.11288 69.6659 7.10885C68.874 7.08867 68.078 7.09271 67.2861 7.10481C67.1569 7.10885 66.9831 7.16533 66.9023 7.25813C66.3407 7.90769 65.6943 8.50883 65.266 9.23908C64.3166 10.869 63.4802 12.5676 62.5873 14.2338C62.5106 14.3751 62.3934 14.5606 62.2601 14.5929C61.1005 14.8794 59.945 15.2021 58.7653 15.3716C57.8805 15.4967 57.0967 15.7549 56.3977 16.2874C55.7957 16.7474 55.2422 17.2557 54.9553 17.986C54.6442 18.7687 54.9068 19.7934 55.7189 20.4349C56.3411 20.9272 57.0724 21.2862 57.7754 21.6776C58.737 22.2142 58.7774 22.2545 58.3128 23.247C56.6845 26.7329 55.0361 30.2106 53.3998 33.6924C53.315 33.87 53.2301 34.0636 53.2099 34.2573C53.113 35.274 53.0928 36.2988 52.9352 37.3034C52.7978 38.1789 52.9958 38.9172 53.4281 39.6676C53.9735 40.6117 54.6402 41.4226 55.6139 41.9108C56.2361 42.2255 56.8219 42.6572 57.5976 42.6007C59.436 42.4676 61.2743 42.3667 63.1126 42.2497C63.2823 42.2376 63.4681 42.2174 63.6176 42.1367C66.1872 40.7932 68.7568 39.4457 71.3143 38.078C71.6658 37.8924 71.9728 37.8601 72.292 38.0699C72.5061 38.2071 72.7243 38.3523 72.898 38.5339C73.8273 39.5062 74.7364 40.4947 75.6656 41.463C75.803 41.6082 76.005 41.7292 76.1949 41.7857C77.1767 42.0681 78.1625 42.3385 79.1483 42.5886C79.4028 42.6532 79.6776 42.6693 79.9402 42.6451C80.9058 42.5604 81.8674 42.4555 82.829 42.3506C83.7784 42.2457 84.7521 42.2739 85.54 41.5437C86.0086 41.112 86.6066 40.8174 87.1116 40.418C88.057 39.6676 89.0307 38.9414 89.8954 38.1062C91.0791 36.9645 91.8226 35.504 92.566 34.0555C93.7417 31.7801 94.7315 29.4279 94.9457 26.8499ZM88.1419 24.5461C87.6409 27.0516 86.9419 29.4884 85.7339 31.7599C84.9945 33.1518 84.037 34.3622 82.9057 35.4475C82.8128 35.5362 82.6512 35.5806 82.5138 35.5887C82.1785 35.6088 81.8432 35.5967 81.3381 35.5967C80.4614 35.8953 79.9927 35.3385 79.5564 34.4711C79.2412 33.8458 79.2736 33.289 79.3584 32.6677C79.7301 29.9 80.619 27.3098 81.9886 24.8689C82.7037 23.594 83.7299 22.5975 84.7804 21.613C84.8612 21.5364 85.0228 21.5081 85.14 21.5202C85.6733 21.5807 86.2066 21.6534 86.7359 21.7502C86.8571 21.7704 87.0106 21.8712 87.0631 21.9802C87.4268 22.6983 87.7702 23.4245 88.1055 24.1548C88.154 24.2718 88.1661 24.4211 88.1419 24.5461Z" fill="#FFE4B3"/>
</g>
<defs>
<clipPath id="clip0_6_363">
<rect width="204" height="57" fill="white"/>
</clipPath>
</defs>
</svg>
