<svg width="50" height="50" viewBox="0 0 50 50" fill="none" xmlns="http://www.w3.org/2000/svg">
<rect width="50" height="50" rx="25" fill="#5F3300"/>
<path d="M20.6951 12.026C22.1203 11.8405 23.318 12.6702 23.8851 13.7485L25.2798 16.402C26.0536 17.8744 25.609 19.6021 24.4362 20.689C23.7433 21.3305 23.0469 22.0634 22.6431 22.7102C22.6164 22.7563 22.608 22.81 22.6196 22.8615C22.993 24.7866 24.3643 26.6887 25.5876 28.0526C25.6491 28.1176 25.7294 28.164 25.8184 28.1858C25.9074 28.2077 26.0013 28.2042 26.0882 28.1756L28.837 27.3585C29.5774 27.1383 30.3725 27.1495 31.1057 27.3906C31.8389 27.6317 32.4717 28.0899 32.9113 28.698L34.9008 31.4508C35.4402 32.1982 35.7133 33.2114 35.2998 34.1858C34.9305 35.0563 34.2162 36.3116 32.9168 37.1465C31.5684 38.0124 29.7214 38.3413 27.3046 37.5531C24.6042 36.6715 22.0533 34.4608 19.9379 31.6337C17.8102 28.7888 16.0586 25.2353 14.9964 21.5299C13.993 18.031 14.5988 15.6756 16.0247 14.1591C17.4001 12.6958 19.3709 12.1991 20.6951 12.026ZM22.3388 14.4841C22.0228 13.8834 21.4592 13.5867 20.9302 13.6557C19.754 13.8097 18.2811 14.2262 17.3137 15.2558C16.3967 16.2315 15.7619 17.9501 16.6636 21.0969C17.6767 24.6287 19.3446 28.0039 21.3465 30.6797C23.3609 33.3726 25.6498 35.2741 27.8654 35.9971C29.8396 36.6412 31.1086 36.3228 31.9494 35.7833C32.8387 35.2115 33.3857 34.3029 33.6969 33.57C33.8393 33.2345 33.7778 32.8002 33.4763 32.3831L31.4868 29.6303C31.2566 29.3117 30.9252 29.0717 30.5412 28.9453C30.1571 28.819 29.7407 28.813 29.3528 28.9283L26.6041 29.7455C25.7826 29.9895 24.8573 29.7718 24.273 29.1204C22.9999 27.7013 21.3776 25.5248 20.9192 23.1596C20.8315 22.7163 20.9161 22.2578 21.1571 21.8694C21.6812 21.0312 22.511 20.1765 23.2295 19.5107C23.9314 18.8606 24.1305 17.8935 23.7336 17.1375L22.3388 14.4841Z" fill="#FFE4B3"/>
</svg>
