<svg width="204" height="57" viewBox="0 0 204 57" fill="none" xmlns="http://www.w3.org/2000/svg">
<g clip-path="url(#clip0_1187_12)">
<path d="M202.424 30.4769C202.331 30.3882 202.162 30.3519 202.024 30.3478C201.273 30.3357 200.517 30.3317 199.766 30.3478C199.6 30.3519 199.414 30.4003 199.281 30.4931C196.376 32.4579 193.237 33.9789 190.037 35.391C189.653 35.5604 189.289 35.6452 188.873 35.5927C188.271 35.5161 187.669 35.4636 187.067 35.4192C186.792 35.3991 186.651 35.2901 186.566 35.0117C186.134 33.5876 185.71 32.1593 185.213 30.7593C185.007 30.1864 185.193 29.8193 185.54 29.436C185.576 29.3957 185.617 29.3594 185.657 29.3271C186.267 28.8671 186.861 28.379 187.495 27.9513C189.265 26.7571 191.071 25.6153 192.825 24.3928C194.271 23.3842 195.62 22.2505 196.699 20.8344C197.099 20.3099 197.471 19.7652 197.552 19.0834C197.673 18.0546 197.374 17.1226 196.877 16.239C196.513 15.5935 195.992 15.1658 195.22 15.1134C194.509 15.069 193.798 15.0367 193.091 14.9803C192.808 14.9601 192.627 15.069 192.437 15.2707C191.394 16.3722 190.384 17.5099 189.273 18.5387C187.605 20.088 185.653 21.262 183.694 22.5652C183.391 22.1375 183.023 21.7583 182.821 21.3064C182.356 20.2534 181.972 19.1641 181.556 18.0909C181.152 17.05 180.752 16.0091 179.932 15.2062C179.827 15.1053 179.67 14.9924 179.54 14.9924C178.853 14.9924 178.167 15.0085 177.484 15.0569C176.878 15.1013 176.357 15.3716 176.021 15.88C175.67 16.4165 175.367 16.9895 175.06 17.5543C175.007 17.6511 175.007 17.7883 175.023 17.9053C175.108 18.4621 175.193 19.0188 175.302 19.5716C175.694 21.5001 176.098 23.4286 176.502 25.3571C176.684 26.2205 176.49 26.9064 175.742 27.4672C173.759 28.9599 171.831 30.5374 169.836 32.0141C167.589 33.6804 165.25 35.2094 162.66 36.3109C162.478 36.3875 162.28 36.4561 162.086 36.4561C159.989 36.4642 157.889 36.4602 155.792 36.4561C155.65 36.4561 155.485 36.4359 155.371 36.3633C154.673 35.8872 153.961 35.4273 153.299 34.8988C151.933 33.8135 151.602 32.3409 151.8 30.6706C151.881 30.6867 151.949 30.6908 152.01 30.7109C153.755 31.2475 155.497 31.7962 157.242 32.3288C158.507 32.7121 159.796 32.9501 161.133 32.8694C162.288 32.8008 163.383 32.5023 164.462 32.123C167.116 31.1951 169.032 29.5046 170.106 26.862C170.49 25.9179 170.664 25.0384 170.502 24.0015C169.912 20.2655 167.929 17.5906 164.506 16.0413C161.226 14.5566 157.933 14.7987 154.725 16.3278C150.976 18.1111 148.37 21.02 146.576 24.7075C145.772 26.3577 145.311 28.1208 144.802 29.8717C144.746 30.0694 144.657 30.2954 144.507 30.4164C142.976 31.6631 141.449 32.9178 139.869 34.104C139.178 34.6244 138.39 35.0279 137.619 35.4233C137.227 35.625 136.73 35.6775 136.447 35.2498C136.156 34.8141 135.817 34.3743 136.108 33.7489C140.035 25.2683 143.934 16.7756 147.881 8.30309C148.451 7.08062 148.778 5.88236 148.705 4.52676C148.628 3.12274 148.689 3.1187 147.481 2.36828C146.418 1.70661 145.594 1.70661 144.62 2.47721C143.853 3.08642 143.15 3.7723 142.431 4.438C142.269 4.58727 142.136 4.78497 142.047 4.98669C141.041 7.23797 140.079 9.51345 139.037 11.7446C135.7 18.8857 132.326 26.0147 128.977 33.1518C128.855 33.41 128.787 33.7086 128.754 33.995C128.641 34.9674 128.548 35.9437 128.459 36.9161C128.431 37.2227 128.35 37.5535 128.435 37.8319C128.985 39.595 130.003 41.0232 131.566 42.0359C131.68 42.1085 131.841 42.1327 131.983 42.1327C133.894 42.1408 135.805 42.1408 137.716 42.1327C137.873 42.1327 138.043 42.1045 138.18 42.0359C139.194 41.5396 140.225 41.0757 141.206 40.5189C142.503 39.7846 143.772 39.0019 145.024 38.195C145.756 37.723 146.398 37.6826 147.045 38.3039C147.142 38.3967 147.259 38.4653 147.364 38.55C148.463 39.4134 149.525 40.3252 150.669 41.12C151.388 41.6203 152.188 42.0883 153.02 42.3223C156.006 43.1615 159.052 43.1575 162.094 42.6169C165.953 41.931 169.383 40.2526 172.579 38.0498C174.26 36.8918 175.924 35.7097 177.617 34.568C177.888 34.3864 178.259 34.342 178.595 34.2573C178.849 34.1927 178.975 34.3259 179.051 34.572C179.286 35.3143 179.532 36.0486 179.791 36.7829C180.469 38.6993 181.342 40.4987 182.898 41.8785C183.051 42.0117 183.29 42.1206 183.488 42.1246C185.653 42.1408 187.819 42.1367 189.984 42.1327C190.166 42.1327 190.364 42.1045 190.534 42.0399C191.322 41.7333 192.105 41.4186 192.885 41.0878C196.008 39.7685 198.808 37.8763 201.661 36.0809C202.723 35.4112 203.612 34.5679 204 33.3213C204 33.0792 204 32.8371 204 32.5951C203.757 31.6994 203.075 31.0982 202.424 30.4769ZM157.977 21.8995C159.299 21.4759 160.664 21.5808 162.018 21.5767C162.103 21.5767 162.208 21.6171 162.264 21.6776C162.709 22.1617 163.193 22.6176 163.565 23.1542C164.337 24.2678 163.969 25.349 162.62 25.8654C160.333 26.7409 158.167 26.4101 156.143 25.0626C155.877 24.8851 155.626 24.6753 155.371 24.4816C155.339 24.4574 155.315 24.4251 155.275 24.3888C155.582 22.892 156.701 22.311 157.977 21.8995Z" fill="#131313"/>
<path d="M131.312 21.5646C131.449 21.5646 131.635 21.5485 131.72 21.4638C132.406 20.7456 133.118 20.0476 133.728 19.269C134.322 18.5105 134.253 17.6955 133.635 16.9451C133.336 16.586 132.988 16.2632 132.645 15.9445C131.663 15.0246 131.396 13.9272 131.881 12.6846C132.103 12.1157 132.374 11.5348 132.746 11.0587C133.732 9.80394 134.778 8.59357 135.816 7.38321C135.962 7.21376 136.196 7.09272 136.41 7.0201C137.352 6.70541 138.342 6.50368 139.239 6.10023C140.693 5.4426 141.84 4.48238 141.659 2.65069C141.642 2.48931 141.558 2.29162 141.436 2.18672C140.709 1.54926 139.958 0.940048 139.218 0.314694C139.109 0.2219 139.024 0.104898 138.927 0C138.818 0 138.713 0 138.604 0C138.289 0.0564836 137.974 0.129105 137.659 0.161382C135.772 0.346971 134.059 0.984428 132.512 2.08182C130.221 3.70371 128.435 5.7936 127.013 8.16995C125.789 10.2155 124.726 12.3578 123.607 14.4679C123.486 14.6938 123.356 14.8027 123.09 14.8189C121.199 14.948 119.308 15.0932 117.417 15.2425C117.239 15.2586 117.037 15.303 116.892 15.4039C116.201 15.8921 115.522 16.4004 114.852 16.9168C114.751 16.9935 114.658 17.1468 114.642 17.2719C114.549 18.0021 114.476 18.7364 114.411 19.4747C114.403 19.5796 114.431 19.737 114.504 19.7935C115.094 20.2332 115.68 20.6891 116.31 21.0684C116.916 21.4315 117.615 21.5404 118.318 21.5888C119.425 21.6615 119.68 22.0286 119.336 23.0493C118.456 25.6758 117.288 28.1772 115.926 30.5859C115.599 31.1668 115.147 31.6308 114.577 31.9979C112.048 33.6319 109.345 34.9028 106.5 35.8872C105.652 36.1818 104.779 36.4238 103.858 36.3512C103.345 36.3109 102.892 36.1616 102.699 35.6331C102.497 35.0763 102.48 34.6244 102.989 34.0999C105.838 31.191 108.63 28.2297 111.434 25.2764C111.959 24.7237 112.399 24.1104 112.448 23.3156C112.533 21.9398 112.601 20.56 112.662 19.1842C112.666 19.0793 112.605 18.9462 112.537 18.8615C112.169 18.4177 111.805 17.9658 111.405 17.5503C110.367 16.4811 109.074 15.8275 107.648 15.4644C106.961 15.2909 106.557 14.9843 106.589 14.2419C106.593 14.137 106.557 14.0321 106.545 13.9232C106.339 11.9947 105.446 10.5584 103.6 9.79587C103.466 9.74342 103.288 9.71518 103.159 9.75552C101.697 10.1953 100.646 11.1353 99.8663 12.4304C98.4765 14.7382 97.4786 17.2275 96.4362 19.6966C95.8705 21.0361 96.0968 22.1416 97.026 23.2591C97.5836 23.9289 98.1008 24.2274 98.9896 24.2194C99.9391 24.2113 100.723 24.062 101.341 23.3156C101.458 23.1744 101.608 23.0493 101.765 22.9444C102.42 22.5047 103.07 22.0568 103.749 21.6574C104.032 21.492 104.404 21.4839 104.646 21.7583C104.88 22.0246 104.731 22.3393 104.557 22.5733C103.911 23.4286 103.317 24.3364 102.569 25.0948C100.246 27.447 97.8664 29.7386 95.511 32.0585C95.3817 32.1876 95.2564 32.3409 95.1877 32.5063C94.3312 34.5841 94.1171 36.7264 94.5615 38.9333C94.5857 39.0624 94.61 39.2117 94.6908 39.3045C95.8019 40.5431 97.0907 41.5517 98.7149 42.0197C101.086 42.7056 103.507 42.6451 105.919 42.2981C107.858 42.0197 109.781 41.6082 111.712 41.2774C111.955 41.237 112.25 41.2855 112.472 41.3904C113.211 41.7373 113.93 42.1367 114.666 42.4999C114.811 42.5725 115.005 42.6169 115.159 42.5886C115.648 42.4958 116.136 42.399 116.605 42.2376C117.381 41.9713 118.056 41.5679 118.447 40.7811C119.231 39.2117 120.088 37.6745 120.843 36.089C123.094 31.3686 125.316 26.636 127.538 21.8995C127.659 21.6413 127.801 21.5485 128.083 21.5566C129.158 21.5767 130.237 21.5727 131.312 21.5646Z" fill="#131313"/>
<path d="M52.3857 29.4279C50.8908 25.583 49.3879 21.7381 47.9091 17.8851C47.7799 17.5503 47.7273 17.1589 47.7556 16.7998C47.8768 15.0609 48.0344 13.3221 48.1879 11.5872C48.2081 11.3532 48.1394 11.2039 47.9657 11.0345C47.2223 10.3244 46.3294 10.0339 45.3234 10.0299C44.0063 10.0218 42.9275 10.3768 42.2892 11.6961C41.4124 13.5076 40.3741 15.2385 39.5135 17.05C38.358 19.4828 37.2833 21.9519 36.2086 24.4211C35.8773 25.1836 35.9137 25.9986 36.1722 26.7853C36.7783 28.613 38.8348 29.5692 40.4993 28.3628C41.1175 27.915 41.667 27.3784 42.2568 26.8943C42.5356 26.6643 42.8144 26.4262 43.1215 26.2447C43.5497 25.9905 43.7113 26.0349 43.9053 26.4868C44.1921 27.1484 44.4709 27.8222 44.685 28.5081C45.1779 30.1017 45.5577 31.7196 45.4608 33.406C45.4527 33.5472 45.4406 33.7167 45.3557 33.8135C44.2608 35.1005 43.0689 36.2504 41.2872 36.4965C41.1175 36.5207 40.9114 36.5086 40.7579 36.4359C40.1802 36.1535 39.6064 35.855 39.0529 35.5241C38.863 35.4112 38.6853 35.2175 38.5843 35.0198C38.0388 33.9144 37.554 32.7766 36.9762 31.6913C36.4106 30.6222 35.4854 30.0251 34.2572 29.9403C33.841 29.9121 33.4208 29.9323 33.0087 29.8758C32.1805 29.7709 31.5381 30.0694 30.8714 30.5536C29.0372 31.889 27.1544 33.1599 25.2717 34.4267C24.3626 35.04 23.3364 35.2619 22.197 35.1086C22.189 35.0198 22.1809 34.9553 22.1768 34.8907C22.1162 33.9789 22.5122 33.1841 22.8677 32.3974C23.8737 30.1743 24.9282 27.9755 25.9585 25.7646C26.0312 25.6113 26.1201 25.4378 26.1201 25.2764C26.1161 24.4977 26.1242 23.7191 26.0555 22.9444C25.9625 21.9035 25.4777 21.3589 24.4434 21.254C23.3243 21.141 22.189 21.1531 21.0617 21.1289C20.9648 21.1249 20.8355 21.2177 20.7749 21.3024C20.189 22.1174 19.5305 22.9001 19.0497 23.7756C17.979 25.7242 16.9892 27.7213 15.9831 29.7063C15.0902 31.4654 13.963 33.0268 12.3429 34.1968C11.5106 34.7979 10.6621 35.3628 9.60359 35.4878C8.73898 35.5887 8.06426 35.1651 7.80568 34.338C7.72488 34.0717 7.66428 33.7852 7.66832 33.5109C7.6764 32.0262 8.08446 30.6464 8.93695 29.4279C10.5126 27.1807 12.4398 25.2562 14.5367 23.4972C15.3933 22.779 16.3023 22.1295 17.3447 21.7058C18.4396 21.262 19.5224 20.7819 20.6456 20.4148C22.6455 19.7571 24.6575 19.1237 26.6898 18.5831C27.4736 18.3733 28.1928 18.1151 28.8392 17.643C30.1765 16.6707 30.2452 16.5214 30.0189 14.8915C29.8816 13.9071 29.3967 13.1405 28.4715 12.7411C27.8817 12.4869 27.2554 12.3215 26.6373 12.152C26.3746 12.0835 26.0797 12.0633 25.809 12.1077C24.9444 12.2408 24.0838 12.3901 23.2313 12.5676C17.8093 13.669 12.856 15.8477 8.52889 19.2851C6.73906 20.7093 5.16336 22.4078 3.49474 23.9853C3.40182 24.0741 3.33717 24.2032 3.28061 24.3202C2.23015 26.4464 1.17564 28.5726 0.129221 30.7029C0.0484159 30.8642 0.00801349 31.0579 0.00801349 31.2395C-6.69969e-05 33.2527 -6.69969e-05 35.2659 0.00801349 37.2792C0.00801349 37.4526 0.0686171 37.6503 0.157503 37.7996C0.743338 38.7639 1.33725 39.7201 1.94329 40.6682C2.05238 40.8376 2.22611 40.9909 2.40792 41.0797C3.39778 41.5598 4.39572 42.0278 5.3977 42.4837C5.58355 42.5684 5.8098 42.6169 6.01586 42.6048C7.6966 42.516 9.3733 42.399 11.05 42.3143C11.4419 42.2941 11.7692 42.1731 12.1005 41.9794C12.9247 41.5033 13.757 41.0353 14.6095 40.6157C15.1306 40.3575 15.668 40.4422 16.1205 40.8255C16.6215 41.2491 17.0942 41.7131 17.6033 42.1287C17.7608 42.2578 17.9992 42.3627 18.2012 42.3627C20.084 42.3788 21.9667 42.3707 23.8495 42.3586C24.0394 42.3586 24.2495 42.3062 24.4192 42.2174C25.4656 41.697 26.4959 41.1442 27.5423 40.6278C28.7584 40.0267 29.9907 39.4618 31.2068 38.8647C31.6431 38.6509 32.0391 38.6428 32.4431 38.9333C32.8916 39.252 33.3764 39.5224 33.8168 39.8532C35.542 41.1564 37.4207 42.1367 39.5539 42.5846C39.8489 42.6451 40.164 42.6693 40.467 42.6491C41.2185 42.6007 41.974 42.5523 42.7134 42.4313C43.7962 42.2537 44.8951 42.0924 45.9415 41.7777C47.3193 41.3662 48.3495 40.4019 49.3111 39.3691C50.4181 38.1789 51.3474 36.8878 51.9211 35.3466C52.6039 33.5028 52.4585 31.5945 52.4585 29.6942C52.4665 29.6055 52.4221 29.5127 52.3857 29.4279Z" fill="#131313"/>
<path d="M98.2425 49.6692C98.1536 49.758 98.0971 49.879 98.0244 49.988C97.988 49.9638 97.9516 49.9355 97.9193 49.9113C97.9193 49.6894 97.9193 49.4675 97.9193 49.2254C97.2486 49.2254 96.6062 49.2254 95.9355 49.2254C95.9355 51.8358 95.9355 54.4179 95.9355 57C96.6588 57 97.3537 57 98.085 57C98.085 56.5562 98.085 56.1285 98.085 55.7009C98.085 55.2773 98.085 54.8536 98.085 54.3735C98.2466 54.4865 98.3516 54.5672 98.4607 54.6358C99.5718 55.366 101.147 55.015 101.729 53.8248C102.38 52.4894 102.315 51.1297 101.463 49.8871C100.727 48.8301 99.1475 48.7494 98.2425 49.6692ZM99.8061 52.8485C99.6889 53.1753 99.4384 53.377 99.0829 53.3931C98.695 53.4133 98.392 53.2358 98.2425 52.8888C98.1254 52.6145 98.093 52.3038 98.0244 52.0335C98.093 51.7309 98.1173 51.4606 98.2142 51.2185C98.3516 50.8675 98.6344 50.6658 99.0223 50.6658C99.4182 50.6658 99.6809 50.8917 99.8101 51.2427C100.008 51.7712 100 52.3159 99.8061 52.8485Z" fill="#131313"/>
<path d="M118.343 49.0883C117.575 48.939 116.889 49.1447 116.242 49.6934C116.242 48.7655 116.242 47.9142 116.242 47.0549C115.503 47.0549 114.8 47.0549 114.093 47.0549C114.093 49.6612 114.093 52.2392 114.093 54.8415C114.44 54.8415 114.759 54.8415 115.083 54.8415C115.414 54.8415 115.741 54.8415 116.089 54.8415C116.089 54.5712 116.089 54.3574 116.089 54.1435C116.121 54.1234 116.157 54.1032 116.19 54.083C116.214 54.1314 116.23 54.1839 116.262 54.2283C117.095 55.3862 119.301 55.362 120.004 53.5182C120.266 52.8283 120.347 52.1101 120.254 51.3839C120.08 50.0848 119.422 49.2981 118.343 49.0883ZM117.967 52.8C117.911 53.1632 117.596 53.381 117.204 53.3931C116.816 53.4052 116.525 53.2075 116.388 52.8565C116.287 52.5862 116.254 52.2917 116.186 51.981C116.258 51.7026 116.295 51.4081 116.416 51.1459C116.573 50.8029 116.885 50.6335 117.268 50.6617C117.644 50.69 117.939 50.9199 117.984 51.2629C118.048 51.7712 118.044 52.2957 117.967 52.8Z" fill="#131313"/>
<path d="M64.498 51.1136C64.4819 50.0485 63.9728 49.3747 62.9749 49.177C61.9365 48.9713 60.8861 48.9592 59.8558 49.2214C59.0922 49.4151 58.6033 49.8992 58.466 50.7344C59.1851 50.815 59.8922 50.8957 60.5871 50.9764C60.9305 50.4237 61.3749 50.222 61.9042 50.3591C62.1789 50.4318 62.3284 50.6295 62.3002 50.8877C62.288 51.0006 62.1022 51.1297 61.9689 51.1903C61.7507 51.2871 61.5083 51.3355 61.2739 51.396C60.6235 51.5574 59.9568 51.6704 59.3265 51.8842C58.4538 52.1787 58.0821 53.0421 58.3771 53.9015C58.6033 54.5551 59.2417 54.9666 60.0942 55.0069C60.9709 55.0473 61.7709 54.8577 62.3527 54.2888C62.5426 54.4945 62.6921 54.8092 62.8698 54.8254C63.4799 54.8899 64.0981 54.8496 64.6718 54.8496C64.6152 54.3937 64.5263 53.966 64.5142 53.5303C64.4819 52.7234 64.5102 51.9165 64.498 51.1136ZM61.1891 53.7966C60.8497 53.8087 60.5628 53.7078 60.482 53.3407C60.4093 52.9977 60.5992 52.7718 60.9103 52.6588C61.3628 52.4974 61.8234 52.3562 62.284 52.2029C62.4133 53.1631 61.9891 53.7683 61.1891 53.7966Z" fill="#131313"/>
<path d="M89.2813 51.1136C89.2651 50.0485 88.756 49.3747 87.7581 49.177C86.7197 48.9713 85.6693 48.9592 84.639 49.2214C83.8754 49.4151 83.3865 49.8992 83.2492 50.7344C83.9683 50.815 84.6754 50.8957 85.3703 50.9764C85.7137 50.4237 86.1581 50.222 86.6874 50.3591C86.9622 50.4318 87.1116 50.6295 87.0834 50.8877C87.0712 51.0006 86.8854 51.1297 86.7521 51.1903C86.5339 51.2871 86.2915 51.3355 86.0571 51.396C85.4067 51.5574 84.74 51.6704 84.1097 51.8842C83.237 52.1787 82.8653 53.0421 83.1603 53.9015C83.3865 54.5551 84.0249 54.9666 84.8774 55.0069C85.7541 55.0473 86.5541 54.8577 87.1359 54.2888C87.3258 54.4945 87.4753 54.8092 87.653 54.8254C88.2631 54.8899 88.8813 54.8496 89.455 54.8496C89.3984 54.3937 89.3095 53.966 89.2974 53.5303C89.2651 52.7234 89.2934 51.9165 89.2813 51.1136ZM86.146 53.7804C85.7218 53.8652 85.3743 53.7118 85.2733 53.3972C85.1683 53.0744 85.3541 52.7718 85.7864 52.6145C86.2026 52.4652 86.6268 52.3482 87.0793 52.207C87.152 53.147 86.8531 53.6392 86.146 53.7804Z" fill="#131313"/>
<path d="M109.139 51.1136C109.123 50.0485 108.613 49.3747 107.615 49.177C106.577 48.9713 105.527 48.9592 104.496 49.2214C103.733 49.4151 103.244 49.8992 103.107 50.7344C103.826 50.815 104.533 50.8957 105.228 50.9764C105.571 50.4237 106.016 50.222 106.545 50.3591C106.82 50.4318 106.969 50.6295 106.941 50.8877C106.929 51.0006 106.743 51.1297 106.609 51.1903C106.391 51.2871 106.149 51.3355 105.915 51.396C105.264 51.5574 104.597 51.6704 103.967 51.8842C103.094 52.1787 102.723 53.0421 103.018 53.9015C103.244 54.5551 103.882 54.9666 104.735 55.0069C105.612 55.0473 106.412 54.8577 106.993 54.2888C107.183 54.4945 107.333 54.8092 107.51 54.8254C108.121 54.8899 108.739 54.8496 109.312 54.8496C109.256 54.3937 109.167 53.966 109.155 53.5303C109.123 52.7234 109.151 51.9165 109.139 51.1136ZM106.007 53.7764C105.583 53.8611 105.236 53.7078 105.131 53.3972C105.026 53.0744 105.208 52.7718 105.644 52.6145C106.06 52.4652 106.484 52.3482 106.937 52.207C107.014 53.143 106.715 53.6352 106.007 53.7764Z" fill="#131313"/>
<path d="M149.097 51.0692C149.069 50.0323 148.556 49.3707 147.57 49.177C146.532 48.9753 145.481 48.9592 144.451 49.2254C143.687 49.4191 143.202 49.9073 143.065 50.7384C143.792 50.8191 144.495 50.8998 145.19 50.9805C145.526 50.4237 145.978 50.222 146.507 50.3632C146.782 50.4358 146.928 50.6375 146.899 50.8957C146.887 51.0087 146.693 51.1217 146.56 51.1983C146.435 51.271 146.281 51.2992 146.14 51.3315C145.449 51.4969 144.746 51.626 144.067 51.8318C143.223 52.0859 142.843 52.6588 142.887 53.4778C142.932 54.2162 143.453 54.7931 144.261 54.9424C145.275 55.132 146.212 54.9706 146.944 54.2928C147.138 54.5026 147.287 54.8092 147.469 54.8294C148.075 54.894 148.697 54.8536 149.222 54.8536C149.178 54.192 149.125 53.5585 149.101 52.9251C149.089 52.3038 149.117 51.6825 149.097 51.0692ZM145.994 53.7724C145.554 53.8692 145.186 53.7119 145.089 53.3851C144.992 53.0623 145.182 52.7678 145.618 52.6104C146.035 52.4611 146.459 52.3441 146.903 52.207C146.96 53.1551 146.681 53.6191 145.994 53.7724Z" fill="#131313"/>
<path d="M125.122 51.9286C125.118 52.1828 125.094 52.441 125.033 52.683C124.928 53.1067 124.573 53.3447 124.168 53.3084C123.789 53.2721 123.554 53.0219 123.526 52.558C123.498 52.1424 123.514 51.7269 123.514 51.3113C123.514 50.6174 123.514 49.9274 123.514 49.2335C122.762 49.2335 122.055 49.2335 121.344 49.2335C121.344 50.5649 121.312 51.864 121.356 53.1632C121.393 54.2242 121.963 54.8577 122.9 54.9787C123.688 55.0796 124.395 54.898 124.964 54.3049C125.049 54.2162 125.138 54.1355 125.3 53.9781C125.3 54.3332 125.3 54.5712 125.3 54.8213C125.97 54.8213 126.613 54.8213 127.288 54.8213C127.288 52.9332 127.288 51.0773 127.288 49.2335C126.556 49.2335 125.849 49.2335 125.138 49.2335C125.126 50.1614 125.134 51.045 125.122 51.9286Z" fill="#131313"/>
<path d="M139.437 49.0842C138.811 49.1972 138.359 49.5684 137.886 50.0848C137.886 49.7378 137.886 49.4877 137.886 49.2295C137.199 49.2295 136.548 49.2295 135.882 49.2295C135.882 51.0975 135.882 52.9453 135.882 54.8133C136.625 54.8133 137.328 54.8133 138.043 54.8133C138.043 53.8813 138.035 52.9856 138.047 52.0859C138.051 51.8076 138.088 51.5211 138.177 51.2589C138.298 50.8836 138.605 50.7182 138.997 50.7465C139.397 50.7747 139.587 51.041 139.635 51.4081C139.663 51.6179 139.655 51.8358 139.659 52.0496C139.664 52.9695 139.659 53.8934 139.659 54.8173C140.407 54.8173 141.114 54.8173 141.829 54.8173C141.829 53.49 141.874 52.1908 141.817 50.8917C141.756 49.5321 140.791 48.8462 139.437 49.0842Z" fill="#131313"/>
<path d="M132.621 49.177C132.156 49.0721 131.659 49.0399 131.182 49.0721C129.861 49.1569 128.875 49.9113 128.508 51.0491C127.829 53.1511 129.255 55.0029 131.558 55.0271C131.837 54.9948 132.12 54.9747 132.398 54.9303C133.8 54.6963 134.762 53.5989 134.81 52.1747C134.863 50.6456 134.047 49.4998 132.621 49.177ZM132.427 53.034C132.273 53.373 131.97 53.5585 131.582 53.5545C131.174 53.5545 130.871 53.3487 130.726 52.9937C130.596 52.679 130.56 52.328 130.475 51.977C130.56 51.6542 130.609 51.3315 130.738 51.045C130.895 50.69 131.202 50.4963 131.606 50.5004C131.998 50.5044 132.285 50.7061 132.435 51.045C132.73 51.7027 132.726 52.3805 132.427 53.034Z" fill="#131313"/>
<path d="M73.9566 51.5614C73.6536 51.4283 73.3182 51.3637 72.9869 51.2992C72.5021 51.2024 72.0051 51.1499 71.5203 51.041C71.3991 51.0127 71.2213 50.8272 71.2254 50.7223C71.2294 50.5891 71.3668 50.4076 71.4961 50.339C71.8637 50.1413 72.4294 50.2744 72.7243 50.5649C72.8051 50.6456 72.9425 50.7223 73.0475 50.7182C73.6253 50.6859 74.199 50.6254 74.8171 50.573C74.5424 49.8468 74.1141 49.3545 73.399 49.1891C72.4576 48.9713 71.5001 48.9672 70.5668 49.2295C69.7345 49.4635 69.2497 50.0969 69.2618 50.8594C69.2739 51.6139 69.779 52.2191 70.6274 52.4329C71.2658 52.5943 71.9203 52.6871 72.5506 52.8606C72.7162 52.9049 72.9384 53.1309 72.9384 53.2761C72.9384 53.4294 72.7364 53.6473 72.5708 53.7199C72.0092 53.9741 71.5769 53.7643 71.1526 53.0825C70.4577 53.1632 69.7547 53.2438 69.0234 53.3245C69.2295 54.1435 69.7103 54.7003 70.5022 54.8254C71.29 54.9505 72.1061 54.9787 72.9021 54.9303C73.3586 54.902 73.8556 54.7084 74.2394 54.4502C75.3787 53.6836 75.205 52.1061 73.9566 51.5614Z" fill="#131313"/>
<path d="M80.1095 52.9574C79.8995 53.4133 79.5035 53.5868 79.0187 53.5464C78.5379 53.5061 78.2025 53.2277 78.0935 52.7758C78.0046 52.4208 77.9803 52.0294 78.0167 51.6663C78.0854 51.0127 78.449 50.6133 78.9662 50.5125C79.5237 50.4035 79.9116 50.6053 80.2873 51.2145C80.9257 51.1338 81.5762 51.0571 82.2509 50.9724C81.96 50.0566 81.4065 49.403 80.4934 49.2295C79.7661 49.0923 78.9944 49.056 78.2591 49.1286C76.8935 49.2658 76.041 50.1695 75.8309 51.5251C75.5724 53.2075 76.4006 54.551 77.9642 54.8698C78.5621 54.9908 79.1965 55.0231 79.8025 54.9626C81.1721 54.8335 82.0085 54.1153 82.3115 52.909C81.7378 52.8404 81.164 52.792 80.5944 52.6992C80.3398 52.6629 80.2186 52.7194 80.1095 52.9574Z" fill="#131313"/>
<path d="M54.9961 54.8294C55.7112 54.8294 56.4061 54.8294 57.1253 54.8294C57.1253 52.215 57.1253 49.637 57.1253 47.067C56.394 47.067 55.691 47.067 54.9961 47.067C54.9961 49.6692 54.9961 52.2392 54.9961 54.8294Z" fill="#131313"/>
<path d="M92.5861 49.9153C92.5861 49.6934 92.5861 49.4675 92.5861 49.2335C91.9074 49.2335 91.2569 49.2335 90.5902 49.2335C90.5862 49.3182 90.5781 49.3828 90.5781 49.4473C90.5781 51.2266 90.5781 53.0098 90.5781 54.8213C91.3296 54.8213 92.0326 54.8213 92.7599 54.8213C92.7599 54.083 92.7316 53.3729 92.7679 52.6669C92.7922 52.2029 92.8649 51.7309 93.0023 51.2911C93.1558 50.8029 93.5315 50.6577 94.0325 50.7908C94.1335 50.8191 94.2305 50.8473 94.3557 50.8796C94.578 50.3753 94.7881 49.8911 95.0143 49.3787C94.0245 48.826 93.2204 48.9188 92.5861 49.9153Z" fill="#131313"/>
<path d="M94.9452 26.8499C95.0866 25.1675 95.0543 23.473 95.0947 21.7825C95.0987 21.6816 95.0583 21.5727 95.0179 21.4759C94.6381 20.6044 94.2907 19.7128 93.8624 18.8655C93.1513 17.4615 92.121 16.3641 90.6585 15.6984C89.5312 15.186 88.3394 15.0408 87.1233 15.0085C85.0829 14.952 83.1113 15.2506 81.378 16.4004C78.2347 18.4822 75.8065 21.2177 74.0288 24.5381C73.0955 26.285 72.4814 28.1571 71.8471 30.0251C71.7825 30.2187 71.6168 30.4204 71.4431 30.5253C70.0856 31.3403 68.728 32.1674 67.3422 32.9299C65.7665 33.7974 64.1666 34.6164 62.5586 35.4273C61.6495 35.8872 60.8576 35.3022 60.9748 34.2694C61.0354 33.7207 61.1809 33.1518 61.4152 32.6515C62.7929 29.7144 64.1908 26.7853 65.617 23.8724C65.9605 23.1663 66.4413 22.5248 66.8534 21.8551C66.9948 21.6251 67.1927 21.5606 67.4634 21.5646C69.3462 21.5767 71.2289 21.5767 73.1157 21.5646C73.3016 21.5646 73.5198 21.5041 73.6652 21.3952C74.3036 20.9231 74.9258 20.435 75.5358 19.9266C75.6611 19.8257 75.7661 19.624 75.7702 19.4667C75.7863 18.9987 75.7742 18.5266 75.7257 18.0586C75.6166 16.9773 75.0793 16.1946 74.0329 15.8194C73.6935 15.6984 73.3339 15.6298 72.9824 15.5451C72.138 15.3393 71.2936 15.1416 70.429 14.9359C70.4613 14.7462 70.4775 14.6131 70.5017 14.484C70.8128 12.7128 71.1279 10.9457 71.4188 9.17455C71.4512 8.98492 71.3623 8.72671 71.2411 8.56937C70.8896 8.1296 70.5017 7.71808 70.1058 7.31462C69.9967 7.20569 69.8149 7.1129 69.6654 7.10886C68.8735 7.08869 68.0775 7.09272 67.2857 7.10483C67.1564 7.10886 66.9826 7.16535 66.9018 7.25814C66.3402 7.9077 65.6938 8.50885 65.2655 9.2391C64.3161 10.8691 63.4798 12.5676 62.5869 14.2339C62.5101 14.3751 62.3929 14.5607 62.2596 14.5929C61.1001 14.8794 59.9445 15.2022 58.7648 15.3716C57.88 15.4967 57.0962 15.7549 56.3972 16.2874C55.7952 16.7474 55.2417 17.2557 54.9548 17.986C54.6437 18.7687 54.9064 19.7935 55.7184 20.435C56.3406 20.9272 57.0719 21.2862 57.7749 21.6776C58.7365 22.2142 58.7769 22.2545 58.3123 23.247C56.6841 26.7329 55.0356 30.2106 53.3993 33.6925C53.3145 33.87 53.2297 34.0636 53.2094 34.2573C53.1125 35.274 53.0923 36.2988 52.9347 37.3034C52.7973 38.1789 52.9953 38.9172 53.4276 39.6676C53.9731 40.6117 54.6397 41.4226 55.6134 41.9108C56.2356 42.2255 56.8214 42.6572 57.5972 42.6007C59.4355 42.4676 61.2738 42.3667 63.1121 42.2497C63.2818 42.2376 63.4676 42.2174 63.6171 42.1368C66.1867 40.7932 68.7563 39.4457 71.3138 38.078C71.6653 37.8924 71.9723 37.8601 72.2915 38.0699C72.5057 38.2071 72.7238 38.3524 72.8976 38.5339C73.8268 39.5062 74.7359 40.4947 75.6651 41.463C75.8025 41.6082 76.0045 41.7293 76.1944 41.7857C77.1762 42.0682 78.162 42.3385 79.1478 42.5886C79.4024 42.6532 79.6771 42.6693 79.9397 42.6451C80.9053 42.5604 81.8669 42.4555 82.8285 42.3506C83.7779 42.2457 84.7516 42.2739 85.5395 41.5437C86.0082 41.112 86.6061 40.8175 87.1111 40.418C88.0566 39.6676 89.0303 38.9414 89.8949 38.1062C91.0787 36.9645 91.8221 35.504 92.5655 34.0556C93.7412 31.7801 94.731 29.4279 94.9452 26.8499ZM88.1414 24.5462C87.6404 27.0516 86.9414 29.4885 85.7334 31.7599C84.9941 33.1518 84.0365 34.3622 82.9052 35.4475C82.8123 35.5362 82.6507 35.5806 82.5133 35.5887C82.178 35.6089 81.8427 35.5968 81.3376 35.5968C80.4609 35.8953 79.9922 35.3385 79.5559 34.4711C79.2407 33.8458 79.2731 33.289 79.3579 32.6677C79.7296 29.9 80.6185 27.3098 81.9881 24.8689C82.7032 23.594 83.7295 22.5975 84.7799 21.613C84.8607 21.5364 85.0223 21.5081 85.1395 21.5202C85.6728 21.5808 86.2061 21.6534 86.7354 21.7502C86.8566 21.7704 87.0101 21.8712 87.0627 21.9802C87.4263 22.6983 87.7697 23.4245 88.105 24.1548C88.1535 24.2718 88.1656 24.4211 88.1414 24.5462Z" fill="#131313"/>
</g>
<defs>
<clipPath id="clip0_1187_12">
<rect width="204" height="57" fill="white"/>
</clipPath>
</defs>
</svg>
