<svg width="50" height="50" viewBox="0 0 50 50" fill="none" xmlns="http://www.w3.org/2000/svg">
<path d="M35.6777 34.1212C35.7799 34.2234 35.8609 34.3448 35.9162 34.4783C35.9715 34.6118 36 34.7549 36 34.8994C36 35.044 35.9715 35.1871 35.9162 35.3206C35.8609 35.4541 35.7799 35.5755 35.6777 35.6777C35.5755 35.7799 35.4541 35.8609 35.3206 35.9162C35.1871 35.9715 35.044 36 34.8994 36C34.7549 36 34.6118 35.9715 34.4783 35.9162C34.3448 35.8609 34.2234 35.7799 34.1212 35.6777L25 26.555L15.8788 35.6777C15.6724 35.884 15.3924 36 15.1006 36C14.8087 36 14.5287 35.884 14.3223 35.6777C14.116 35.4713 14 35.1913 14 34.8994C14 34.6076 14.116 34.3276 14.3223 34.1212L23.445 25L14.3223 15.8788C14.116 15.6724 14 15.3924 14 15.1006C14 14.8087 14.116 14.5287 14.3223 14.3223C14.5287 14.116 14.8087 14 15.1006 14C15.3924 14 15.6724 14.116 15.8788 14.3223L25 23.445L34.1212 14.3223C34.3276 14.116 34.6076 14 34.8994 14C35.1913 14 35.4713 14.116 35.6777 14.3223C35.884 14.5287 36 14.8087 36 15.1006C36 15.3924 35.884 15.6724 35.6777 15.8788L26.555 25L35.6777 34.1212Z" fill="#FFE4B3"/>
</svg>
